<svg xmlns="http://www.w3.org/2000/svg" xmlns:xlink="http://www.w3.org/1999/xlink" preserveAspectRatio="xMidYMid meet" width="1920" height="1080" viewBox="0 0 1920 1080" style="width:100%;height:100%"><defs><animate repeatCount="indefinite" dur="29.56s" begin="0s" xlink:href="#_R_G_L_1_G_M" fill="freeze" attributeName="opacity" from="1" to="0" keyTimes="0;0.9972936;0.9972936;1" values="1;1;0;0" keySplines="0 0 0 0;0 0 0 0;0 0 0 0" calcMode="spline"/><animate attributeType="XML" attributeName="opacity" dur="26s" from="0" to="1" xlink:href="#time_group"/></defs><g id="_R_G"><g id="_R_G_L_21_G" transform=" translate(1094.203, 724.894) translate(-134.203, -184.894)"><path id="_R_G_L_21_G_D_0_P_0" stroke="#000000" stroke-linecap="round" stroke-linejoin="round" fill="none" stroke-width="4" stroke-opacity="1" d=" M102 204 C102,204 135.13,149.5 138.13,146 C141.13,142.5 142.5,143.5 146,145.5 C149.5,147.5 154.75,150.25 159.5,155 C164.25,159.75 161,160.5 158,165.5 C155,170.5 116.13,235.38 116.13,235.38 "/></g><g id="_R_G_L_20_G" transform=" translate(1241.643, 789.125) translate(-281.643, -249.125)"><path id="_R_G_L_20_G_D_0_P_0" fill="#000000" fill-opacity="1" fill-rule="nonzero" d=" M269.5 221 C269.5,221 303,210 303,210 C303,210 308,213.25 307.5,215 C307,216.75 293.25,234.75 293.25,234.75 "/><path id="_R_G_L_20_G_D_1_P_0" stroke="#000000" stroke-linecap="round" stroke-linejoin="round" fill="none" stroke-width="0" stroke-opacity="1" d=" M269.5 221 C269.5,221 303,210 303,210 C303,210 308,213.25 307.5,215 C307,216.75 293.25,234.75 293.25,234.75 "/><path id="_R_G_L_20_G_D_2_P_0" fill="#000000" fill-opacity="1" fill-rule="nonzero" d=" M294.25 234.75 C284.33,233.83 260,231.5 260,231.5 C260,231.5 269.75,220.75 269.75,220.75 "/><path id="_R_G_L_20_G_D_3_P_0" stroke="#000000" stroke-linecap="round" stroke-linejoin="round" fill="none" stroke-width="0" stroke-opacity="1" d=" M294.25 234.75 C284.33,233.83 260,231.5 260,231.5 C260,231.5 269.75,220.75 269.75,220.75 "/><path id="_R_G_L_20_G_D_4_P_0" fill="#000000" fill-opacity="1" fill-rule="nonzero" d=" M279.5 231.5 C279.5,231.5 242.25,321.25 242.25,321.25 "/><path id="_R_G_L_20_G_D_5_P_0" stroke="#000000" stroke-linecap="round" stroke-linejoin="round" fill="none" stroke-width="4" stroke-opacity="1" d=" M279.5 231.5 C279.5,231.5 242.25,321.25 242.25,321.25 "/></g><g id="_R_G_L_19_G" transform=" translate(954.5, 846) translate(5.5, -306)"><path id="_R_G_L_19_G_D_0_P_0" fill="#000000" fill-opacity="1" fill-rule="nonzero" d=" M118.25 212.5 C118.25,212.5 -133,209.75 -133,209.75 C-133,209.75 -128,359.5 -128,380.5 C-128,384.5 -119.5,389.5 -109,389.5 C-90,389.5 79.5,395 103,395 C112,395 118,383.5 118,374.5 C118,365.5 118.25,212.5 118.25,212.5z "/><path id="_R_G_L_19_G_D_1_P_0" stroke="#000000" stroke-linecap="round" stroke-linejoin="round" fill="none" stroke-width="0" stroke-opacity="1" d=" M118.25 212.5 C118.25,212.5 -133,209.75 -133,209.75 C-133,209.75 -128,359.5 -128,380.5 C-128,384.5 -119.5,389.5 -109,389.5 C-90,389.5 79.5,395 103,395 C112,395 118,383.5 118,374.5 C118,365.5 118.25,212.5 118.25,212.5z "/><path id="_R_G_L_19_G_D_2_P_0" fill="#e2e2e2" fill-opacity="1" fill-rule="nonzero" d=" M-121 196 C-121,196 -133.75,209.75 -133.75,209.75 C-133.75,209.75 119.25,211.75 119.25,211.75 C119.25,211.75 90.5,194 90.5,194 C90.5,194 -121,196 -121,196z "/><path id="_R_G_L_19_G_D_3_P_0" stroke="#000000" stroke-linecap="round" stroke-linejoin="round" fill="none" stroke-width="0" stroke-opacity="1" d=" M-121 196 C-121,196 -133.75,209.75 -133.75,209.75 C-133.75,209.75 119.25,211.75 119.25,211.75 C119.25,211.75 90.5,194 90.5,194 C90.5,194 -121,196 -121,196z "/></g><g id="_R_G_L_18_G" transform=" translate(876.5, 816) scale(0.8170000000000001, 0.8170000000000001) translate(83.5, -276)"><path id="_R_G_L_18_G_D_0_P_0" fill="#a60c14" fill-opacity="1" fill-rule="nonzero" d=" M-102.5 255 C-111.62,255 -121,262.25 -122.25,278.75 C-123.5,295.25 -89.25,332.25 -84.75,337.75 C-79.5,330.75 -42.17,303.35 -45,272.75 C-46.25,259.25 -59,255.75 -63.75,255.75 C-71,255.75 -82.75,261.75 -84.25,274.75 C-86.5,261.25 -92,255 -102.5,255z "/><path id="_R_G_L_18_G_D_1_P_0" stroke="#000000" stroke-linecap="round" stroke-linejoin="round" fill="none" stroke-width="0" stroke-opacity="1" d=" M-102.5 255 C-111.62,255 -121,262.25 -122.25,278.75 C-123.5,295.25 -89.25,332.25 -84.75,337.75 C-79.5,330.75 -42.17,303.35 -45,272.75 C-46.25,259.25 -59,255.75 -63.75,255.75 C-71,255.75 -82.75,261.75 -84.25,274.75 C-86.5,261.25 -92,255 -102.5,255z "/></g><g id="_R_G_L_17_G" transform=" translate(955.5, 816) scale(0.8170000000000001, 0.8170000000000001) translate(83.5, -276)"><path id="_R_G_L_17_G_D_0_P_0" fill="#a60c14" fill-opacity="1" fill-rule="nonzero" d=" M-102.5 255 C-111.62,255 -121,262.25 -122.25,278.75 C-123.5,295.25 -89.25,332.25 -84.75,337.75 C-79.5,330.75 -42.17,303.35 -45,272.75 C-46.25,259.25 -59,255.75 -63.75,255.75 C-71,255.75 -82.75,261.75 -84.25,274.75 C-86.5,261.25 -92,255 -102.5,255z "/><path id="_R_G_L_17_G_D_1_P_0" stroke="#000000" stroke-linecap="round" stroke-linejoin="round" fill="none" stroke-width="0" stroke-opacity="1" d=" M-102.5 255 C-111.62,255 -121,262.25 -122.25,278.75 C-123.5,295.25 -89.25,332.25 -84.75,337.75 C-79.5,330.75 -42.17,303.35 -45,272.75 C-46.25,259.25 -59,255.75 -63.75,255.75 C-71,255.75 -82.75,261.75 -84.25,274.75 C-86.5,261.25 -92,255 -102.5,255z "/></g><g id="_R_G_L_16_G" transform=" translate(1034.5, 816) scale(0.8170000000000001, 0.8170000000000001) translate(83.5, -276)"><path id="_R_G_L_16_G_D_0_P_0" fill="#a60c14" fill-opacity="1" fill-rule="nonzero" d=" M-102.5 255 C-111.62,255 -121,262.25 -122.25,278.75 C-123.5,295.25 -89.25,332.25 -84.75,337.75 C-79.5,330.75 -42.17,303.35 -45,272.75 C-46.25,259.25 -59,255.75 -63.75,255.75 C-71,255.75 -82.75,261.75 -84.25,274.75 C-86.5,261.25 -92,255 -102.5,255z "/><path id="_R_G_L_16_G_D_1_P_0" stroke="#000000" stroke-linecap="round" stroke-linejoin="round" fill="none" stroke-width="0" stroke-opacity="1" d=" M-102.5 255 C-111.62,255 -121,262.25 -122.25,278.75 C-123.5,295.25 -89.25,332.25 -84.75,337.75 C-79.5,330.75 -42.17,303.35 -45,272.75 C-46.25,259.25 -59,255.75 -63.75,255.75 C-71,255.75 -82.75,261.75 -84.25,274.75 C-86.5,261.25 -92,255 -102.5,255z "/></g><g id="_R_G_L_15_G" transform=" translate(962.987, 927.75) translate(-2.987, -387.75)"><path id="_R_G_L_15_G_D_0_P_0" stroke="#000000" stroke-linecap="round" stroke-linejoin="round" fill="none" stroke-width="7.6" stroke-opacity="1" d=" M-104 381 C-104.5,386.5 -98,394.5 -86,394.5 C-74,394.5 84,393.5 92,393.5 C100,393.5 110,387 110,383 "/><path id="_R_G_L_15_G_D_1_P_0" stroke="#000000" stroke-linecap="round" stroke-linejoin="round" fill="none" stroke-width="7.6" stroke-opacity="1" d=" M245 320 C251.5,310 277.5,292 299.5,287 C321.5,282 327.5,282.5 351.5,283 C375.5,283.5 411.5,280.5 411.5,280.5 "/></g><g id="_R_G_L_14_G" transform=" translate(918, 942.149) translate(42, -402.149)"><path id="_R_G_L_14_G_D_0_P_0" stroke="#000000" stroke-linecap="round" stroke-linejoin="round" fill="none" stroke-width="7.6" stroke-opacity="1" d=" M-77 385 C-77,385 -46.25,406.75 -41,412 C-33.75,419.25 -19.5,418 -7,418 C5.5,418 168,418 180.5,418 C193,418 239,409.5 239,379 C239,348.5 240,360 240,360 C240,360 255.5,330.5 272,317 C288.5,303.5 325,294.25 354,295 C378.74,295.64 392.5,295.25 399,295.25 C405.5,295.25 411.25,294.5 411.25,287.5 C411.25,280.5 406.25,281.5 406.25,281.5 "/><path id="_R_G_L_14_G_D_1_P_0" stroke="#000000" stroke-linecap="round" stroke-linejoin="round" fill="none" stroke-width="7.6" stroke-opacity="1" d=" M212 356 C225.5,356 341.5,362 347.5,362 C353.5,362 366.25,361.25 365.5,381 C365.06,392.5 354,394.5 346.5,394.5 C339,394.5 334,383 334,383 C334,383 227,401.5 227,401.5 C227,401.5 190,391.5 190,391.5 "/></g><g id="_R_G_L_13_G" transform=" translate(1062.25, 909.5) translate(-102.25, -369.5)"><path id="_R_G_L_13_G_D_0_P_0" stroke="#000000" stroke-linecap="round" stroke-linejoin="round" fill="none" stroke-width="5" stroke-opacity="1" d=" M-32 379.5 C-26,385.5 -18.5,391.5 -15.5,394.5 C-12.5,397.5 -5.5,400.5 2.5,400.5 C10.5,400.5 153,402.5 166.5,402.5 C180,402.5 236.5,364.5 236.5,336.5 "/></g><g id="_R_G_L_12_G"><path id="_R_G_L_12_G_D_0_P_0" stroke="#3e3e3e" stroke-linecap="round" stroke-linejoin="round" fill="none" stroke-width="8" stroke-opacity="1" d=" M964 882.52 C999.58,882.52 1028.48,911.42 1028.48,947 C1028.48,982.58 999.58,1011.48 964,1011.48 C928.42,1011.48 899.52,982.58 899.52,947 C899.52,911.42 928.42,882.52 964,882.52z "/><path id="_R_G_L_12_G_D_1_P_0" stroke="#3e3e3e" stroke-linecap="round" stroke-linejoin="round" fill="none" stroke-width="1" stroke-opacity="1" d=" M964.13 947.46 C964.13,947.46 975.21,887.16 975.21,887.16 "/><path id="_R_G_L_12_G_D_2_P_0" stroke="#3e3e3e" stroke-linecap="round" stroke-linejoin="round" fill="none" stroke-width="1" stroke-opacity="1" d=" M964.14 947.43 C964.14,947.43 985.52,889.96 985.52,889.96 "/><path id="_R_G_L_12_G_D_3_P_0" stroke="#3e3e3e" stroke-linecap="round" stroke-linejoin="round" fill="none" stroke-width="1" stroke-opacity="1" d=" M964.15 947.39 C964.15,947.39 995.19,894.51 995.19,894.51 "/><path id="_R_G_L_12_G_D_4_P_0" stroke="#3e3e3e" stroke-linecap="round" stroke-linejoin="round" fill="none" stroke-width="1" stroke-opacity="1" d=" M964.18 947.36 C964.18,947.36 1003.92,900.67 1003.92,900.67 "/><path id="_R_G_L_12_G_D_5_P_0" stroke="#3e3e3e" stroke-linecap="round" stroke-linejoin="round" fill="none" stroke-width="1" stroke-opacity="1" d=" M964.2 947.33 C964.2,947.33 1011.45,908.26 1011.45,908.26 "/><path id="_R_G_L_12_G_D_6_P_0" stroke="#3e3e3e" stroke-linecap="round" stroke-linejoin="round" fill="none" stroke-width="1" stroke-opacity="1" d=" M964.23 947.31 C964.23,947.31 1017.55,917.03 1017.55,917.03 "/><path id="_R_G_L_12_G_D_7_P_0" stroke="#3e3e3e" stroke-linecap="round" stroke-linejoin="round" fill="none" stroke-width="1" stroke-opacity="1" d=" M964.27 947.29 C964.27,947.29 1022.03,926.73 1022.03,926.73 "/><path id="_R_G_L_12_G_D_8_P_0" stroke="#3e3e3e" stroke-linecap="round" stroke-linejoin="round" fill="none" stroke-width="1" stroke-opacity="1" d=" M964.31 947.28 C964.31,947.28 1024.76,937.07 1024.76,937.07 "/><path id="_R_G_L_12_G_D_9_P_0" stroke="#3e3e3e" stroke-linecap="round" stroke-linejoin="round" fill="none" stroke-width="1" stroke-opacity="1" d=" M964.34 947.28 C964.34,947.28 1025.66,947.72 1025.66,947.72 "/><path id="_R_G_L_12_G_D_10_P_0" stroke="#3e3e3e" stroke-linecap="round" stroke-linejoin="round" fill="none" stroke-width="1" stroke-opacity="1" d=" M964.38 947.28 C964.38,947.28 1024.69,958.36 1024.69,958.36 "/><path id="_R_G_L_12_G_D_11_P_0" stroke="#3e3e3e" stroke-linecap="round" stroke-linejoin="round" fill="none" stroke-width="1" stroke-opacity="1" d=" M964.42 947.29 C964.42,947.29 1021.88,968.67 1021.88,968.67 "/><path id="_R_G_L_12_G_D_12_P_0" stroke="#3e3e3e" stroke-linecap="round" stroke-linejoin="round" fill="none" stroke-width="1" stroke-opacity="1" d=" M964.45 947.31 C964.45,947.31 1017.33,978.34 1017.33,978.34 "/><path id="_R_G_L_12_G_D_13_P_0" stroke="#3e3e3e" stroke-linecap="round" stroke-linejoin="round" fill="none" stroke-width="1" stroke-opacity="1" d=" M964.48 947.33 C964.48,947.33 1011.17,987.08 1011.17,987.08 "/><path id="_R_G_L_12_G_D_14_P_0" stroke="#3e3e3e" stroke-linecap="round" stroke-linejoin="round" fill="none" stroke-width="1" stroke-opacity="1" d=" M964.51 947.36 C964.51,947.36 1003.59,994.61 1003.59,994.61 "/><path id="_R_G_L_12_G_D_15_P_0" stroke="#3e3e3e" stroke-linecap="round" stroke-linejoin="round" fill="none" stroke-width="1" stroke-opacity="1" d=" M964.53 947.39 C964.53,947.39 994.81,1000.71 994.81,1000.71 "/><path id="_R_G_L_12_G_D_16_P_0" stroke="#3e3e3e" stroke-linecap="round" stroke-linejoin="round" fill="none" stroke-width="1" stroke-opacity="1" d=" M964.55 947.43 C964.55,947.43 985.11,1005.19 985.11,1005.19 "/><path id="_R_G_L_12_G_D_17_P_0" stroke="#3e3e3e" stroke-linecap="round" stroke-linejoin="round" fill="none" stroke-width="1" stroke-opacity="1" d=" M964.56 947.46 C964.56,947.46 974.78,1007.92 974.78,1007.92 "/><path id="_R_G_L_12_G_D_18_P_0" stroke="#3e3e3e" stroke-linecap="round" stroke-linejoin="round" fill="none" stroke-width="1" stroke-opacity="1" d=" M964.56 947.5 C964.56,947.5 964.13,1008.81 964.13,1008.81 "/><path id="_R_G_L_12_G_D_19_P_0" stroke="#3e3e3e" stroke-linecap="round" stroke-linejoin="round" fill="none" stroke-width="1" stroke-opacity="1" d=" M964.56 947.54 C964.56,947.54 953.48,1007.84 953.48,1007.84 "/><path id="_R_G_L_12_G_D_20_P_0" stroke="#3e3e3e" stroke-linecap="round" stroke-linejoin="round" fill="none" stroke-width="1" stroke-opacity="1" d=" M964.55 947.57 C964.55,947.57 943.17,1005.04 943.17,1005.04 "/><path id="_R_G_L_12_G_D_21_P_0" stroke="#3e3e3e" stroke-linecap="round" stroke-linejoin="round" fill="none" stroke-width="1" stroke-opacity="1" d=" M964.53 947.61 C964.53,947.61 933.5,1000.49 933.5,1000.49 "/><path id="_R_G_L_12_G_D_22_P_0" stroke="#3e3e3e" stroke-linecap="round" stroke-linejoin="round" fill="none" stroke-width="1" stroke-opacity="1" d=" M964.51 947.64 C964.51,947.64 924.77,994.33 924.77,994.33 "/><path id="_R_G_L_12_G_D_23_P_0" stroke="#3e3e3e" stroke-linecap="round" stroke-linejoin="round" fill="none" stroke-width="1" stroke-opacity="1" d=" M964.48 947.67 C964.48,947.67 917.24,986.74 917.24,986.74 "/><path id="_R_G_L_12_G_D_24_P_0" stroke="#3e3e3e" stroke-linecap="round" stroke-linejoin="round" fill="none" stroke-width="1" stroke-opacity="1" d=" M964.45 947.69 C964.45,947.69 911.14,977.97 911.14,977.97 "/><path id="_R_G_L_12_G_D_25_P_0" stroke="#3e3e3e" stroke-linecap="round" stroke-linejoin="round" fill="none" stroke-width="1" stroke-opacity="1" d=" M964.42 947.71 C964.42,947.71 906.66,968.27 906.66,968.27 "/><path id="_R_G_L_12_G_D_26_P_0" stroke="#3e3e3e" stroke-linecap="round" stroke-linejoin="round" fill="none" stroke-width="1" stroke-opacity="1" d=" M964.38 947.72 C964.38,947.72 903.93,957.93 903.93,957.93 "/><path id="_R_G_L_12_G_D_27_P_0" stroke="#3e3e3e" stroke-linecap="round" stroke-linejoin="round" fill="none" stroke-width="1" stroke-opacity="1" d=" M964.34 947.72 C964.34,947.72 903.03,947.28 903.03,947.28 "/><path id="_R_G_L_12_G_D_28_P_0" stroke="#3e3e3e" stroke-linecap="round" stroke-linejoin="round" fill="none" stroke-width="1" stroke-opacity="1" d=" M964.31 947.72 C964.31,947.72 904,936.64 904,936.64 "/><path id="_R_G_L_12_G_D_29_P_0" stroke="#3e3e3e" stroke-linecap="round" stroke-linejoin="round" fill="none" stroke-width="1" stroke-opacity="1" d=" M964.27 947.71 C964.27,947.71 906.8,926.33 906.8,926.33 "/><path id="_R_G_L_12_G_D_30_P_0" stroke="#3e3e3e" stroke-linecap="round" stroke-linejoin="round" fill="none" stroke-width="1" stroke-opacity="1" d=" M964.23 947.69 C964.23,947.69 911.36,916.66 911.36,916.66 "/><path id="_R_G_L_12_G_D_31_P_0" stroke="#3e3e3e" stroke-linecap="round" stroke-linejoin="round" fill="none" stroke-width="1" stroke-opacity="1" d=" M964.2 947.67 C964.2,947.67 917.52,907.92 917.52,907.92 "/><path id="_R_G_L_12_G_D_32_P_0" stroke="#3e3e3e" stroke-linecap="round" stroke-linejoin="round" fill="none" stroke-width="1" stroke-opacity="1" d=" M964.18 947.64 C964.18,947.64 925.1,900.39 925.1,900.39 "/><path id="_R_G_L_12_G_D_33_P_0" stroke="#3e3e3e" stroke-linecap="round" stroke-linejoin="round" fill="none" stroke-width="1" stroke-opacity="1" d=" M964.15 947.61 C964.15,947.61 933.88,894.29 933.88,894.29 "/><path id="_R_G_L_12_G_D_34_P_0" stroke="#3e3e3e" stroke-linecap="round" stroke-linejoin="round" fill="none" stroke-width="1" stroke-opacity="1" d=" M964.14 947.57 C964.14,947.57 943.58,889.81 943.58,889.81 "/><path id="_R_G_L_12_G_D_35_P_0" stroke="#3e3e3e" stroke-linecap="round" stroke-linejoin="round" fill="none" stroke-width="1" stroke-opacity="1" d=" M964.13 947.54 C964.13,947.54 953.91,887.08 953.91,887.08 "/><path id="_R_G_L_12_G_D_36_P_0" stroke="#3e3e3e" stroke-linecap="round" stroke-linejoin="round" fill="none" stroke-width="1" stroke-opacity="1" d=" M964.13 947.5 C964.13,947.5 964.56,886.19 964.56,886.19 "/><path id="_R_G_L_12_G_D_37_P_0" fill="#000000" fill-opacity="1" fill-rule="nonzero" d=" M964.25 945.55 C965.6,945.55 966.7,946.65 966.7,948 C966.7,949.35 965.6,950.45 964.25,950.45 C962.9,950.45 961.8,949.35 961.8,948 C961.8,946.65 962.9,945.55 964.25,945.55z "/><path id="_R_G_L_12_G_D_38_P_0" stroke="#3e3e3e" stroke-linecap="round" stroke-linejoin="round" fill="none" stroke-width="0" stroke-opacity="1" d=" M964.25 945.55 C965.6,945.55 966.7,946.65 966.7,948 C966.7,949.35 965.6,950.45 964.25,950.45 C962.9,950.45 961.8,949.35 961.8,948 C961.8,946.65 962.9,945.55 964.25,945.55z "/></g><g id="_R_G_L_11_G" transform=" translate(1307.5, 917) scale(1.2, 1.2) translate(-964, -947)"><path id="_R_G_L_11_G_D_0_P_0" stroke="#3e3e3e" stroke-linecap="round" stroke-linejoin="round" fill="none" stroke-width="8" stroke-opacity="1" d=" M964 882.52 C999.58,882.52 1028.48,911.42 1028.48,947 C1028.48,982.58 999.58,1011.48 964,1011.48 C928.42,1011.48 899.52,982.58 899.52,947 C899.52,911.42 928.42,882.52 964,882.52z "/><path id="_R_G_L_11_G_D_1_P_0" stroke="#3e3e3e" stroke-linecap="round" stroke-linejoin="round" fill="none" stroke-width="1" stroke-opacity="1" d=" M964.13 947.46 C964.13,947.46 975.21,887.16 975.21,887.16 "/><path id="_R_G_L_11_G_D_2_P_0" stroke="#3e3e3e" stroke-linecap="round" stroke-linejoin="round" fill="none" stroke-width="1" stroke-opacity="1" d=" M964.14 947.43 C964.14,947.43 985.52,889.96 985.52,889.96 "/><path id="_R_G_L_11_G_D_3_P_0" stroke="#3e3e3e" stroke-linecap="round" stroke-linejoin="round" fill="none" stroke-width="1" stroke-opacity="1" d=" M964.15 947.39 C964.15,947.39 995.19,894.51 995.19,894.51 "/><path id="_R_G_L_11_G_D_4_P_0" stroke="#3e3e3e" stroke-linecap="round" stroke-linejoin="round" fill="none" stroke-width="1" stroke-opacity="1" d=" M964.18 947.36 C964.18,947.36 1003.92,900.67 1003.92,900.67 "/><path id="_R_G_L_11_G_D_5_P_0" stroke="#3e3e3e" stroke-linecap="round" stroke-linejoin="round" fill="none" stroke-width="1" stroke-opacity="1" d=" M964.2 947.33 C964.2,947.33 1011.45,908.26 1011.45,908.26 "/><path id="_R_G_L_11_G_D_6_P_0" stroke="#3e3e3e" stroke-linecap="round" stroke-linejoin="round" fill="none" stroke-width="1" stroke-opacity="1" d=" M964.23 947.31 C964.23,947.31 1017.55,917.03 1017.55,917.03 "/><path id="_R_G_L_11_G_D_7_P_0" stroke="#3e3e3e" stroke-linecap="round" stroke-linejoin="round" fill="none" stroke-width="1" stroke-opacity="1" d=" M964.27 947.29 C964.27,947.29 1022.03,926.73 1022.03,926.73 "/><path id="_R_G_L_11_G_D_8_P_0" stroke="#3e3e3e" stroke-linecap="round" stroke-linejoin="round" fill="none" stroke-width="1" stroke-opacity="1" d=" M964.31 947.28 C964.31,947.28 1024.76,937.07 1024.76,937.07 "/><path id="_R_G_L_11_G_D_9_P_0" stroke="#3e3e3e" stroke-linecap="round" stroke-linejoin="round" fill="none" stroke-width="1" stroke-opacity="1" d=" M964.34 947.28 C964.34,947.28 1025.66,947.72 1025.66,947.72 "/><path id="_R_G_L_11_G_D_10_P_0" stroke="#3e3e3e" stroke-linecap="round" stroke-linejoin="round" fill="none" stroke-width="1" stroke-opacity="1" d=" M964.38 947.28 C964.38,947.28 1024.69,958.36 1024.69,958.36 "/><path id="_R_G_L_11_G_D_11_P_0" stroke="#3e3e3e" stroke-linecap="round" stroke-linejoin="round" fill="none" stroke-width="1" stroke-opacity="1" d=" M964.42 947.29 C964.42,947.29 1021.88,968.67 1021.88,968.67 "/><path id="_R_G_L_11_G_D_12_P_0" stroke="#3e3e3e" stroke-linecap="round" stroke-linejoin="round" fill="none" stroke-width="1" stroke-opacity="1" d=" M964.45 947.31 C964.45,947.31 1017.33,978.34 1017.33,978.34 "/><path id="_R_G_L_11_G_D_13_P_0" stroke="#3e3e3e" stroke-linecap="round" stroke-linejoin="round" fill="none" stroke-width="1" stroke-opacity="1" d=" M964.48 947.33 C964.48,947.33 1011.17,987.08 1011.17,987.08 "/><path id="_R_G_L_11_G_D_14_P_0" stroke="#3e3e3e" stroke-linecap="round" stroke-linejoin="round" fill="none" stroke-width="1" stroke-opacity="1" d=" M964.51 947.36 C964.51,947.36 1003.59,994.61 1003.59,994.61 "/><path id="_R_G_L_11_G_D_15_P_0" stroke="#3e3e3e" stroke-linecap="round" stroke-linejoin="round" fill="none" stroke-width="1" stroke-opacity="1" d=" M964.53 947.39 C964.53,947.39 994.81,1000.71 994.81,1000.71 "/><path id="_R_G_L_11_G_D_16_P_0" stroke="#3e3e3e" stroke-linecap="round" stroke-linejoin="round" fill="none" stroke-width="1" stroke-opacity="1" d=" M964.55 947.43 C964.55,947.43 985.11,1005.19 985.11,1005.19 "/><path id="_R_G_L_11_G_D_17_P_0" stroke="#3e3e3e" stroke-linecap="round" stroke-linejoin="round" fill="none" stroke-width="1" stroke-opacity="1" d=" M964.56 947.46 C964.56,947.46 974.78,1007.92 974.78,1007.92 "/><path id="_R_G_L_11_G_D_18_P_0" stroke="#3e3e3e" stroke-linecap="round" stroke-linejoin="round" fill="none" stroke-width="1" stroke-opacity="1" d=" M964.56 947.5 C964.56,947.5 964.13,1008.81 964.13,1008.81 "/><path id="_R_G_L_11_G_D_19_P_0" stroke="#3e3e3e" stroke-linecap="round" stroke-linejoin="round" fill="none" stroke-width="1" stroke-opacity="1" d=" M964.56 947.54 C964.56,947.54 953.48,1007.84 953.48,1007.84 "/><path id="_R_G_L_11_G_D_20_P_0" stroke="#3e3e3e" stroke-linecap="round" stroke-linejoin="round" fill="none" stroke-width="1" stroke-opacity="1" d=" M964.55 947.57 C964.55,947.57 943.17,1005.04 943.17,1005.04 "/><path id="_R_G_L_11_G_D_21_P_0" stroke="#3e3e3e" stroke-linecap="round" stroke-linejoin="round" fill="none" stroke-width="1" stroke-opacity="1" d=" M964.53 947.61 C964.53,947.61 933.5,1000.49 933.5,1000.49 "/><path id="_R_G_L_11_G_D_22_P_0" stroke="#3e3e3e" stroke-linecap="round" stroke-linejoin="round" fill="none" stroke-width="1" stroke-opacity="1" d=" M964.51 947.64 C964.51,947.64 924.77,994.33 924.77,994.33 "/><path id="_R_G_L_11_G_D_23_P_0" stroke="#3e3e3e" stroke-linecap="round" stroke-linejoin="round" fill="none" stroke-width="1" stroke-opacity="1" d=" M964.48 947.67 C964.48,947.67 917.24,986.74 917.24,986.74 "/><path id="_R_G_L_11_G_D_24_P_0" stroke="#3e3e3e" stroke-linecap="round" stroke-linejoin="round" fill="none" stroke-width="1" stroke-opacity="1" d=" M964.45 947.69 C964.45,947.69 911.14,977.97 911.14,977.97 "/><path id="_R_G_L_11_G_D_25_P_0" stroke="#3e3e3e" stroke-linecap="round" stroke-linejoin="round" fill="none" stroke-width="1" stroke-opacity="1" d=" M964.42 947.71 C964.42,947.71 906.66,968.27 906.66,968.27 "/><path id="_R_G_L_11_G_D_26_P_0" stroke="#3e3e3e" stroke-linecap="round" stroke-linejoin="round" fill="none" stroke-width="1" stroke-opacity="1" d=" M964.38 947.72 C964.38,947.72 903.93,957.93 903.93,957.93 "/><path id="_R_G_L_11_G_D_27_P_0" stroke="#3e3e3e" stroke-linecap="round" stroke-linejoin="round" fill="none" stroke-width="1" stroke-opacity="1" d=" M964.34 947.72 C964.34,947.72 903.03,947.28 903.03,947.28 "/><path id="_R_G_L_11_G_D_28_P_0" stroke="#3e3e3e" stroke-linecap="round" stroke-linejoin="round" fill="none" stroke-width="1" stroke-opacity="1" d=" M964.31 947.72 C964.31,947.72 904,936.64 904,936.64 "/><path id="_R_G_L_11_G_D_29_P_0" stroke="#3e3e3e" stroke-linecap="round" stroke-linejoin="round" fill="none" stroke-width="1" stroke-opacity="1" d=" M964.27 947.71 C964.27,947.71 906.8,926.33 906.8,926.33 "/><path id="_R_G_L_11_G_D_30_P_0" stroke="#3e3e3e" stroke-linecap="round" stroke-linejoin="round" fill="none" stroke-width="1" stroke-opacity="1" d=" M964.23 947.69 C964.23,947.69 911.36,916.66 911.36,916.66 "/><path id="_R_G_L_11_G_D_31_P_0" stroke="#3e3e3e" stroke-linecap="round" stroke-linejoin="round" fill="none" stroke-width="1" stroke-opacity="1" d=" M964.2 947.67 C964.2,947.67 917.52,907.92 917.52,907.92 "/><path id="_R_G_L_11_G_D_32_P_0" stroke="#3e3e3e" stroke-linecap="round" stroke-linejoin="round" fill="none" stroke-width="1" stroke-opacity="1" d=" M964.18 947.64 C964.18,947.64 925.1,900.39 925.1,900.39 "/><path id="_R_G_L_11_G_D_33_P_0" stroke="#3e3e3e" stroke-linecap="round" stroke-linejoin="round" fill="none" stroke-width="1" stroke-opacity="1" d=" M964.15 947.61 C964.15,947.61 933.88,894.29 933.88,894.29 "/><path id="_R_G_L_11_G_D_34_P_0" stroke="#3e3e3e" stroke-linecap="round" stroke-linejoin="round" fill="none" stroke-width="1" stroke-opacity="1" d=" M964.14 947.57 C964.14,947.57 943.58,889.81 943.58,889.81 "/><path id="_R_G_L_11_G_D_35_P_0" stroke="#3e3e3e" stroke-linecap="round" stroke-linejoin="round" fill="none" stroke-width="1" stroke-opacity="1" d=" M964.13 947.54 C964.13,947.54 953.91,887.08 953.91,887.08 "/><path id="_R_G_L_11_G_D_36_P_0" stroke="#3e3e3e" stroke-linecap="round" stroke-linejoin="round" fill="none" stroke-width="1" stroke-opacity="1" d=" M964.13 947.5 C964.13,947.5 964.56,886.19 964.56,886.19 "/><path id="_R_G_L_11_G_D_37_P_0" fill="#000000" fill-opacity="1" fill-rule="nonzero" d=" M964.25 945.55 C965.6,945.55 966.7,946.65 966.7,948 C966.7,949.35 965.6,950.45 964.25,950.45 C962.9,950.45 961.8,949.35 961.8,948 C961.8,946.65 962.9,945.55 964.25,945.55z "/><path id="_R_G_L_11_G_D_38_P_0" stroke="#3e3e3e" stroke-linecap="round" stroke-linejoin="round" fill="none" stroke-width="0" stroke-opacity="1" d=" M964.25 945.55 C965.6,945.55 966.7,946.65 966.7,948 C966.7,949.35 965.6,950.45 964.25,950.45 C962.9,950.45 961.8,949.35 961.8,948 C961.8,946.65 962.9,945.55 964.25,945.55z "/></g><g id="_R_G_L_10_G" transform=" translate(1310.447, 809.5) translate(-350.447, -269.5)"><path id="_R_G_L_10_G_D_0_P_0" fill="#000000" fill-opacity="1" fill-rule="nonzero" d=" M392 259.5 C382.5,259.5 306.5,259.5 297,259.5 C287.5,259.5 288.88,264.58 293,270.5 C294.27,272.32 305.01,278.76 305.01,278.76 C305.01,278.76 389.21,279.92 393,279.5 C397.5,279 411,279.25 411,267 C411,257.25 401.5,259.5 392,259.5z "/><path id="_R_G_L_10_G_D_1_P_0" stroke="#000000" stroke-linecap="round" stroke-linejoin="round" fill="none" stroke-width="5" stroke-opacity="1" d=" M392 259.5 C382.5,259.5 306.5,259.5 297,259.5 C287.5,259.5 288.88,264.58 293,270.5 C294.27,272.32 305.01,278.76 305.01,278.76 C305.01,278.76 389.21,279.92 393,279.5 C397.5,279 411,279.25 411,267 C411,257.25 401.5,259.5 392,259.5z "/></g><g id="_R_G_L_9_G" transform=" translate(1155.746, 954) translate(-195.746, -414)"><path id="_R_G_L_9_G_D_0_P_0" fill="#000000" fill-opacity="1" fill-rule="nonzero" d=" M200 400.5 C200,400.5 182.5,409 182.5,409 C182.5,409 162,410.5 159,412 C156,413.5 156,421 161.5,426 C167,431 195.5,433.5 195.5,433.5 C195.5,433.5 206.5,434.5 210,436.5 C212.01,437.65 224.1,439.12 230.22,440.59 C234.77,441.68 234.81,436.36 234.81,436.36 C234.81,436.36 238,412 238,412 C238,412 226,404.5 226,404.5 C226,404.5 200,400.5 200,400.5z "/><path id="_R_G_L_9_G_D_1_P_0" stroke="#000000" stroke-linecap="round" stroke-linejoin="round" fill="none" stroke-width="4" stroke-opacity="1" d=" M200 400.5 C200,400.5 182.5,409 182.5,409 C182.5,409 162,410.5 159,412 C156,413.5 156,421 161.5,426 C167,431 195.5,433.5 195.5,433.5 C195.5,433.5 206.5,434.5 210,436.5 C212.01,437.65 224.1,439.12 230.22,440.59 C234.77,441.68 234.81,436.36 234.81,436.36 C234.81,436.36 238,412 238,412 C238,412 226,404.5 226,404.5 C226,404.5 200,400.5 200,400.5z "/><path id="_R_G_L_9_G_D_2_P_0" fill="#a7a6a6" fill-opacity="1" fill-rule="nonzero" d=" M198 383.25 C198,383.25 204,406 204,406 C204,406 228.5,412 228.5,412 C228.5,412 225.25,383.75 225.25,383.75 C225.25,383.75 198,383.25 198,383.25z "/><path id="_R_G_L_9_G_D_3_P_0" stroke="#000000" stroke-linecap="round" stroke-linejoin="round" fill="none" stroke-width="0" stroke-opacity="1" d=" M198 383.25 C198,383.25 204,406 204,406 C204,406 228.5,412 228.5,412 C228.5,412 225.25,383.75 225.25,383.75 C225.25,383.75 198,383.25 198,383.25z "/></g><g id="_R_G_L_8_G" transform=" translate(1201.325, 822.094) translate(-241.325, -282.094)"><path id="_R_G_L_8_G_D_0_P_0" fill="#131422" fill-opacity="1" fill-rule="nonzero" d=" M253 195 C253,195 200.5,201 197.5,200.5 C194.5,200 174,208 168,216.5 C162,225 156,245 169.5,254 C183,263 211.5,309.5 213,308 C214.5,306.5 253,283.5 253,283.5 C253,283.5 207,241.5 203.5,236 C200,230.5 250,204 250,204 C250,204 253,195 253,195z "/><path id="_R_G_L_8_G_D_1_P_0" stroke="#000000" stroke-linecap="round" stroke-linejoin="round" fill="none" stroke-width="0" stroke-opacity="1" d=" M253 195 C253,195 200.5,201 197.5,200.5 C194.5,200 174,208 168,216.5 C162,225 156,245 169.5,254 C183,263 211.5,309.5 213,308 C214.5,306.5 253,283.5 253,283.5 C253,283.5 207,241.5 203.5,236 C200,230.5 250,204 250,204 C250,204 253,195 253,195z "/><path id="_R_G_L_8_G_D_2_P_0" fill="#24253f" fill-opacity="1" fill-rule="nonzero" d=" M312 177.5 C312,177.5 233.91,198.68 233.91,198.68 C233.91,198.68 218,203 218,203 C218,203 184.5,254 179,262 C173.5,270 171,287 172,296 C173,305 167.5,384 173.5,386 C179.5,388 234.5,385 234.5,385 C234.5,385 223.5,343 223.5,343 C223.5,343 214.5,313 213.5,309.5 C212.5,306 239,261.5 239,261.5 C239,261.5 273.5,221.5 273.5,221.5 C273.5,221.5 300,212.5 302,209.5 C304,206.5 312,177.5 312,177.5z "/><path id="_R_G_L_8_G_D_3_P_0" stroke="#000000" stroke-linecap="round" stroke-linejoin="round" fill="none" stroke-width="0" stroke-opacity="1" d=" M312 177.5 C312,177.5 233.91,198.68 233.91,198.68 C233.91,198.68 218,203 218,203 C218,203 184.5,254 179,262 C173.5,270 171,287 172,296 C173,305 167.5,384 173.5,386 C179.5,388 234.5,385 234.5,385 C234.5,385 223.5,343 223.5,343 C223.5,343 214.5,313 213.5,309.5 C212.5,306 239,261.5 239,261.5 C239,261.5 273.5,221.5 273.5,221.5 C273.5,221.5 300,212.5 302,209.5 C304,206.5 312,177.5 312,177.5z "/></g><g id="_R_G_L_7_G" transform=" translate(1205.5, 539.5) translate(-245.5, 0.5)"><path id="_R_G_L_7_G_D_0_P_0" fill="#e8ceb7" fill-opacity="1" fill-rule="nonzero" d=" M230.5 -2.5 C230.5,-2.5 200.73,26.76 195.5,46 C194.7,48.94 198.5,49.91 203.08,50.05 C209.11,50.24 216.5,49 216.5,49 C216.5,49 247,-2 247,-2 C247,-2 230.5,-2.5 230.5,-2.5z "/><path id="_R_G_L_7_G_D_1_P_0" stroke="#000000" stroke-linecap="round" stroke-linejoin="round" fill="none" stroke-width="0" stroke-opacity="1" d=" M230.5 -2.5 C230.5,-2.5 200.73,26.76 195.5,46 C194.7,48.94 198.5,49.91 203.08,50.05 C209.11,50.24 216.5,49 216.5,49 C216.5,49 247,-2 247,-2 C247,-2 230.5,-2.5 230.5,-2.5z "/><path id="_R_G_L_7_G_D_2_P_0" fill="#e8ceb7" fill-opacity="1" fill-rule="nonzero" d=" M156.25 127.5 C156.25,128.25 158.75,140.25 159.75,140.25 C160.75,140.25 169.75,140.75 165.25,133.5 C160.75,126.25 156.25,126.75 156.25,127.5z "/><path id="_R_G_L_7_G_D_3_P_0" stroke="#000000" stroke-linecap="round" stroke-linejoin="round" fill="none" stroke-width="0" stroke-opacity="1" d=" M156.25 127.5 C156.25,128.25 158.75,140.25 159.75,140.25 C160.75,140.25 169.75,140.75 165.25,133.5 C160.75,126.25 156.25,126.75 156.25,127.5z "/><path id="_R_G_L_7_G_D_4_P_0" fill="#e8ceb7" fill-opacity="1" fill-rule="nonzero" d=" M309 150 C309,150 201,187 201,187 C201,187 193,201.5 195.5,202.5 C198,203.5 213,201.5 213,201.5 C213,201.5 306.5,184.5 311,182.5 C315.5,180.5 335,162.5 335,162.5 C335,162.5 329.5,153 329.5,153 C329.5,153 309,150 309,150z "/><path id="_R_G_L_7_G_D_5_P_0" stroke="#000000" stroke-linecap="round" stroke-linejoin="round" fill="none" stroke-width="0" stroke-opacity="1" d=" M309 150 C309,150 201,187 201,187 C201,187 193,201.5 195.5,202.5 C198,203.5 213,201.5 213,201.5 C213,201.5 306.5,184.5 311,182.5 C315.5,180.5 335,162.5 335,162.5 C335,162.5 329.5,153 329.5,153 C329.5,153 309,150 309,150z "/><path id="_R_G_L_7_G_D_6_P_0" fill="#a96d3a" fill-opacity="1" fill-rule="nonzero" d=" M210 99.5 C210,99.5 159,127.5 159,127.5 C159,127.5 164,138.5 164,138.5 C164,138.5 174.47,133.93 174.47,133.93 C174.47,133.93 197.5,128 197.5,128 C197.5,128 210,99.5 210,99.5z "/><path id="_R_G_L_7_G_D_7_P_0" stroke="#000000" stroke-linecap="round" stroke-linejoin="round" fill="none" stroke-width="0" stroke-opacity="1" d=" M210 99.5 C210,99.5 159,127.5 159,127.5 C159,127.5 164,138.5 164,138.5 C164,138.5 174.47,133.93 174.47,133.93 C174.47,133.93 197.5,128 197.5,128 C197.5,128 210,99.5 210,99.5z "/><path id="_R_G_L_7_G_D_8_P_0" fill="#d69359" fill-opacity="1" fill-rule="nonzero" d=" M245.5 -0.5 C243.7,-0.45 239.5,11.5 239.5,11.5 C239.5,11.5 226,28 226,28 C226,28 219.5,47.5 219.5,47.5 C219.5,47.5 209.5,47 209.5,47 C209.5,47 196,191.5 196,191.5 C196,191.5 255,184.5 273.5,180.5 C292,176.5 318.5,153 318.5,153 C318.5,153 296,66 290,50.5 C284,35 265.5,-1 245.5,-0.5z "/><path id="_R_G_L_7_G_D_9_P_0" stroke="#000000" stroke-linecap="round" stroke-linejoin="round" fill="none" stroke-width="0" stroke-opacity="1" d=" M245.5 -0.5 C243.7,-0.45 239.5,11.5 239.5,11.5 C239.5,11.5 226,28 226,28 C226,28 219.5,47.5 219.5,47.5 C219.5,47.5 209.5,47 209.5,47 C209.5,47 196,191.5 196,191.5 C196,191.5 255,184.5 273.5,180.5 C292,176.5 318.5,153 318.5,153 C318.5,153 296,66 290,50.5 C284,35 265.5,-1 245.5,-0.5z "/><path id="_R_G_L_7_G_D_10_P_0" fill="#a96d3a" fill-opacity="1" fill-rule="nonzero" d=" M221.5 34.5 C211.92,48.11 207,115 207,115 C207,115 176,137.5 171.5,142 C167,146.5 185.5,170.5 185.5,170.5 C185.5,170.5 252,106 252,106 C252,106 266.5,91.5 274,75.5 C274.66,74.09 269.62,66.75 268.81,65.38 C268,64 228.73,24.23 221.5,34.5z "/><path id="_R_G_L_7_G_D_11_P_0" stroke="#000000" stroke-linecap="round" stroke-linejoin="round" fill="none" stroke-width="0" stroke-opacity="1" d=" M221.5 34.5 C211.92,48.11 207,115 207,115 C207,115 176,137.5 171.5,142 C167,146.5 185.5,170.5 185.5,170.5 C185.5,170.5 252,106 252,106 C252,106 266.5,91.5 274,75.5 C274.66,74.09 269.62,66.75 268.81,65.38 C268,64 228.73,24.23 221.5,34.5z "/><path id="_R_G_L_7_G_D_12_P_0" fill="#a96d3a" fill-opacity="1" fill-rule="nonzero" d="  "/><path id="_R_G_L_7_G_D_13_P_0" stroke="#000000" stroke-linecap="round" stroke-linejoin="round" fill="none" stroke-width="0" stroke-opacity="1" d="  "/></g><g id="_R_G_L_6_G" transform=" translate(960, 540) translate(0, 0)"><path id="_R_G_L_6_G_D_0_P_0" fill="#b49791" fill-opacity="1" fill-rule="nonzero" d=" M158.5 129.25 C158.5,129.25 147.56,130.03 141,133.25 C137.62,134.91 134,139.01 134,143.25 C134,146.77 140.75,147.75 140.75,147.75 C140.75,147.75 145.75,138.5 145.75,138.5 C145.75,138.5 162.5,139.25 162.5,139.25 C162.5,139.25 158.5,129.25 158.5,129.25z "/><path id="_R_G_L_6_G_D_1_P_0" stroke="#000000" stroke-linecap="round" stroke-linejoin="round" fill="none" stroke-width="0" stroke-opacity="1" d=" M158.5 129.25 C158.5,129.25 147.56,130.03 141,133.25 C137.62,134.91 134,139.01 134,143.25 C134,146.77 140.75,147.75 140.75,147.75 C140.75,147.75 145.75,138.5 145.75,138.5 C145.75,138.5 162.5,139.25 162.5,139.25 C162.5,139.25 158.5,129.25 158.5,129.25z "/><path id="_R_G_L_6_G_D_2_P_0" fill="#b49791" fill-opacity="1" fill-rule="nonzero" d=" M149.25 141 C149.25,141 144.5,150.25 145.25,151.75 C146,153.25 156.51,157.34 160.5,155.25 C165.23,152.77 160.5,143.75 160.5,143.75 C160.5,143.75 149.25,141 149.25,141z "/><path id="_R_G_L_6_G_D_3_P_0" stroke="#000000" stroke-linecap="round" stroke-linejoin="round" fill="none" stroke-width="0" stroke-opacity="1" d=" M149.25 141 C149.25,141 144.5,150.25 145.25,151.75 C146,153.25 156.51,157.34 160.5,155.25 C165.23,152.77 160.5,143.75 160.5,143.75 C160.5,143.75 149.25,141 149.25,141z "/></g><g id="_R_G_L_5_G" transform=" translate(1134.867, 698.129) translate(-174.867, -158.129)"><path id="_R_G_L_5_G_D_0_P_0" fill="#e8cfb6" fill-opacity="1" fill-rule="nonzero" d=" M170.5 142 C167.75,142.5 162.25,141.5 163.5,145.75 C164.75,150 175.25,174.75 178,174.25 C180.75,173.75 188.25,173 186,168.75 C183.75,164.5 173.25,141.5 170.5,142z "/><path id="_R_G_L_5_G_D_1_P_0" stroke="#000000" stroke-linecap="round" stroke-linejoin="round" fill="none" stroke-width="0" stroke-opacity="1" d=" M170.5 142 C167.75,142.5 162.25,141.5 163.5,145.75 C164.75,150 175.25,174.75 178,174.25 C180.75,173.75 188.25,173 186,168.75 C183.75,164.5 173.25,141.5 170.5,142z "/></g><g id="_R_G_L_4_G" transform=" translate(1216.695, 859.5) translate(-256.695, -319.5)"><path id="_R_G_L_4_G_D_0_P_0" fill="#333333" fill-opacity="1" fill-rule="nonzero" d=" M250 283 C250,283 235,296 235,296 C235,296 254,308 254,308 C254,308 268.5,298 268.5,298 C268.5,298 250,283 250,283z "/><path id="_R_G_L_4_G_D_1_P_0" stroke="#000000" stroke-linecap="round" stroke-linejoin="round" fill="none" stroke-width="0" stroke-opacity="1" d=" M250 283 C250,283 235,296 235,296 C235,296 254,308 254,308 C254,308 268.5,298 268.5,298 C268.5,298 250,283 250,283z "/><path id="_R_G_L_4_G_D_2_P_0" fill="#000000" fill-opacity="1" fill-rule="nonzero" d=" M268.5 295.5 C268.5,295.5 249,302.5 249,302.5 C249,302.5 244,317 244,317 C244,317 237.5,322.5 235.5,324 C233.5,325.5 226.5,330 235,335.5 C243.5,341 253,343.5 253,343.5 C253,343.5 262.5,333.5 266,329 C269.5,324.5 282.5,311.5 282.5,311.5 C282.5,311.5 268.5,295.5 268.5,295.5z "/><path id="_R_G_L_4_G_D_3_P_0" stroke="#000000" stroke-linecap="round" stroke-linejoin="round" fill="none" stroke-width="0" stroke-opacity="1" d=" M268.5 295.5 C268.5,295.5 249,302.5 249,302.5 C249,302.5 244,317 244,317 C244,317 237.5,322.5 235.5,324 C233.5,325.5 226.5,330 235,335.5 C243.5,341 253,343.5 253,343.5 C253,343.5 262.5,333.5 266,329 C269.5,324.5 282.5,311.5 282.5,311.5 C282.5,311.5 268.5,295.5 268.5,295.5z "/></g><g id="_R_G_L_3_G" transform=" translate(1171.75, 552.375) translate(-211.75, -12.375)"><path id="_R_G_L_3_G_D_0_P_0" fill="#271912" fill-opacity="1" fill-rule="nonzero" d=" M218.75 5.25 C218,4.75 190.5,11.25 192.75,12.75 C195,14.25 211.63,18.25 211.63,18.25 C211.63,18.25 221.13,8.38 221.13,8.38 C221.13,8.38 219.5,5.75 218.75,5.25z "/><path id="_R_G_L_3_G_D_1_P_0" stroke="#999999" stroke-linecap="round" stroke-linejoin="round" fill="none" stroke-width="0" stroke-opacity="1" d=" M218.75 5.25 C218,4.75 190.5,11.25 192.75,12.75 C195,14.25 211.63,18.25 211.63,18.25 C211.63,18.25 221.13,8.38 221.13,8.38 C221.13,8.38 219.5,5.75 218.75,5.25z "/></g><g id="_R_G_L_2_G" transform=" translate(1174.633, 529.743) translate(-214.633, 10.257)"><path id="_R_G_L_2_G_D_0_P_0" fill="#a3735f" fill-opacity="1" fill-rule="nonzero" d=" M210.5 -36 C205.5,-36.5 192.5,-36.25 189.25,-34.5 C186,-32.75 185.75,-26.25 186.75,-26 C187.75,-25.75 190.5,-22.5 190.5,-22.5 C190.5,-22.5 188,-19.5 187.25,-16.5 C186.5,-13.5 184.98,-11.9 186.5,-10.37 C188.46,-8.42 191.63,-9.62 191.63,-9.62 C191.63,-9.62 190.38,-4.75 190.13,-4.5 C190,-4.37 189.84,-2.82 189.81,-1.26 C189.79,0.24 189.88,1.76 190.25,2 C191,2.5 189.19,9.91 191.5,11.75 C195.02,14.55 199.62,14.16 203.75,12.75 C208.88,11 220.25,9 221.5,8.5 C222.75,8 232.75,-5.25 232.75,-5.25 C232.75,-5.25 242.68,-18.56 244.25,-20.87 C246.88,-24.75 239.75,-35.75 237,-34 C234.25,-32.25 223,-32.5 223,-32.5 C223,-32.5 215.5,-35.5 210.5,-36z "/><path id="_R_G_L_2_G_D_1_P_0" stroke="#000000" stroke-linecap="round" stroke-linejoin="round" fill="none" stroke-width="0" stroke-opacity="1" d=" M210.5 -36 C205.5,-36.5 192.5,-36.25 189.25,-34.5 C186,-32.75 185.75,-26.25 186.75,-26 C187.75,-25.75 190.5,-22.5 190.5,-22.5 C190.5,-22.5 188,-19.5 187.25,-16.5 C186.5,-13.5 184.98,-11.9 186.5,-10.37 C188.46,-8.42 191.63,-9.62 191.63,-9.62 C191.63,-9.62 190.38,-4.75 190.13,-4.5 C190,-4.37 189.84,-2.82 189.81,-1.26 C189.79,0.24 189.88,1.76 190.25,2 C191,2.5 189.19,9.91 191.5,11.75 C195.02,14.55 199.62,14.16 203.75,12.75 C208.88,11 220.25,9 221.5,8.5 C222.75,8 232.75,-5.25 232.75,-5.25 C232.75,-5.25 242.68,-18.56 244.25,-20.87 C246.88,-24.75 239.75,-35.75 237,-34 C234.25,-32.25 223,-32.5 223,-32.5 C223,-32.5 215.5,-35.5 210.5,-36z "/><path id="_R_G_L_2_G_D_2_P_0" fill="#8a5f4d" fill-opacity="1" fill-rule="nonzero" d=" M233.75 -24.5 C231,-26.5 229.75,-23.25 227,-21.37 C224.25,-19.5 225.75,-8.5 225.75,-8.5 C225.75,-8.5 229.13,-8.37 229.75,-8.75 C230.38,-9.12 236.38,-13 237.38,-16.37 C238.38,-19.75 236.5,-22.5 233.75,-24.5z "/><path id="_R_G_L_2_G_D_3_P_0" stroke="#8a5f4d" stroke-linecap="round" stroke-linejoin="round" fill="none" stroke-width="2" stroke-opacity="1" d=" M233.75 -24.5 C231,-26.5 229.75,-23.25 227,-21.37 C224.25,-19.5 225.75,-8.5 225.75,-8.5 C225.75,-8.5 229.13,-8.37 229.75,-8.75 C230.38,-9.12 236.38,-13 237.38,-16.37 C238.38,-19.75 236.5,-22.5 233.75,-24.5z "/><path id="_R_G_L_2_G_D_4_P_0" fill="#946251" fill-opacity="1" fill-rule="nonzero" d=" M191.13 -1.87 C191.13,-1.87 199.5,-0.87 201.5,-2.5 "/><path id="_R_G_L_2_G_D_5_P_0" stroke="#7c5143" stroke-linecap="round" stroke-linejoin="round" fill="none" stroke-width="2" stroke-opacity="1" d=" M191.13 -1.87 C191.13,-1.87 199.5,-0.87 201.5,-2.5 "/><path id="_R_G_L_2_G_D_6_P_0" fill="#946251" fill-opacity="1" fill-rule="nonzero" d=" M193.88 -27.75 C194.38,-28 198.25,-30 202.13,-28.87 "/><path id="_R_G_L_2_G_D_7_P_0" stroke="#553227" stroke-linecap="round" stroke-linejoin="round" fill="none" stroke-width="2" stroke-opacity="1" d=" M193.88 -27.75 C194.38,-28 198.25,-30 202.13,-28.87 "/></g><g id="_R_G_L_1_G_M"><g id="_R_G_L_1_G" transform=" translate(1145, 499.5) translate(-185, 40.5)"><path id="_R_G_L_1_G_D_0_P_0" stroke="#560909" stroke-linecap="round" stroke-linejoin="round" fill="none" stroke-width="4.6" stroke-opacity="1" d=" M224.75 -36.87 C224.75,-36.87 219,-7.12 219.13,-1.12 C219.25,4.88 218.88,13 218.88,13 "/><path id="_R_G_L_1_G_D_1_P_0" stroke="#560909" stroke-linecap="round" stroke-linejoin="round" fill="none" stroke-width="4.6" stroke-opacity="1" d=" M247.38 -21.5 C247.38,-21.5 233.88,-3.12 233.88,-3.12 "/><path id="_R_G_L_1_G_D_2_P_0" fill="#457081" fill-opacity="1" fill-rule="nonzero" d=" M218 -70.5 C188.5,-70.5 177,-52.75 178.25,-35.12 C181.88,-31.5 196,-34.62 196,-34.62 C196,-34.62 204.81,-36.89 215.02,-34.12 C218.09,-33.28 219.9,-30.03 222.99,-29.47 C226.79,-28.78 229.97,-31.5 233.22,-31.95 C235.99,-32.34 239.05,-30.53 240,-29.5 C242.07,-27.25 243.4,-22.29 245.29,-18.65 C246.79,-15.75 248.79,-13.87 250.82,-13.56 C252.88,-13.25 254.5,-13 254.5,-13 C254.5,-13 256.5,-41 256.5,-51 C256.5,-61 247.5,-70.5 218,-70.5z "/></g></g><g id="_R_G_L_0_G"><path id="_R_G_L_0_G_D_0_P_0" fill="#36221a" fill-opacity="1" fill-rule="nonzero" d=" M1156.75 511.07 C1158.4,511.07 1159.74,513.39 1159.74,516.25 C1159.74,519.11 1158.4,521.43 1156.75,521.43 C1155.1,521.43 1153.76,519.11 1153.76,516.25 C1153.76,513.39 1155.1,511.07 1156.75,511.07z "/><path id="_R_G_L_0_G_D_1_P_0" stroke="#999999" stroke-linecap="round" stroke-linejoin="round" fill="none" stroke-width="1" stroke-opacity="1" d=" M1156.75 511.07 C1158.4,511.07 1159.74,513.39 1159.74,516.25 C1159.74,519.11 1158.4,521.43 1156.75,521.43 C1155.1,521.43 1153.76,519.11 1153.76,516.25 C1153.76,513.39 1155.1,511.07 1156.75,511.07z "/><path id="_R_G_L_0_G_D_2_P_0" fill="#36221a" fill-opacity="1" fill-rule="nonzero" d=" M1148.25 511.84 C1149.65,511.84 1150.79,513.82 1150.79,516.25 C1150.79,518.68 1149.65,520.66 1148.25,520.66 C1146.85,520.66 1145.71,518.68 1145.71,516.25 C1145.71,513.82 1146.85,511.84 1148.25,511.84z "/><path id="_R_G_L_0_G_D_3_P_0" stroke="#999999" stroke-linecap="round" stroke-linejoin="round" fill="none" stroke-width="1" stroke-opacity="1" d=" M1148.25 511.84 C1149.65,511.84 1150.79,513.82 1150.79,516.25 C1150.79,518.68 1149.65,520.66 1148.25,520.66 C1146.85,520.66 1145.71,518.68 1145.71,516.25 C1145.71,513.82 1146.85,511.84 1148.25,511.84z "/><path id="_R_G_L_0_G_D_4_P_0" fill="#36221a" fill-opacity="1" fill-rule="nonzero" d=" M1180.38 512.38 C1180.38,512.38 1158.63,515.25 1158.63,515.25 "/><path id="_R_G_L_0_G_D_5_P_0" stroke="#999999" stroke-linecap="round" stroke-linejoin="round" fill="none" stroke-width="2" stroke-opacity="1" d=" M1180.38 512.38 C1180.38,512.38 1158.63,515.25 1158.63,515.25 "/></g></g><g id="time_group"/></svg>