<svg xmlns="http://www.w3.org/2000/svg" xmlns:xlink="http://www.w3.org/1999/xlink" preserveAspectRatio="xMidYMid meet" width="1920" height="1080" viewBox="0 0 1920 1080" style="width:100%;height:100%"><defs><animate attributeType="XML" attributeName="opacity" dur="170s" from="0" to="1" xlink:href="#time_group"/></defs><g id="_R_G"><g id="_R_G_L_0_G" transform=" translate(960, 540) translate(0, 0)"><path id="_R_G_L_0_G_D_0_P_0" fill="#6e6c6c" fill-opacity="1" fill-rule="nonzero" d=" M-718.08 -603.24 C-718.08,-603.24 -686.82,-590.83 -686.82,-590.83 C-686.82,-590.83 -623,-524.25 -618.5,-524.25 C-614,-524.25 -613,-523.25 -613.5,-521.25 C-614,-519.25 -610.5,-516.5 -618.75,-516.5 C-627,-516.5 -662.5,-517.5 -693,-517.5 C-723.5,-517.5 -733,-486.75 -733,-476.5 C-733,-466.25 -732.75,-435.75 -732.75,-435.75 C-732.75,-435.75 -745.5,-435.75 -745.5,-435.75 C-745.5,-435.75 -745.5,-389.5 -745.5,-389.5 C-745.5,-389.5 -731.25,-389.25 -731.25,-389.25 C-731.25,-389.25 -732,-341 -732,-309.25 C-732,-277.5 -695.25,-268.25 -689.5,-268.25 C-683.75,-268.25 -614.75,-268.75 -608.75,-268.75 C-602.75,-268.75 -599.25,-267.25 -599.25,-261.5 C-599.25,-255.75 -598.5,-236.5 -598.5,-222.75 C-598.5,-209 -573.75,-197.75 -559.5,-195 C-560.75,-194 -565.5,-189 -565.5,-184.75 C-565.5,-180.5 -565.5,-174.75 -565.5,-168.25 C-565.5,-161.75 -576,-156.75 -576,-156.75 C-576,-156.75 -587,-157.5 -587,-157.5 C-587,-157.5 -587,-172.5 -587,-172.5 C-587,-172.5 -665,-172.5 -665,-172.5 C-665,-172.5 -665,-109.25 -665,-109.25 C-665,-109.25 -587,-109.25 -587,-109.25 C-587,-109.25 -587,-138 -587,-138 C-587,-138 -580.75,-138 -572.75,-138 C-564.75,-138 -548.5,-156.75 -548.5,-160 C-548.5,-163.25 -548.25,-171.25 -548.25,-180.5 C-548.25,-189.75 -536.25,-197.5 -531.5,-197.5 C-526.75,-197.5 -514.25,-197.75 -506,-197.75 C-497.75,-197.75 -494.25,-195.25 -494.25,-189.25 C-494.25,-183.25 -494.5,-64 -494.5,-49.5 C-494.5,-35 -493,-37 -487.5,-37 C-482,-37 -395.5,-38 -379,-38 C-362.5,-38 -360.5,-38.5 -360.5,-45.5 C-360.5,-52.5 -360,-88 -360,-97 C-360,-106 -364,-104.5 -371,-104.5 C-378,-104.5 -424.5,-103.75 -443.25,-103.75 C-462,-103.75 -468.5,-121 -468.5,-132.5 C-468.5,-144 -468.5,-197.25 -468.5,-197.25 C-468.5,-197.25 -447.5,-197.25 -447.5,-197.25 C-447.5,-197.25 -446.75,-186.75 -446.75,-162.25 C-446.75,-137.75 -424.25,-127.25 -412.75,-127.25 C-401.25,-127.25 -311.75,-127.5 -284.25,-127.5 C-256.75,-127.5 -239,-149.75 -239,-164.5 C-239,-179.25 -239,-250.75 -239,-250.75 C-239,-250.75 67.75,-252.75 78.5,-252.75 C89.25,-252.75 93,-250.25 93,-245 C93,-239.75 92.25,-107.75 92.25,-100.5 C92.25,-93.25 91.5,-89.5 84.75,-89.5 C78,-89.5 -261.5,-86.75 -293.5,-86.75 C-325.5,-86.75 -331.25,-57 -331.25,-50.25 C-331.25,-43.5 -331.25,-2.75 -331.25,-2.75 C-331.25,-2.75 -841.76,1.8 -841.76,1.8 C-841.76,1.8 -846.73,-558.56 -846.73,-558.56 C-846.73,-558.56 -899.36,-558.13 -899.36,-558.13 C-899.36,-558.13 -896.49,2.29 -896.49,2.29 C-896.49,2.29 -1046.22,3.09 -1046.22,3.09 C-1046.22,3.09 -1046.22,46.09 -1046.22,46.09 C-1046.22,46.09 -610,43.75 -610,43.75 C-610,43.75 -609.37,103.88 -609.37,103.88 C-609.37,103.88 -711.12,104.38 -719.25,104.38 C-727.37,104.38 -734.25,114.13 -734.25,119.38 C-734.25,124.63 -734.25,158.63 -734.25,166.75 C-734.25,174.88 -731.87,180 -721,180 C-710.12,180 -626.75,180 -620.75,180 C-614.75,180 -611.62,180.5 -611.75,182.75 C-611.87,185 -616.5,185.5 -620.5,185.5 C-624.5,185.5 -668.5,187 -694.5,187 C-720.5,187 -732.5,219 -732.5,228 C-732.5,237 -731,248.5 -731,257.5 C-731,266.5 -737,267 -741,267 C-745,267 -748.5,266.5 -748.5,266.5 C-748.5,266.5 -748.5,312 -748.5,312 C-748.5,312 -731.5,312 -731.5,312 C-731.5,312 -731.5,346 -731.5,383 C-731.5,420 -702,432 -689,432 C-676,432 -627,433.5 -610.5,432 C-594,430.5 -598.5,441 -598.5,441 C-598.5,441 -601.5,464.5 -594,485.5 C-586.78,505.72 -558,505.5 -560.5,507 C-563,508.5 -565.53,595 -565.53,595 C-565.53,595 -562.53,597 -548.53,594.5 C-548.53,581 -538,506 -528,506 C-518,506 -493.5,506 -493.5,506 C-493.5,506 -492.53,593 -492.53,596.5 C-492.53,600 -466.53,596.5 -466.53,596.5 C-466.53,596.5 -468.5,505 -468.5,505 C-468.5,505 -446.5,505 -446.5,505 C-446.5,505 -441.53,597.5 -441.53,597.5 C-441.53,597.5 -402.03,599 -402.03,599 C-402.03,599 -403.5,504.5 -403.5,504.5 C-403.5,504.5 -395.5,504 -380.5,504 C-365.5,504 -348.5,476 -348.5,459 C-348.5,442 -350,320 -350,313.5 C-350,307 -350.5,298 -350.5,298 C-350.5,298 -343,297.5 -322.5,297.5 C-302,297.5 -284,270 -284,248 C-284,226 -286,2 -286,-22 C-286,-46 -284.5,-44.5 -269.5,-44.5 C-254.5,-44.5 -255.5,-45 -240.5,-45 C-225.5,-45 -222,-45.5 -222,-39 C-222,-32.5 -221.5,-29 -221.5,9.5 C-221.5,48 -185,53.5 -164,53.5 C-143,53.5 -50,53 -28.5,53 C-7,53 2.5,59.5 2.5,76 C2.5,92.5 3,307 3,307 C3,307 -17,323.5 -17,323.5 C-17,323.5 -194.5,323.5 -235.5,323.5 C-276.5,323.5 -284.5,351.5 -284.5,376.5 C-284.5,401.5 -283.33,589.22 -283.33,589.22 C-283.33,589.22 -238.33,589.22 -238.33,589.22 C-238.33,589.22 -238.5,452 -238.5,452 C-238.5,452 58.5,450 70.5,450 C82.5,450 92.5,449 92.5,462 C92.5,467.5 92.1,605.79 92.1,605.79 C92.1,605.79 138.1,605.79 138.1,605.79 C138.1,605.79 137,476.5 137,442 C137,407.5 101.5,407 72,407 C42.5,407 -237.5,407 -237.5,407 C-237.5,407 -239,389.5 -239,379.5 C-239,369.5 -231.5,367.5 -220.5,367.5 C-209.5,367.5 107,368.5 156.5,368.5 C206,368.5 211.5,335.5 211.5,314.5 C211.5,293.5 213,239 213,239 C213,239 350.5,237.5 350.5,237.5 C350.5,237.5 351,245.5 352,273.5 C329,276 284.5,312.5 284.5,360.5 C284.5,408.5 340,445 368.5,445 C397,445 421.5,430 421.5,430 C421.5,430 448,458 448,458 C448,458 310.5,458 279,458 C247.5,458 240,491.5 240,498.5 C240,505.5 240.1,603.79 240.1,603.79 C240.1,603.79 285.1,603.79 285.1,603.79 C285.1,603.79 285,501 285,501 C285,501 539.5,503 541.5,501 C543.5,499 541.5,529.5 541.5,529.5 C541.5,529.5 566,529.5 566,529.5 C566,529.5 566,504 566,504 C566,504 726,504 726,504 C726,504 726,529 726,529 C726,529 770,528 770,528 C770,528 772.5,301 772.5,289 C772.5,277 740,261 725.5,261 C711,261 468,260 459,260 C450,260 436,265 436,265 C436,265 418,283.5 417,281.5 C416,279.5 396.5,273 396.5,273 C396.5,273 396.5,131 396.5,131 C396.5,131 396.5,111 396.5,111 C396.5,111 483,113 528,113 C573,113 576.5,79.5 576.5,60 C576.5,40.5 575.5,-24.5 575.5,-37.5 C575.5,-50.5 593,-47 593,-47 C593,-47 771,-47 771,-47 C771,-47 777,-401 769,-420 C761,-439 720,-443 720,-443 C720,-443 457,-443 451,-443 C445,-443 434,-438 434,-438 C434,-438 417,-422 417,-422 C417,-422 393,-434 393,-434 C393,-434 391.57,-635.21 391.57,-635.21 C391.57,-635.21 348.33,-635.46 348.33,-635.46 C348.33,-635.46 350.25,-519.75 350.25,-515.5 C350.25,-511.25 344.25,-511.25 344.25,-511.25 C344.25,-511.25 210,-511.25 210,-511.25 C210,-511.25 208.57,-634.71 208.57,-634.71 C208.57,-634.71 163.82,-634.71 163.82,-634.71 C163.82,-634.71 165.75,-395.25 165.75,-388.25 C165.75,-381.25 162.5,-381 160.5,-381 C158.5,-381 146.5,-381 146.5,-381 C146.5,-381 143,-387.25 143,-387.25 C143,-387.25 143,-406.25 143,-409 C143,-411.75 123.75,-409 123.75,-409 C123.75,-409 123.75,-401.75 123.75,-401.75 C123.75,-401.75 35,-402.5 35,-402.5 C35,-402.5 31.07,-630.71 31.07,-630.71 C31.07,-630.71 -1.43,-630.71 -1.43,-630.71 C-1.43,-630.71 2,-420 2,-404.5 C2,-389 -9,-379 -24.5,-379 C-40,-379 -198.75,-379 -238.75,-379 C-278.75,-379 -284.75,-342.75 -284.75,-332.25 C-284.75,-321.75 -283.25,-201.75 -283.25,-186.5 C-283.25,-171.25 -289.25,-169 -294.25,-169 C-299.25,-169 -383.25,-169 -392.75,-169 C-402.25,-169 -401.5,-172.75 -401.5,-179 C-401.5,-185.25 -401.5,-199.5 -401.5,-199.5 C-401.5,-199.5 -390.5,-199.5 -377.75,-199.5 C-365,-199.5 -349.75,-229.75 -349.75,-237.25 C-349.75,-244.75 -350.12,-397.37 -350.12,-400.37 C-350.12,-403.37 -347.5,-405.37 -344.12,-405.37 C-340.75,-405.37 -332,-405 -316.5,-405 C-301,-405 -286.25,-432.75 -286.25,-442.25 C-286.25,-451.75 -288.07,-581.39 -288.07,-581.39 C-288.07,-581.39 -329.82,-581.39 -329.82,-581.39 C-329.82,-581.39 -329.5,-471.5 -329.5,-460 C-329.5,-448.5 -338.5,-448.5 -343,-448.5 C-347.5,-448.5 -455.5,-447.5 -455.5,-447.5 C-455.5,-447.5 -455,-474 -457,-487 C-459,-500 -482,-526.5 -482,-526.5 C-482,-526.5 -435.18,-597.47 -435.18,-597.47 C-435.18,-597.47 -499.47,-584.26 -499.47,-584.26 C-499.47,-584.26 -516.51,-528.64 -523.97,-533.41 C-528.63,-536.39 -564.54,-534.65 -570.13,-531.57 C-575.72,-528.49 -572.69,-529.94 -575.82,-535.13 C-578.96,-540.31 -595.31,-589.26 -595.31,-589.26 C-595.31,-589.26 -718.08,-603.24 -718.08,-603.24z "/><path id="_R_G_L_0_G_D_0_P_1" fill="#6e6c6c" fill-opacity="1" fill-rule="nonzero" d=" M209.5 -466 C209.5,-466 349.5,-465.5 349.5,-465.5 C349.5,-465.5 350,-444.5 349,-430.5 C348.5,-428.5 285.5,-402 285.5,-342 C285.5,-282 347.5,-258 368,-258.5 C388.5,-259 419.5,-272 419.5,-272 C419.5,-272 447.5,-245 448.5,-243.5 C449.5,-242 318,-244.75 282.75,-244.75 C247.5,-244.75 241,-209.75 241,-201.5 C241,-193.25 241,-105.5 241,-99.5 C241,-93.5 232,-89 228,-89 C224,-89 149.75,-89.75 143,-89.75 C136.25,-89.75 136.75,-92.75 136.75,-96 C136.75,-99.25 136.25,-233.25 136.25,-259.25 C136.25,-285.25 102.75,-297.25 86,-297.25 C69.25,-297.25 -218.75,-295 -230,-295 C-241.25,-295 -239.5,-297.25 -239.5,-301 C-239.5,-304.75 -239.25,-318.75 -239.25,-324.5 C-239.25,-330.25 -239.25,-333.5 -227.5,-333.5 C-215.75,-333.5 142,-336.5 169,-336.5 C196,-336.5 209.5,-364.5 209.5,-382 C209.5,-399.5 209.5,-466 209.5,-466z "/><path id="_R_G_L_0_G_D_0_P_2" fill="#6e6c6c" fill-opacity="1" fill-rule="nonzero" d=" M528.5 -202 C537.5,-202 544.5,-204 544.5,-189 C544.5,-174 543,-93 543,-85.5 C543,-78 532.5,-68.5 532.5,-56 C532.5,-43.5 532.5,32.5 532.5,48.5 C532.5,64.5 527.5,68 510.5,68 C493.5,68 232,68 221.5,68 C211,68 212,64 212,53 C212,42 209,7.5 173,7.5 C137,7.5 -154,9.5 -167.5,9.5 C-181,9.5 -178,3 -178,-3.5 C-178,-10 -177,-43 -177,-43 C-177,-43 219,-43 239,-43 C259,-43 283,-62 283,-90 C283,-118 282,-167.5 282,-183 C282,-198.5 286.5,-202 302.5,-202 C318.5,-202 519.5,-202 528.5,-202z "/><path id="_R_G_L_0_G_D_0_P_3" fill="#6e6c6c" fill-opacity="1" fill-rule="nonzero" d=" M147 52.5 C157.5,52.5 166.5,51 166.5,64.5 C166.5,78 168.5,296.5 168.5,308 C168.5,319.5 166.5,321.5 157,321.5 C139,321.5 131,300.5 131,300.5 C131,300.5 38,300.5 38,300.5 C38,300.5 35,297 35,289.5 C35,282 35,71 35,66.5 C35,62 34,54.5 49.5,54.5 C65,54.5 136.5,52.5 147,52.5z "/><path id="_R_G_L_0_G_D_0_P_4" fill="#6e6c6c" fill-opacity="1" fill-rule="nonzero" d=" M213.5 113 C221.5,113 340.5,113.5 344.5,113.5 C348.5,113.5 350.5,113 350.5,123.5 C350.5,134 351.5,180.5 351.5,187.5 C351.5,194.5 344.5,194 338.5,194 C332.5,194 230.5,195 222,195 C213.5,195 212,194 212,182.5 C212,171 213,113 213.5,113z "/><path id="_R_G_L_0_G_D_0_P_5" fill="#6e6c6c" fill-opacity="1" fill-rule="nonzero" d=" M-342 40.5 C-333.5,40.5 -329,41.5 -329,51 C-329,60.5 -329.5,231.5 -329.5,241.5 C-329.5,251.5 -329.5,256.5 -342,256.5 C-354.5,256.5 -455,255 -455,255 C-455,255 -455,228 -455,214 C-455,200 -486.93,153.5 -532,153.5 C-556.5,153.5 -563.5,156 -563.5,156 C-563.5,156 -564,43.5 -562.5,43 C-544,42.5 -350.5,40.5 -342,40.5z "/><path id="_R_G_L_0_G_D_0_P_6" fill="#6e6c6c" fill-opacity="1" fill-rule="nonzero" d=" M-626.5 227.5 C-626.5,255.5 -614.5,289 -599.5,300 C-598.5,323.5 -596.5,371 -596.5,378.5 C-596.5,386 -596.5,388.5 -606.5,388.5 C-616.5,388.5 -670.5,387.5 -676,387.5 C-681.5,387.5 -685,387 -685,375 C-685,363 -687,248 -687,242.5 C-687,237 -684.5,228 -675.5,228 C-666.5,228 -647.5,228 -626.5,227.5z "/><path id="_R_G_L_0_G_D_0_P_7" fill="#6e6c6c" fill-opacity="1" fill-rule="nonzero" d=" M-479.5 298.5 C-479.5,298.5 -394,299 -394,299 C-394,299 -392.5,433 -392.5,445 C-392.5,457 -403.5,461 -409.5,461 C-415.5,461 -526.5,462 -534,462 C-541.5,462 -552,459.5 -552,450.5 C-552,441.5 -552,324.5 -552,323 C-552,321.5 -516.5,331 -479.5,298.5z "/><path id="_R_G_L_0_G_D_0_P_8" fill="#6e6c6c" fill-opacity="1" fill-rule="nonzero" d=" M460.5 302.5 C460.5,302.5 702,304 711,304 C720,304 725.5,303.5 725.5,312.5 C725.5,321.5 726,437.5 726,445.5 C726,453.5 728.5,458.5 710,458.5 C691.5,458.5 508,457 508,457 C508,457 451.5,400.5 451.5,400.5 C451.5,400.5 461.5,375 461.5,358.5 C461.5,342 448,314 450.5,312.5 C453,311 460.5,302.5 460.5,302.5z "/><path id="_R_G_L_0_G_D_0_P_9" fill="#6e6c6c" fill-opacity="1" fill-rule="nonzero" d=" M711.5 -399 C722,-399 725.5,-398 725.5,-389 C725.5,-380 727,-264.5 727,-258 C727,-251.5 723.5,-245.5 711,-245.5 C698.5,-245.5 511,-245 511,-245 C511,-245 450,-303.5 450,-303.5 C450,-303.5 460.5,-321.5 460.5,-343 C460.5,-364.5 449,-390.5 449,-390.5 C449,-390.5 458,-399 458,-399 C458,-399 701,-399 711.5,-399z "/><path id="_R_G_L_0_G_D_0_P_10" fill="#6e6c6c" fill-opacity="1" fill-rule="nonzero" d=" M708 -202.5 C718,-202.5 726.5,-204 726.5,-193 C726.5,-182 726.5,-111 726.5,-103.5 C726.5,-96 727,-91 714,-91 C701,-91 586.5,-91 581.5,-91 C576.5,-91 567,-88.5 568.5,-98 C568.5,-112 567,-189 567,-195 C567,-201 569,-202.5 577,-202.5 C585,-202.5 698,-202.5 708,-202.5z "/><path id="_R_G_L_0_G_D_0_P_11" fill="#6e6c6c" fill-opacity="1" fill-rule="nonzero" d=" M-401.5 -403.5 C-395.5,-403.5 -395.5,-401.5 -395.5,-391.5 C-395.5,-381.5 -394,-272.5 -394,-261.5 C-394,-250.5 -391.5,-242 -412.5,-242 C-433.5,-242 -538,-242.5 -544.5,-242.5 C-551,-242.5 -554.5,-246 -554.5,-257 C-554.5,-268 -555.5,-364.5 -553.5,-380 C-542.5,-376.5 -494.5,-382 -480.5,-403.5 C-457.5,-403 -407.5,-403.5 -401.5,-403.5z "/><path id="_R_G_L_0_G_D_0_P_12" fill="#6e6c6c" fill-opacity="1" fill-rule="nonzero" d=" M-675.5 -474.5 C-670.5,-474.5 -648.5,-474.21 -637.5,-474 C-624.5,-473.75 -626.75,-467.5 -626.75,-467.5 C-626.75,-467.5 -626.5,-449 -624,-437 C-621.5,-425 -598.5,-400.5 -598.5,-400.5 C-598.5,-400.5 -598,-336 -598,-324.5 C-598,-313 -603.5,-311.5 -610.5,-311.5 C-617.5,-311.5 -663,-312 -676,-312 C-689,-312 -687,-320.5 -687,-329.5 C-687,-338.5 -687,-439.5 -687,-456.5 C-687,-473.5 -680.5,-474.5 -675.5,-474.5z "/><path id="_R_G_L_0_G_D_0_P_13" fill="#6e6c6c" fill-opacity="1" fill-rule="nonzero" d=" M381 -384.06 C397.6,-384.06 411.06,-370.6 411.06,-354 C411.06,-337.4 397.6,-323.94 381,-323.94 C364.4,-323.94 350.94,-337.4 350.94,-354 C350.94,-370.6 364.4,-384.06 381,-384.06z "/><path id="_R_G_L_0_G_D_0_P_14" fill="#6e6c6c" fill-opacity="1" fill-rule="nonzero" d=" M381 -384.06 C397.6,-384.06 411.06,-370.6 411.06,-354 C411.06,-337.4 397.6,-323.94 381,-323.94 C364.4,-323.94 350.94,-337.4 350.94,-354 C350.94,-370.6 364.4,-384.06 381,-384.06z "/><path id="_R_G_L_0_G_D_0_P_15" fill="#6e6c6c" fill-opacity="1" fill-rule="nonzero" d=" M381 -384.06 C397.6,-384.06 411.06,-370.6 411.06,-354 C411.06,-337.4 397.6,-323.94 381,-323.94 C364.4,-323.94 350.94,-337.4 350.94,-354 C350.94,-370.6 364.4,-384.06 381,-384.06z "/><path id="_R_G_L_0_G_D_0_P_16" fill="#6e6c6c" fill-opacity="1" fill-rule="nonzero" d=" M381 -384.06 C397.6,-384.06 411.06,-370.6 411.06,-354 C411.06,-337.4 397.6,-323.94 381,-323.94 C364.4,-323.94 350.94,-337.4 350.94,-354 C350.94,-370.6 364.4,-384.06 381,-384.06z "/></g></g><g id="time_group"/></svg>