<svg xmlns="http://www.w3.org/2000/svg" width="154" height="158" style="width:100%;height:100%;transform:translate3d(0,0,0);content-visibility:visible" viewBox="0 0 154 158">
  <defs>
    <clipPath id="a">
      <path d="M0 0h154v158H0z"/>
    </clipPath>
  </defs>
  <g clip-path="url(#a)">
    <path fill="none" stroke="#000" stroke-width="6" d="M102 204s33.125-54.5 36.125-58 4.375-2.5 7.875-.5 8.75 4.75 13.5 9.5 1.5 5.5-1.5 10.5-41.875 69.875-41.875 69.875" style="display:block" transform="rotate(-1 2681.96 -2706.528)scale(.2)"/>
    <g style="display:block">
      <path fill="#e1e1e1" d="m26.354 85.122-4.465 3.794 50.026-.372-5.497-3.671z"/>
      <path fill="none" d="m26.354 85.122-4.465 3.794 50.026-.372-5.497-3.671z"/>
      <path d="m72.032 88.475-50.252.327s1.523 29.928 1.596 34.128c.014.8 1.731 1.77 3.83 1.733 3.8-.066 37.714.442 42.414.36 1.8-.032 2.959-2.352 2.927-4.152-.03-1.8-.515-32.396-.515-32.396"/>
      <path fill="none" d="m72.032 88.475-50.252.327s1.523 29.928 1.596 34.128c.014.8 1.731 1.77 3.83 1.733 3.8-.066 37.714.442 42.414.36 1.8-.032 2.959-2.352 2.927-4.152-.03-1.8-.515-32.396-.515-32.396"/>
    </g>
    <g style="display:block">
      <path fill="#a60c14" d="M28.746 98.5c-1.49.027-3.002 1.238-3.16 3.937-.156 2.7 5.545 8.647 6.296 9.532.837-1.158 6.859-5.741 6.308-10.732-.242-2.202-2.335-2.738-3.111-2.724-1.185.02-3.087 1.034-3.295 3.162-.406-2.199-1.323-3.204-3.038-3.174"/>
      <path fill="none" d="M28.746 98.5c-1.49.027-3.002 1.238-3.16 3.937-.156 2.7 5.545 8.647 6.296 9.532.837-1.158 6.859-5.741 6.308-10.732-.242-2.202-2.335-2.738-3.111-2.724-1.185.02-3.087 1.034-3.295 3.162-.406-2.199-1.323-3.204-3.038-3.174"/>
    </g>
    <g style="display:block">
      <path fill="#a60c14" d="M44.543 98.225c-1.49.026-3.001 1.237-3.159 3.937s5.544 8.646 6.295 9.532c.838-1.159 6.86-5.742 6.31-10.733-.244-2.202-2.337-2.737-3.113-2.724-1.184.02-3.087 1.035-3.295 3.163-.406-2.2-1.322-3.205-3.038-3.175"/>
      <path fill="none" d="M44.543 98.225c-1.49.026-3.001 1.237-3.159 3.937s5.544 8.646 6.295 9.532c.838-1.159 6.86-5.742 6.31-10.733-.244-2.202-2.337-2.737-3.113-2.724-1.184.02-3.087 1.035-3.295 3.163-.406-2.2-1.322-3.205-3.038-3.175"/>
    </g>
    <g style="display:block">
      <path fill="#a60c14" d="M60.341 97.95c-1.49.025-3.002 1.237-3.159 3.936s5.544 8.646 6.295 9.532c.838-1.159 6.859-5.742 6.309-10.733-.243-2.202-2.336-2.737-3.112-2.724-1.185.021-3.087 1.035-3.295 3.163-.406-2.2-1.323-3.205-3.038-3.175"/>
      <path fill="none" d="M60.341 97.95c-1.49.025-3.002 1.237-3.159 3.936s5.544 8.646 6.295 9.532c.838-1.159 6.859-5.742 6.309-10.733-.243-2.202-2.336-2.737-3.112-2.724-1.185.021-3.087 1.035-3.295 3.163-.406-2.2-1.323-3.205-3.038-3.175"/>
    </g>
    <g style="display:block">
      <path fill="#a7a6a6" d="m98.624 102.113-3.547 2.356 4.434 2.63 2.865-2.05z"/>
      <path fill="none" d="m98.624 102.113-3.547 2.356 4.434 2.63 2.865-2.05z"/>
      <path fill="#271e1e" d="m102.367 104.548-3.875 1.468-.95 2.917s-1.28 1.049-1.674 1.356c-.395.306-1.78 1.305-.06 2.375s3.109.204 3.109.204l5.269-5.17z"/>
      <path fill="none" d="m102.367 104.548-3.875 1.468-.95 2.917s-1.28 1.049-1.674 1.356c-.395.306-1.78 1.305-.06 2.375s3.109.204 3.109.204l5.269-5.17z"/>
    </g>
    <g style="display:block">
      <path fill="none" stroke="#000" stroke-linecap="round" stroke-linejoin="round" stroke-width="1.52" d="M28.177 122.946c-.08 1.101 1.247 2.678 3.647 2.637 2.4-.042 33.99-.794 35.59-.822s3.577-1.362 3.563-2.162"/>
      <path fill="none" stroke="#000" stroke-width="1.52" d="M97.753 109.53c1.265-2.023 6.402-5.713 10.784-6.79 4.381-1.076 5.583-.997 10.384-.981s11.99-.71 11.99-.71"/>
    </g>
    <g style="display:block">
      <path fill="none" stroke="#000" stroke-width="1.52" d="M33.59 123.651s6.225 4.242 7.293 5.274c1.475 1.424 4.32 1.125 6.82 1.081l37.494-.654c2.5-.044 11.669-1.904 11.563-8.003-.107-6.1.133-3.803.133-3.803s2.997-5.953 6.25-8.71c3.251-2.758 10.518-4.735 16.32-4.686 4.95.041 7.7-.085 9-.107 1.3-.023 2.446-.193 2.422-1.593s-1.02-1.182-1.02-1.182"/>
      <path fill="none" stroke="#000" stroke-width="1.52" d="M91.28 116.844c2.7-.048 25.917.896 27.117.875s4.93-.438 4.999 3.514c.07 3.97-2.345 5.317-4.715 5.358-3.336.059-4.096-3.42-4.096-3.42l-20.147 2.719-7.433-1.87"/>
    </g>
    <path fill="none" stroke="#000" stroke-width="8.8" d="M-32 379.5c6 6 13.5 12 16.5 15s10 6 18 6 150.5 2 164 2 74.837-63.268 81.192-87.79" style="display:block" transform="rotate(-1 2681.96 -2706.528)scale(.2)"/>
    <g style="display:block">
      <path fill="none" stroke="#5c5c5c" stroke-width="1.6" d="M49.64 114.875c7.115-.124 12.994 5.552 13.118 12.668s-5.553 12.994-12.669 13.118c-7.115.125-12.994-5.552-13.118-12.668S42.524 115 49.64 114.875z"/>
      <path fill="none" stroke="#5c5c5c" stroke-width=".2" d="m49.892 127.86 2.004-12.098M49.894 127.853l4.074-11.566M49.897 127.846l6.021-10.683M49.9 127.84l7.786-9.475M49.906 127.834l9.312-7.98M49.912 127.83l10.556-6.241M49.92 127.826l11.478-4.313M49.927 127.824l12.053-2.254M49.934 127.823l12.262-.127M49.942 127.824l12.098 2.004M49.95 127.825l11.565 4.075M49.956 127.829l10.683 6.02M49.962 127.833l9.475 7.785M49.968 127.838l7.979 9.312M49.972 127.844l6.241 10.556M49.976 127.851l4.313 11.48M49.978 127.859l2.254 12.053M49.979 127.866l.126 12.262M49.978 127.874l-2.004 12.097M49.976 127.881l-4.075 11.566M49.973 127.888l-6.021 10.683M49.969 127.894l-7.785 9.475M49.964 127.9l-9.312 7.979M49.957 127.904l-10.555 6.241M49.95 127.908l-11.479 4.313M49.943 127.91l-12.053 2.254M49.936 127.91l-12.262.127M49.928 127.91l-12.098-2.004M49.92 127.908l-11.565-4.075M49.914 127.905l-10.683-6.021M49.907 127.9l-9.474-7.784M49.902 127.896l-7.979-9.312M49.897 127.89l-6.24-10.557M49.894 127.883l-4.313-11.48M49.892 127.875l-2.254-12.054M49.891 127.868l-.126-12.262"/>
      <path d="M49.91 127.478a.49.49 0 1 1 .016.98.49.49 0 0 1-.017-.98"/>
      <path fill="none" d="M49.91 127.478a.49.49 0 1 1 .016.98.49.49 0 0 1-.017-.98"/>
    </g>
    <g style="display:block">
      <path fill="none" stroke="#5c5c5c" stroke-width="2.0816" d="M118.305 106.462c9.257-.161 16.905 7.224 17.067 16.482s-7.224 16.905-16.482 17.067-16.905-7.224-17.067-16.482 7.224-16.905 16.482-17.067z"/>
      <path fill="none" stroke="#5c5c5c" stroke-width=".2602" d="m118.633 123.356 2.608-15.739M118.635 123.347l5.302-15.048M118.64 123.338l7.833-13.898M118.645 123.33l10.128-12.327M118.652 123.322l12.115-10.38M118.66 123.316l13.733-8.119M118.669 123.312l14.934-5.611M118.678 123.31l15.682-2.933M118.688 123.308l15.953-.165M118.698 123.309l15.74 2.608M118.708 123.311l15.047 5.302M118.717 123.315l13.898 7.834M118.725 123.32l12.327 10.129M118.732 123.328l10.38 12.115M118.738 123.336l8.12 13.733M118.742 123.345l5.611 14.934M118.745 123.354l2.933 15.682M118.746 123.364l.165 15.953M118.745 123.374l-2.607 15.74M118.743 123.384l-5.301 15.047M118.739 123.393l-7.834 13.898M118.733 123.401l-10.128 12.327M118.727 123.408l-12.115 10.38M118.719 123.414l-13.734 8.12M118.71 123.418l-14.935 5.611M118.7 123.421l-15.682 2.933M118.69 123.422l-15.953.165M118.68 123.421l-15.739-2.608M118.67 123.419l-15.047-5.301M118.662 123.415l-13.898-7.834M118.653 123.41l-12.326-10.129M118.646 123.403l-10.38-12.115M118.64 123.395l-8.119-13.734M118.636 123.386l-5.611-14.935M118.633 123.376l-2.932-15.682M118.632 123.366l-.165-15.953"/>
      <path d="M118.656 122.859a.637.637 0 1 1 .021 1.274.637.637 0 0 1-.021-1.274"/>
      <path fill="none" d="M118.656 122.859a.637.637 0 1 1 .021 1.274.637.637 0 0 1-.021-1.274"/>
    </g>
    <g style="display:block">
      <path d="m126.938 96.918-18.997.332c-1.9.033-1.606 1.044-.762 2.213.26.36 2.43 1.61 2.43 1.61s16.843-.061 17.599-.159c.898-.116 3.598-.113 3.555-2.562-.034-1.95-1.926-1.467-3.825-1.434"/>
      <path fill="none" stroke="#000" stroke-width="1" d="m126.938 96.918-18.997.332c-1.9.033-1.606 1.044-.762 2.213.26.36 2.43 1.61 2.43 1.61s16.843-.061 17.599-.159c.898-.116 3.598-.113 3.555-2.562-.034-1.95-1.926-1.467-3.825-1.434z"/>
    </g>
    <g style="display:block">
      <path fill="#271e1e" d="m89.036 125.784-3.47 1.761s-4.094.371-4.689.682c-.595.31-.568 1.81.549 2.79 1.117.981 6.825 1.382 6.825 1.382s2.203.161 2.91.55c.405.222 2.83.473 4.058.746.913.203.902-.862.902-.862l.554-4.882-2.426-1.458z"/>
      <path fill="none" d="m89.036 125.784-3.47 1.761s-4.094.371-4.689.682c-.595.31-.568 1.81.549 2.79 1.117.981 6.825 1.382 6.825 1.382s2.203.161 2.91.55c.405.222 2.83.473 4.058.746.913.203.902-.862.902-.862l.554-4.882-2.426-1.458z"/>
      <path fill="#a7a5a5" d="m88.576 122.342 1.279 4.528 4.92 1.114-.748-5.637z"/>
      <path fill="none" d="m88.576 122.342 1.279 4.528 4.92 1.114-.748-5.637z"/>
    </g>
    <g style="display:block">
      <path fill="#131322" d="M98.917 84.505s-10.478 1.383-11.08 1.294c-.6-.09-4.672 1.582-5.843 3.302-1.17 1.721-2.3 5.741.431 7.494s8.593 10.952 8.887 10.647c.295-.306 7.914-5.04 7.914-5.04s-9.345-8.237-10.065-9.325 9.187-6.561 9.187-6.561z"/>
      <path fill="none" d="M98.917 84.505s-10.478 1.383-11.08 1.294c-.6-.09-4.672 1.582-5.843 3.302-1.17 1.721-2.3 5.741.431 7.494s8.593 10.952 8.887 10.647c.295-.306 7.914-5.04 7.914-5.04s-9.345-8.237-10.065-9.325 9.187-6.561 9.187-6.561z"/>
      <path fill="#23253f" d="m110.654 80.8-15.54 4.509-3.168.918s-6.521 10.316-7.593 11.935-1.513 5.027-1.281 6.823-.593 17.613.614 17.992 12.195-.413 12.195-.413l-2.347-8.36s-1.904-5.968-2.116-6.664c-.212-.697 4.931-9.688 4.931-9.688l6.76-8.119s5.267-1.892 5.657-2.5c.39-.606 1.888-6.433 1.888-6.433"/>
      <path fill="none" d="m110.654 80.8-15.54 4.509-3.168.918s-6.521 10.316-7.593 11.935-1.513 5.027-1.281 6.823-.593 17.613.614 17.992 12.195-.413 12.195-.413l-2.347-8.36s-1.904-5.968-2.116-6.664c-.212-.697 4.931-9.688 4.931-9.688l6.76-8.119s5.267-1.892 5.657-2.5c.39-.606 1.888-6.433 1.888-6.433"/>
    </g>
    <g style="display:block">
      <path d="m102.307 89.647 6.66-2.317s1.012.633.918.985c-.094.351-2.78 3.999-2.78 3.999"/>
      <path fill="none" d="m102.307 89.647 6.66-2.317s1.012.633.918.985c-.094.351-2.78 3.999-2.78 3.999"/>
      <path d="M107.304 92.31c-1.986-.149-6.86-.53-6.86-.53l1.912-2.184"/>
      <path fill="none" d="M107.304 92.31c-1.986-.149-6.86-.53-6.86-.53l1.912-2.184"/>
      <path d="m104.343 91.712-7.135 18.077"/>
      <path fill="none" stroke="#000" stroke-width=".8" d="m104.343 91.712-7.135 18.077"/>
    </g>
    <g style="display:block">
      <path fill="#e7cdb6" d="M93.728 45.09s-5.85 5.955-6.83 9.82c-.15.592.614.771 1.53.784 1.207.016 2.68-.257 2.68-.257l5.921-10.305z"/>
      <path fill="none" d="M93.728 45.09s-5.85 5.955-6.83 9.82c-.15.592.614.771 1.53.784 1.207.016 2.68-.257 2.68-.257l5.921-10.305z"/>
      <path fill="#e7cdb6" d="M79.334 71.345c.003.15.545 2.541.745 2.538s2.001.065 1.076-1.37c-.925-1.434-1.823-1.318-1.82-1.168"/>
      <path fill="none" d="M79.334 71.345c.003.15.545 2.541.745 2.538s2.001.065 1.076-1.37c-.925-1.434-1.823-1.318-1.82-1.168"/>
      <path fill="#e7cdb6" d="M109.958 75.311 88.49 83.087s-1.549 2.928-1.045 3.119c.503.191 3.496-.261 3.496-.261s18.638-3.726 19.53-4.142c.893-.415 4.73-4.083 4.73-4.083l-1.133-1.88z"/>
      <path fill="none" d="M109.958 75.311 88.49 83.087s-1.549 2.928-1.045 3.119c.503.191 3.496-.261 3.496-.261s18.638-3.726 19.53-4.142c.893-.415 4.73-4.083 4.73-4.083l-1.133-1.88z"/>
      <path fill="#a86d39" d="m89.985 65.558-10.1 5.778 1.037 2.182 2.077-.95 4.586-1.267z"/>
      <path fill="none" d="m89.985 65.558-10.1 5.778 1.037 2.182 2.077-.95 4.586-1.267z"/>
      <path fill="#d69359" d="M96.735 45.438c-.36.015-1.158 2.42-1.158 2.42l-2.642 3.347-1.232 3.922-2.001-.065-2.196 28.942s11.774-1.605 15.46-2.47c3.685-.864 8.902-5.656 8.902-5.656s-4.803-17.319-6.057-20.397c-1.254-3.079-5.079-10.213-9.076-10.043"/>
      <path fill="none" d="M96.735 45.438c-.36.015-1.158 2.42-1.158 2.42l-2.642 3.347-1.232 3.922-2.001-.065-2.196 28.942s11.774-1.605 15.46-2.47c3.685-.864 8.902-5.656 8.902-5.656s-4.803-17.319-6.057-20.397c-1.254-3.079-5.079-10.213-9.076-10.043"/>
      <path fill="#a86d39" d="M92.058 52.52c-1.868 2.755-2.619 16.148-2.619 16.148s-6.12 4.608-7.005 5.523c-.884.916 2.9 5.65 2.9 5.65l13.072-13.13s2.85-2.95 4.293-6.175c.127-.284-.906-1.734-1.073-2.006-.167-.273-8.159-8.089-9.568-6.01"/>
      <path fill="none" d="M92.058 52.52c-1.868 2.755-2.619 16.148-2.619 16.148s-6.12 4.608-7.005 5.523c-.884.916 2.9 5.65 2.9 5.65l13.072-13.13s2.85-2.95 4.293-6.175c.127-.284-.906-1.734-1.073-2.006-.167-.273-8.159-8.089-9.568-6.01"/>
    </g>
    <g style="display:block">
      <path fill="#b49791" d="M79.79 71.687s-2.185.195-3.485.861c-.67.344-1.38 1.176-1.365 2.024.012.703 1.365.877 1.365.877l.968-1.868 3.352.092z"/>
      <path fill="none" d="M79.79 71.687s-2.185.195-3.485.861c-.67.344-1.38 1.176-1.365 2.024.012.703 1.365.877 1.365.877l.968-1.868 3.352.092z"/>
      <path fill="#b49791" d="M77.982 74.07s-.918 1.865-.763 2.163 2.271 1.08 3.062.646c.936-.512-.04-2.3-.04-2.3z"/>
      <path fill="none" d="M77.982 74.07s-.918 1.865-.763 2.163 2.271 1.08 3.062.646c.936-.512-.04-2.3-.04-2.3z"/>
    </g>
    <g style="display:block">
      <path fill="#e8cfb6" d="M82.234 74.195c-.548.11-1.651-.071-1.386.774.264.846 2.45 5.758 2.999 5.649.548-.11 2.045-.286 1.58-1.128s-2.644-5.405-3.193-5.295"/>
      <path fill="none" d="M82.234 74.195c-.548.11-1.651-.071-1.386.774.264.846 2.45 5.758 2.999 5.649.548-.11 2.045-.286 1.58-1.128s-2.644-5.405-3.193-5.295"/>
    </g>
    <g style="display:block">
      <path fill="#271812" d="M91.406 46.68c-.152-.097-5.629 1.3-5.173 1.591.455.292 3.793 1.034 3.793 1.034l1.865-2.008s-.334-.519-.485-.616"/>
      <path fill="none" d="M91.406 46.68c-.152-.097-5.629 1.3-5.173 1.591.455.292 3.793 1.034 3.793 1.034l1.865-2.008s-.334-.519-.485-.616"/>
    </g>
    <g style="display:block">
      <path fill="#ebb49b" d="M89.612 38.46c-1.002-.082-3.6.014-4.244.375s-.671 1.662-.47 1.708c.2.047.762.687.762.687s-.49.609-.63 1.211c-.139.603-.437.929-.128 1.228.398.384 1.027.132 1.027.132s-.232.98-.282 1.03c-.025.026-.051.337-.051.649 0 .3.025.603.1.65.15.098-.186 1.585.283 1.946.714.548 1.632.453 2.453.157 1.019-.368 3.287-.808 3.535-.912s2.201-2.789 2.201-2.789 1.94-2.696 2.246-3.164c.511-.785-.952-2.96-1.496-2.6s-2.794.35-2.794.35-1.51-.575-2.512-.657"/>
      <path fill="none" d="M89.612 38.46c-1.002-.082-3.6.014-4.244.375s-.671 1.662-.47 1.708c.2.047.762.687.762.687s-.49.609-.63 1.211c-.139.603-.437.929-.128 1.228.398.384 1.027.132 1.027.132s-.232.98-.282 1.03c-.025.026-.051.337-.051.649 0 .3.025.603.1.65.15.098-.186 1.585.283 1.946.714.548 1.632.453 2.453.157 1.019-.368 3.287-.808 3.535-.912s2.201-2.789 2.201-2.789 1.94-2.696 2.246-3.164c.511-.785-.952-2.96-1.496-2.6s-2.794.35-2.794.35-1.51-.575-2.512-.657"/>
      <path fill="#b98269" d="M94.301 40.68c-.557-.391-.795.263-1.339.648-.543.384-.205 2.579-.205 2.579s.676.013.8-.064c.123-.077 1.31-.873 1.498-1.552.188-.678-.197-1.221-.754-1.612"/>
      <path fill="none" d="M94.301 40.68c-.557-.391-.795.263-1.339.648-.543.384-.205 2.579-.205 2.579s.676.013.8-.064c.123-.077 1.31-.873 1.498-1.552.188-.678-.197-1.221-.754-1.612"/>
      <path fill="#946251" d="M85.857 45.352s1.678.171 2.072-.16"/>
      <path fill="none" stroke="#7b5142" stroke-linejoin="bevel" stroke-width=".4" d="M85.857 45.352s1.678.171 2.072-.16"/>
      <path fill="#946251" d="M86.316 40.169c.1-.052.867-.466 1.646-.254"/>
      <path fill="none" stroke="#553226" stroke-width=".4" d="M86.316 40.169c.1-.052.867-.466 1.646-.254"/>
    </g>
    <g style="display:block">
      <path fill="none" stroke="#560808" stroke-linecap="round" stroke-width=".9199999999999999" d="M92.458 38.236s-1.046 5.97-1 7.169 0 2.825 0 2.825M97.036 41.232l-2.635 3.721"/>
      <path fill="#457081" d="M90.991 31.536c-5.899.103-8.137 3.692-7.825 7.212.737.713 3.551.038 3.551.038s1.754-.483 3.805.036c.617.156.99.8 1.611.902.762.124 1.388-.43 2.037-.533.552-.086 1.17.264 1.364.467.422.442.704 1.43 1.095 2.15.31.576.717.944 1.124.999l.738.1s.302-5.607.267-7.606c-.035-2-1.868-3.868-7.767-3.765"/>
    </g>
    <g style="display:block">
      <path fill="#352119" d="M86.887 39.922c.33-.006.605.454.615 1.026s-.25 1.041-.579 1.047c-.33.006-.605-.454-.615-1.026s.25-1.041.579-1.047"/>
      <path fill="none" stroke="#999" d="M0-2.575c1.103 0 1.998 1.154 1.998 2.575S1.103 2.575 0 2.575-1.998 1.421-1.998 0-1.103-2.575 0-2.575z" transform="rotate(-1 2390.137 -4958.685)scale(.29873 .40259)"/>
      <path fill="#352119" d="M85.19 40.107c.28-.005.514.386.523.872.008.486-.212.885-.492.89s-.515-.386-.523-.872.212-.885.492-.89"/>
      <path fill="none" stroke="#999" d="M0-2.575c1.103 0 1.998 1.154 1.998 2.575S1.103 2.575 0 2.575-1.998 1.421-1.998 0-1.103-2.575 0-2.575z" transform="rotate(-1 2390.987 -4861.285)scale(.25393 .34221)"/>
      <path fill="#352119" d="m91.616 40.101-4.34.65"/>
      <path fill="none" stroke="#989898" stroke-width=".4" d="m91.616 40.101-4.34.65"/>
    </g>
  </g>
</svg>
