<svg xmlns="http://www.w3.org/2000/svg" viewBox="0 0 154 158" width="154" height="158" preserveAspectRatio="xMidYMid meet" style="width: 100%; height: 100%; transform: translate3d(0px, 0px, 0px); content-visibility: visible;"><defs><clipPath id="__lottie_element_434"><rect width="154" height="158" x="0" y="0"></rect></clipPath></defs><g clip-path="url(#__lottie_element_434)"><g transform="matrix(0.19996954500675201,-0.0034904812928289175,0.0034904812928289175,0.19996954500675201,47.643898010253906,46.394439697265625)" opacity="1" style="display: block;"><g opacity="1" transform="matrix(1,0,0,1,0,0)"><path stroke-linecap="butt" stroke-linejoin="miter" fill-opacity="0" stroke-miterlimit="4" stroke="rgb(0,0,0)" stroke-opacity="1" stroke-width="6" d=" M102,204 C102,204 135.125,149.5 138.125,146 C141.125,142.5 142.5,143.5 146,145.5 C149.5,147.5 154.75,150.25 159.5,155 C164.25,159.75 161,160.5 158,165.5 C155,170.5 116.125,235.375 116.125,235.375"></path></g></g><g transform="matrix(0.19996954500675201,-0.0034904812928289175,0.0034904812928289175,0.19996954500675201,47.643898010253906,46.394439697265625)" opacity="1" style="display: block;"><g opacity="1" transform="matrix(1,0,0,1,0,0)"><path fill="rgb(225,225,225)" fill-opacity="1" d=" M-109.81300354003906,191.75 C-109.81300354003906,191.75 -132.46400451660156,210.3280029296875 -132.46400451660156,210.3280029296875 C-132.46400451660156,210.3280029296875 117.65699768066406,212.83299255371094 117.65699768066406,212.83299255371094 C117.65699768066406,212.83299255371094 90.5,194 90.5,194 C90.5,194 -109.81300354003906,191.75 -109.81300354003906,191.75z"></path><path stroke-linecap="butt" stroke-linejoin="miter" fill-opacity="0" stroke-miterlimit="4" stroke="rgb(0,0,0)" stroke-opacity="1" stroke-width="0" d=" M-109.81300354003906,191.75 C-109.81300354003906,191.75 -132.46400451660156,210.3280029296875 -132.46400451660156,210.3280029296875 C-132.46400451660156,210.3280029296875 117.65699768066406,212.83299255371094 117.65699768066406,212.83299255371094 C117.65699768066406,212.83299255371094 90.5,194 90.5,194 C90.5,194 -109.81300354003906,191.75 -109.81300354003906,191.75z"></path></g><g opacity="1" transform="matrix(1,0,0,1,0,0)"><path fill="rgb(0,0,0)" fill-opacity="1" d=" M118.25,212.5 C118.25,212.5 -133,209.75 -133,209.75 C-133,209.75 -128,359.5 -128,380.5 C-128,384.5 -119.5,389.5 -109,389.5 C-90,389.5 79.5,395 103,395 C112,395 118,383.5 118,374.5 C118,365.5 118.25,212.5 118.25,212.5z"></path><path stroke-linecap="butt" stroke-linejoin="miter" fill-opacity="0" stroke-miterlimit="4" stroke="rgb(0,0,0)" stroke-opacity="1" stroke-width="0" d=" M118.25,212.5 C118.25,212.5 -133,209.75 -133,209.75 C-133,209.75 -128,359.5 -128,380.5 C-128,384.5 -119.5,389.5 -109,389.5 C-90,389.5 79.5,395 103,395 C112,395 118,383.5 118,374.5 C118,365.5 118.25,212.5 118.25,212.5z"></path></g></g><g transform="matrix(0.1633751094341278,-0.002851723227649927,0.002851723227649927,0.1633751094341278,44.76456069946289,56.5478401184082)" opacity="1" style="display: block;"><g opacity="1" transform="matrix(1,0,0,1,0,0)"><path fill="rgb(166,12,20)" fill-opacity="1" d=" M-102.5,255 C-111.6240005493164,255 -121,262.25 -122.25,278.75 C-123.5,295.25 -89.25,332.25 -84.75,337.75 C-79.5,330.75 -42.16699981689453,303.3489990234375 -45,272.75 C-46.25,259.25 -59,255.75 -63.75,255.75 C-71,255.75 -82.75,261.75 -84.25,274.75 C-86.5,261.25 -92,255 -102.5,255z"></path><path stroke-linecap="butt" stroke-linejoin="miter" fill-opacity="0" stroke-miterlimit="4" stroke="rgb(0,0,0)" stroke-opacity="1" stroke-width="0" d=" M-102.5,255 C-111.6240005493164,255 -121,262.25 -122.25,278.75 C-123.5,295.25 -89.25,332.25 -84.75,337.75 C-79.5,330.75 -42.16699981689453,303.3489990234375 -45,272.75 C-46.25,259.25 -59,255.75 -63.75,255.75 C-71,255.75 -82.75,261.75 -84.25,274.75 C-86.5,261.25 -92,255 -102.5,255z"></path></g></g><g transform="matrix(0.1633751094341278,-0.002851723227649927,0.002851723227649927,0.1633751094341278,60.562156677246094,56.2720947265625)" opacity="1" style="display: block;"><g opacity="1" transform="matrix(1,0,0,1,0,0)"><path fill="rgb(166,12,20)" fill-opacity="1" d=" M-102.5,255 C-111.6240005493164,255 -121,262.25 -122.25,278.75 C-123.5,295.25 -89.25,332.25 -84.75,337.75 C-79.5,330.75 -42.16699981689453,303.3489990234375 -45,272.75 C-46.25,259.25 -59,255.75 -63.75,255.75 C-71,255.75 -82.75,261.75 -84.25,274.75 C-86.5,261.25 -92,255 -102.5,255z"></path><path stroke-linecap="butt" stroke-linejoin="miter" fill-opacity="0" stroke-miterlimit="4" stroke="rgb(0,0,0)" stroke-opacity="1" stroke-width="0" d=" M-102.5,255 C-111.6240005493164,255 -121,262.25 -122.25,278.75 C-123.5,295.25 -89.25,332.25 -84.75,337.75 C-79.5,330.75 -42.16699981689453,303.3489990234375 -45,272.75 C-46.25,259.25 -59,255.75 -63.75,255.75 C-71,255.75 -82.75,261.75 -84.25,274.75 C-86.5,261.25 -92,255 -102.5,255z"></path></g></g><g transform="matrix(0.1633751094341278,-0.002851723227649927,0.002851723227649927,0.1633751094341278,76.35974884033203,55.99634552001953)" opacity="1" style="display: block;"><g opacity="1" transform="matrix(1,0,0,1,0,0)"><path fill="rgb(166,12,20)" fill-opacity="1" d=" M-102.5,255 C-111.6240005493164,255 -121,262.25 -122.25,278.75 C-123.5,295.25 -89.25,332.25 -84.75,337.75 C-79.5,330.75 -42.16699981689453,303.3489990234375 -45,272.75 C-46.25,259.25 -59,255.75 -63.75,255.75 C-71,255.75 -82.75,261.75 -84.25,274.75 C-86.5,261.25 -92,255 -102.5,255z"></path><path stroke-linecap="butt" stroke-linejoin="miter" fill-opacity="0" stroke-miterlimit="4" stroke="rgb(0,0,0)" stroke-opacity="1" stroke-width="0" d=" M-102.5,255 C-111.6240005493164,255 -121,262.25 -122.25,278.75 C-123.5,295.25 -89.25,332.25 -84.75,337.75 C-79.5,330.75 -42.16699981689453,303.3489990234375 -45,272.75 C-46.25,259.25 -59,255.75 -63.75,255.75 C-71,255.75 -82.75,261.75 -84.25,274.75 C-86.5,261.25 -92,255 -102.5,255z"></path></g></g><g transform="matrix(0.19996954500675201,-0.0034904812928289175,0.0034904812928289175,0.19996954500675201,47.643898010253906,46.394439697265625)" opacity="1" style="display: block;"><g opacity="1" transform="matrix(1,0,0,1,0,0)"><path fill="rgb(167,166,166)" fill-opacity="1" d=" M250,283 C250,283 232.06300354003906,294.4670104980469 232.06300354003906,294.4670104980469 C232.06300354003906,294.4670104980469 254,308 254,308 C254,308 268.5,298 268.5,298 C268.5,298 250,283 250,283z"></path><path stroke-linecap="butt" stroke-linejoin="miter" fill-opacity="0" stroke-miterlimit="4" stroke="rgb(0,0,0)" stroke-opacity="1" stroke-width="0" d=" M250,283 C250,283 232.06300354003906,294.4670104980469 232.06300354003906,294.4670104980469 C232.06300354003906,294.4670104980469 254,308 254,308 C254,308 268.5,298 268.5,298 C268.5,298 250,283 250,283z"></path></g><g opacity="1" transform="matrix(1,0,0,1,0,0)"><path fill="rgb(39,30,30)" fill-opacity="1" d=" M268.5,295.5 C268.5,295.5 249,302.5 249,302.5 C249,302.5 244,317 244,317 C244,317 237.50599670410156,322.1300048828125 235.50599670410156,323.6300048828125 C233.50599670410156,325.1300048828125 226.5,330 235,335.5 C243.5,341 250.5240020751953,336.78900146484375 250.5240020751953,336.78900146484375 C250.5240020751953,336.78900146484375 277.3160095214844,311.40899658203125 277.3160095214844,311.40899658203125 C277.3160095214844,311.40899658203125 268.5,295.5 268.5,295.5z"></path><path stroke-linecap="butt" stroke-linejoin="miter" fill-opacity="0" stroke-miterlimit="4" stroke="rgb(0,0,0)" stroke-opacity="1" stroke-width="0" d=" M268.5,295.5 C268.5,295.5 249,302.5 249,302.5 C249,302.5 244,317 244,317 C244,317 237.50599670410156,322.1300048828125 235.50599670410156,323.6300048828125 C233.50599670410156,325.1300048828125 226.5,330 235,335.5 C243.5,341 250.5240020751953,336.78900146484375 250.5240020751953,336.78900146484375 C250.5240020751953,336.78900146484375 277.3160095214844,311.40899658203125 277.3160095214844,311.40899658203125 C277.3160095214844,311.40899658203125 268.5,295.5 268.5,295.5z"></path></g></g><g transform="matrix(0.19996954500675201,-0.0034904812928289175,0.0034904812928289175,0.19996954500675201,47.643898010253906,46.394439697265625)" opacity="1" style="display: block;"><g opacity="1" transform="matrix(1,0,0,1,0,0)"><path stroke-linecap="round" stroke-linejoin="round" fill-opacity="0" stroke="rgb(0,0,0)" stroke-opacity="1" stroke-width="7.6" d=" M-104,381 C-104.5,386.5 -98,394.5 -86,394.5 C-74,394.5 84,393.5 92,393.5 C100,393.5 110,387 110,383"></path></g><g opacity="1" transform="matrix(1,0,0,1,0,0)"><path stroke-linecap="butt" stroke-linejoin="miter" fill-opacity="0" stroke-miterlimit="4" stroke="rgb(0,0,0)" stroke-opacity="1" stroke-width="7.6" d=" M245,320 C251.5,310 277.5,292 299.5,287 C321.5,282 327.5,282.5 351.5,283 C375.5,283.5 411.5,280.5 411.5,280.5"></path></g><g opacity="1" transform="matrix(1,0,0,1,0,0)"><path stroke-linecap="butt" stroke-linejoin="miter" fill-opacity="0" stroke-miterlimit="4" stroke="rgb(0,0,0)" stroke-opacity="1" stroke-width="8.5" d="M0 0"></path></g></g><g transform="matrix(0.19996954500675201,-0.0034904812928289175,0.0034904812928289175,0.19996954500675201,47.643898010253906,46.394439697265625)" opacity="1" style="display: block;"><g opacity="1" transform="matrix(1,0,0,1,0,0)"><path stroke-linecap="butt" stroke-linejoin="miter" fill-opacity="0" stroke-miterlimit="4" stroke="rgb(0,0,0)" stroke-opacity="1" stroke-width="7.6" d=" M-77,385 C-77,385 -46.25,406.75 -41,412 C-33.75,419.25 -19.5,418 -7,418 C5.5,418 168,418 180.5,418 C193,418 239,409.5 239,379 C239,348.5 240,360 240,360 C240,360 255.5,330.5 272,317 C288.5,303.5 325,294.25 354,295 C378.7430114746094,295.6400146484375 392.5,295.25 399,295.25 C405.5,295.25 411.25,294.5 411.25,287.5 C411.25,280.5 406.25,281.5 406.25,281.5"></path></g><g opacity="1" transform="matrix(1,0,0,1,0,0)"><path stroke-linecap="butt" stroke-linejoin="miter" fill-opacity="0" stroke-miterlimit="4" stroke="rgb(0,0,0)" stroke-opacity="1" stroke-width="7.6" d=" M212,356 C225.5,356 341.48699951171875,362.7409973144531 347.48699951171875,362.7409973144531 C353.48699951171875,362.7409973144531 372.1719970703125,360.98199462890625 372.1719970703125,380.7460021972656 C372.1719970703125,400.5950012207031 359.9859924316406,407.12298583984375 348.1319885253906,407.12298583984375 C331.4530029296875,407.12298583984375 327.9570007324219,389.66900634765625 327.9570007324219,389.66900634765625 C327.9570007324219,389.66900634765625 227,401.5 227,401.5 C227,401.5 190,391.5 190,391.5"></path></g></g><g transform="matrix(0.19996954500675201,-0.0034904812928289175,0.0034904812928289175,0.19996954500675201,47.643898010253906,46.394439697265625)" opacity="1" style="display: block;"><g opacity="1" transform="matrix(1,0,0,1,0,0)"><path stroke-linecap="butt" stroke-linejoin="miter" fill-opacity="0" stroke-miterlimit="4" stroke="rgb(0,0,0)" stroke-opacity="1" stroke-width="8.8" d=" M-32,379.5 C-26,385.5 -18.5,391.5 -15.5,394.5 C-12.5,397.5 -5.5,400.5 2.5,400.5 C10.5,400.5 153,402.5 166.5,402.5 C180,402.5 241.33700561523438,339.23199462890625 247.69200134277344,314.7099914550781"></path></g></g><g transform="matrix(0.19996954500675201,-0.0034904812928289175,0.0034904812928289175,0.19996954500675201,-146.21173095703125,-58.238250732421875)" opacity="1" style="display: block;"><g opacity="1" transform="matrix(1,0,0,1,960,537.5)"><g opacity="1" transform="matrix(1,0,0,1,4,409.5)"><path stroke-linecap="butt" stroke-linejoin="miter" fill-opacity="0" stroke-miterlimit="4" stroke="rgb(92,92,92)" stroke-opacity="1" stroke-width="8" d=" M0,-64.47650146484375 C35.58457946777344,-64.47650146484375 64.47650146484375,-35.58457946777344 64.47650146484375,0 C64.47650146484375,35.58457946777344 35.58457946777344,64.47650146484375 0,64.47650146484375 C-35.58457946777344,64.47650146484375 -64.47650146484375,35.58457946777344 -64.47650146484375,0 C-64.47650146484375,-35.58457946777344 -35.58457946777344,-64.47650146484375 0,-64.47650146484375z"></path></g></g><g opacity="1" transform="matrix(1,0,0,1,0,0)"><g opacity="1" transform="matrix(0.9848077297210693,0.1736481785774231,-0.1736481785774231,0.9848077297210693,1031.26171875,542.9744873046875)"><g opacity="1" transform="matrix(1,0,0,1,0,0)"><path stroke-linecap="butt" stroke-linejoin="miter" fill-opacity="0" stroke-miterlimit="4" stroke="rgb(92,92,92)" stroke-opacity="1" stroke-width="1" d=" M4.125,410 C4.125,410 4.561999797821045,348.68798828125 4.561999797821045,348.68798828125"></path></g></g><g opacity="1" transform="matrix(0.9396926164627075,0.3420201539993286,-0.3420201539993286,0.9396926164627075,1100.490234375,560.7402954101562)"><g opacity="1" transform="matrix(1,0,0,1,0,0)"><path stroke-linecap="butt" stroke-linejoin="miter" fill-opacity="0" stroke-miterlimit="4" stroke="rgb(92,92,92)" stroke-opacity="1" stroke-width="1" d=" M4.125,410 C4.125,410 4.561999797821045,348.68798828125 4.561999797821045,348.68798828125"></path></g></g><g opacity="1" transform="matrix(0.8660253882408142,0.5,-0.5,0.8660253882408142,1165.58203125,590.257568359375)"><g opacity="1" transform="matrix(1,0,0,1,0,0)"><path stroke-linecap="butt" stroke-linejoin="miter" fill-opacity="0" stroke-miterlimit="4" stroke="rgb(92,92,92)" stroke-opacity="1" stroke-width="1" d=" M4.125,410 C4.125,410 4.561999797821045,348.68798828125 4.561999797821045,348.68798828125"></path></g></g><g opacity="1" transform="matrix(0.7660444378852844,0.6427876353263855,-0.6427876353263855,0.7660444378852844,1224.5592041015625,630.6295166015625)"><g opacity="1" transform="matrix(1,0,0,1,0,0)"><path stroke-linecap="butt" stroke-linejoin="miter" fill-opacity="0" stroke-miterlimit="4" stroke="rgb(92,92,92)" stroke-opacity="1" stroke-width="1" d=" M4.125,410 C4.125,410 4.561999797821045,348.68798828125 4.561999797821045,348.68798828125"></path></g></g><g opacity="1" transform="matrix(0.6427876353263855,0.7660444378852844,-0.7660444378852844,0.6427876353263855,1275.6298828125,680.62939453125)"><g opacity="1" transform="matrix(1,0,0,1,0,0)"><path stroke-linecap="butt" stroke-linejoin="miter" fill-opacity="0" stroke-miterlimit="4" stroke="rgb(92,92,92)" stroke-opacity="1" stroke-width="1" d=" M4.125,410 C4.125,410 4.561999797821045,348.68798828125 4.561999797821045,348.68798828125"></path></g></g><g opacity="1" transform="matrix(0.5,0.8660253882408142,-0.8660253882408142,0.5,1317.242431640625,738.7379760742188)"><g opacity="1" transform="matrix(1,0,0,1,0,0)"><path stroke-linecap="butt" stroke-linejoin="miter" fill-opacity="0" stroke-miterlimit="4" stroke="rgb(92,92,92)" stroke-opacity="1" stroke-width="1" d=" M4.125,410 C4.125,410 4.561999797821045,348.68798828125 4.561999797821045,348.68798828125"></path></g></g><g opacity="1" transform="matrix(0.3420201539993286,0.9396926164627075,-0.9396926164627075,0.3420201539993286,1348.1322021484375,803.189697265625)"><g opacity="1" transform="matrix(1,0,0,1,0,0)"><path stroke-linecap="butt" stroke-linejoin="miter" fill-opacity="0" stroke-miterlimit="4" stroke="rgb(92,92,92)" stroke-opacity="1" stroke-width="1" d=" M4.125,410 C4.125,410 4.561999797821045,348.68798828125 4.561999797821045,348.68798828125"></path></g></g><g opacity="1" transform="matrix(0.1736481785774231,0.9848077297210693,-0.9848077297210693,0.1736481785774231,1367.36083984375,872.0262451171875)"><g opacity="1" transform="matrix(1,0,0,1,0,0)"><path stroke-linecap="butt" stroke-linejoin="miter" fill-opacity="0" stroke-miterlimit="4" stroke="rgb(92,92,92)" stroke-opacity="1" stroke-width="1" d=" M4.125,410 C4.125,410 4.561999797821045,348.68798828125 4.561999797821045,348.68798828125"></path></g></g><g opacity="1" transform="matrix(0,1,-1,0,1374.343994140625,943.156005859375)"><g opacity="1" transform="matrix(1,0,0,1,0,0)"><path stroke-linecap="butt" stroke-linejoin="miter" fill-opacity="0" stroke-miterlimit="4" stroke="rgb(92,92,92)" stroke-opacity="1" stroke-width="1" d=" M4.125,410 C4.125,410 4.561999797821045,348.68798828125 4.561999797821045,348.68798828125"></path></g></g><g opacity="1" transform="matrix(-0.1736481785774231,0.9848077297210693,-0.9848077297210693,-0.1736481785774231,1368.8695068359375,1014.417724609375)"><g opacity="1" transform="matrix(1,0,0,1,0,0)"><path stroke-linecap="butt" stroke-linejoin="miter" fill-opacity="0" stroke-miterlimit="4" stroke="rgb(92,92,92)" stroke-opacity="1" stroke-width="1" d=" M4.125,410 C4.125,410 4.561999797821045,348.68798828125 4.561999797821045,348.68798828125"></path></g></g><g opacity="1" transform="matrix(-0.3420201539993286,0.9396926164627075,-0.9396926164627075,-0.3420201539993286,1351.103759765625,1083.646240234375)"><g opacity="1" transform="matrix(1,0,0,1,0,0)"><path stroke-linecap="butt" stroke-linejoin="miter" fill-opacity="0" stroke-miterlimit="4" stroke="rgb(92,92,92)" stroke-opacity="1" stroke-width="1" d=" M4.125,410 C4.125,410 4.561999797821045,348.68798828125 4.561999797821045,348.68798828125"></path></g></g><g opacity="1" transform="matrix(-0.5,0.8660253882408142,-0.8660253882408142,-0.5,1321.58642578125,1148.738037109375)"><g opacity="1" transform="matrix(1,0,0,1,0,0)"><path stroke-linecap="butt" stroke-linejoin="miter" fill-opacity="0" stroke-miterlimit="4" stroke="rgb(92,92,92)" stroke-opacity="1" stroke-width="1" d=" M4.125,410 C4.125,410 4.561999797821045,348.68798828125 4.561999797821045,348.68798828125"></path></g></g><g opacity="1" transform="matrix(-0.6427876353263855,0.7660444378852844,-0.7660444378852844,-0.6427876353263855,1281.2144775390625,1207.7152099609375)"><g opacity="1" transform="matrix(1,0,0,1,0,0)"><path stroke-linecap="butt" stroke-linejoin="miter" fill-opacity="0" stroke-miterlimit="4" stroke="rgb(92,92,92)" stroke-opacity="1" stroke-width="1" d=" M4.125,410 C4.125,410 4.561999797821045,348.68798828125 4.561999797821045,348.68798828125"></path></g></g><g opacity="1" transform="matrix(-0.7660444378852844,0.6427876353263855,-0.6427876353263855,-0.7660444378852844,1231.214599609375,1258.785888671875)"><g opacity="1" transform="matrix(1,0,0,1,0,0)"><path stroke-linecap="butt" stroke-linejoin="miter" fill-opacity="0" stroke-miterlimit="4" stroke="rgb(92,92,92)" stroke-opacity="1" stroke-width="1" d=" M4.125,410 C4.125,410 4.561999797821045,348.68798828125 4.561999797821045,348.68798828125"></path></g></g><g opacity="1" transform="matrix(-0.8660253882408142,0.5,-0.5,-0.8660253882408142,1173.10595703125,1300.3984375)"><g opacity="1" transform="matrix(1,0,0,1,0,0)"><path stroke-linecap="butt" stroke-linejoin="miter" fill-opacity="0" stroke-miterlimit="4" stroke="rgb(92,92,92)" stroke-opacity="1" stroke-width="1" d=" M4.125,410 C4.125,410 4.561999797821045,348.68798828125 4.561999797821045,348.68798828125"></path></g></g><g opacity="1" transform="matrix(-0.9396926164627075,0.3420201539993286,-0.3420201539993286,-0.9396926164627075,1108.654296875,1331.2882080078125)"><g opacity="1" transform="matrix(1,0,0,1,0,0)"><path stroke-linecap="butt" stroke-linejoin="miter" fill-opacity="0" stroke-miterlimit="4" stroke="rgb(92,92,92)" stroke-opacity="1" stroke-width="1" d=" M4.125,410 C4.125,410 4.561999797821045,348.68798828125 4.561999797821045,348.68798828125"></path></g></g><g opacity="1" transform="matrix(-0.9848077297210693,0.1736481785774231,-0.1736481785774231,-0.9848077297210693,1039.8177490234375,1350.516845703125)"><g opacity="1" transform="matrix(1,0,0,1,0,0)"><path stroke-linecap="butt" stroke-linejoin="miter" fill-opacity="0" stroke-miterlimit="4" stroke="rgb(92,92,92)" stroke-opacity="1" stroke-width="1" d=" M4.125,410 C4.125,410 4.561999797821045,348.68798828125 4.561999797821045,348.68798828125"></path></g></g><g opacity="1" transform="matrix(-1,0,0,-1,968.68798828125,1357.5)"><g opacity="1" transform="matrix(1,0,0,1,0,0)"><path stroke-linecap="butt" stroke-linejoin="miter" fill-opacity="0" stroke-miterlimit="4" stroke="rgb(92,92,92)" stroke-opacity="1" stroke-width="1" d=" M4.125,410 C4.125,410 4.561999797821045,348.68798828125 4.561999797821045,348.68798828125"></path></g></g><g opacity="1" transform="matrix(-0.9848077297210693,-0.1736481785774231,0.1736481785774231,-0.9848077297210693,897.42626953125,1352.0255126953125)"><g opacity="1" transform="matrix(1,0,0,1,0,0)"><path stroke-linecap="butt" stroke-linejoin="miter" fill-opacity="0" stroke-miterlimit="4" stroke="rgb(92,92,92)" stroke-opacity="1" stroke-width="1" d=" M4.125,410 C4.125,410 4.561999797821045,348.68798828125 4.561999797821045,348.68798828125"></path></g></g><g opacity="1" transform="matrix(-0.9396926164627075,-0.3420201539993286,0.3420201539993286,-0.9396926164627075,828.19775390625,1334.259765625)"><g opacity="1" transform="matrix(1,0,0,1,0,0)"><path stroke-linecap="butt" stroke-linejoin="miter" fill-opacity="0" stroke-miterlimit="4" stroke="rgb(92,92,92)" stroke-opacity="1" stroke-width="1" d=" M4.125,410 C4.125,410 4.561999797821045,348.68798828125 4.561999797821045,348.68798828125"></path></g></g><g opacity="1" transform="matrix(-0.8660253882408142,-0.5,0.5,-0.8660253882408142,763.1060180664062,1304.742431640625)"><g opacity="1" transform="matrix(1,0,0,1,0,0)"><path stroke-linecap="butt" stroke-linejoin="miter" fill-opacity="0" stroke-miterlimit="4" stroke="rgb(92,92,92)" stroke-opacity="1" stroke-width="1" d=" M4.125,410 C4.125,410 4.561999797821045,348.68798828125 4.561999797821045,348.68798828125"></path></g></g><g opacity="1" transform="matrix(-0.7660444378852844,-0.6427876353263855,0.6427876353263855,-0.7660444378852844,704.1287841796875,1264.3704833984375)"><g opacity="1" transform="matrix(1,0,0,1,0,0)"><path stroke-linecap="butt" stroke-linejoin="miter" fill-opacity="0" stroke-miterlimit="4" stroke="rgb(92,92,92)" stroke-opacity="1" stroke-width="1" d=" M4.125,410 C4.125,410 4.561999797821045,348.68798828125 4.561999797821045,348.68798828125"></path></g></g><g opacity="1" transform="matrix(-0.6427876353263855,-0.7660444378852844,0.7660444378852844,-0.6427876353263855,653.0580444335938,1214.37060546875)"><g opacity="1" transform="matrix(1,0,0,1,0,0)"><path stroke-linecap="butt" stroke-linejoin="miter" fill-opacity="0" stroke-miterlimit="4" stroke="rgb(92,92,92)" stroke-opacity="1" stroke-width="1" d=" M4.125,410 C4.125,410 4.561999797821045,348.68798828125 4.561999797821045,348.68798828125"></path></g></g><g opacity="1" transform="matrix(-0.5,-0.8660253882408142,0.8660253882408142,-0.5,611.445556640625,1156.261962890625)"><g opacity="1" transform="matrix(1,0,0,1,0,0)"><path stroke-linecap="butt" stroke-linejoin="miter" fill-opacity="0" stroke-miterlimit="4" stroke="rgb(92,92,92)" stroke-opacity="1" stroke-width="1" d=" M4.125,410 C4.125,410 4.561999797821045,348.68798828125 4.561999797821045,348.68798828125"></path></g></g><g opacity="1" transform="matrix(-0.3420201539993286,-0.9396926164627075,0.9396926164627075,-0.3420201539993286,580.5557861328125,1091.810302734375)"><g opacity="1" transform="matrix(1,0,0,1,0,0)"><path stroke-linecap="butt" stroke-linejoin="miter" fill-opacity="0" stroke-miterlimit="4" stroke="rgb(92,92,92)" stroke-opacity="1" stroke-width="1" d=" M4.125,410 C4.125,410 4.561999797821045,348.68798828125 4.561999797821045,348.68798828125"></path></g></g><g opacity="1" transform="matrix(-0.1736481785774231,-0.9848077297210693,0.9848077297210693,-0.1736481785774231,561.3271484375,1022.9737548828125)"><g opacity="1" transform="matrix(1,0,0,1,0,0)"><path stroke-linecap="butt" stroke-linejoin="miter" fill-opacity="0" stroke-miterlimit="4" stroke="rgb(92,92,92)" stroke-opacity="1" stroke-width="1" d=" M4.125,410 C4.125,410 4.561999797821045,348.68798828125 4.561999797821045,348.68798828125"></path></g></g><g opacity="1" transform="matrix(0,-1,1,0,554.343994140625,951.843994140625)"><g opacity="1" transform="matrix(1,0,0,1,0,0)"><path stroke-linecap="butt" stroke-linejoin="miter" fill-opacity="0" stroke-miterlimit="4" stroke="rgb(92,92,92)" stroke-opacity="1" stroke-width="1" d=" M4.125,410 C4.125,410 4.561999797821045,348.68798828125 4.561999797821045,348.68798828125"></path></g></g><g opacity="1" transform="matrix(0.1736481785774231,-0.9848077297210693,0.9848077297210693,0.1736481785774231,559.8184814453125,880.582275390625)"><g opacity="1" transform="matrix(1,0,0,1,0,0)"><path stroke-linecap="butt" stroke-linejoin="miter" fill-opacity="0" stroke-miterlimit="4" stroke="rgb(92,92,92)" stroke-opacity="1" stroke-width="1" d=" M4.125,410 C4.125,410 4.561999797821045,348.68798828125 4.561999797821045,348.68798828125"></path></g></g><g opacity="1" transform="matrix(0.3420201539993286,-0.9396926164627075,0.9396926164627075,0.3420201539993286,577.5842895507812,811.353759765625)"><g opacity="1" transform="matrix(1,0,0,1,0,0)"><path stroke-linecap="butt" stroke-linejoin="miter" fill-opacity="0" stroke-miterlimit="4" stroke="rgb(92,92,92)" stroke-opacity="1" stroke-width="1" d=" M4.125,410 C4.125,410 4.561999797821045,348.68798828125 4.561999797821045,348.68798828125"></path></g></g><g opacity="1" transform="matrix(0.5,-0.8660253882408142,0.8660253882408142,0.5,607.1015625,746.2620239257812)"><g opacity="1" transform="matrix(1,0,0,1,0,0)"><path stroke-linecap="butt" stroke-linejoin="miter" fill-opacity="0" stroke-miterlimit="4" stroke="rgb(92,92,92)" stroke-opacity="1" stroke-width="1" d=" M4.125,410 C4.125,410 4.561999797821045,348.68798828125 4.561999797821045,348.68798828125"></path></g></g><g opacity="1" transform="matrix(0.6427876353263855,-0.7660444378852844,0.7660444378852844,0.6427876353263855,647.4735107421875,687.2847900390625)"><g opacity="1" transform="matrix(1,0,0,1,0,0)"><path stroke-linecap="butt" stroke-linejoin="miter" fill-opacity="0" stroke-miterlimit="4" stroke="rgb(92,92,92)" stroke-opacity="1" stroke-width="1" d=" M4.125,410 C4.125,410 4.561999797821045,348.68798828125 4.561999797821045,348.68798828125"></path></g></g><g opacity="1" transform="matrix(0.7660444378852844,-0.6427876353263855,0.6427876353263855,0.7660444378852844,697.473388671875,636.2140502929688)"><g opacity="1" transform="matrix(1,0,0,1,0,0)"><path stroke-linecap="butt" stroke-linejoin="miter" fill-opacity="0" stroke-miterlimit="4" stroke="rgb(92,92,92)" stroke-opacity="1" stroke-width="1" d=" M4.125,410 C4.125,410 4.561999797821045,348.68798828125 4.561999797821045,348.68798828125"></path></g></g><g opacity="1" transform="matrix(0.8660253882408142,-0.5,0.5,0.8660253882408142,755.5819702148438,594.6015625)"><g opacity="1" transform="matrix(1,0,0,1,0,0)"><path stroke-linecap="butt" stroke-linejoin="miter" fill-opacity="0" stroke-miterlimit="4" stroke="rgb(92,92,92)" stroke-opacity="1" stroke-width="1" d=" M4.125,410 C4.125,410 4.561999797821045,348.68798828125 4.561999797821045,348.68798828125"></path></g></g><g opacity="1" transform="matrix(0.9396926164627075,-0.3420201539993286,0.3420201539993286,0.9396926164627075,820.03369140625,563.7117919921875)"><g opacity="1" transform="matrix(1,0,0,1,0,0)"><path stroke-linecap="butt" stroke-linejoin="miter" fill-opacity="0" stroke-miterlimit="4" stroke="rgb(92,92,92)" stroke-opacity="1" stroke-width="1" d=" M4.125,410 C4.125,410 4.561999797821045,348.68798828125 4.561999797821045,348.68798828125"></path></g></g><g opacity="1" transform="matrix(0.9848077297210693,-0.1736481785774231,0.1736481785774231,0.9848077297210693,888.8702392578125,544.483154296875)"><g opacity="1" transform="matrix(1,0,0,1,0,0)"><path stroke-linecap="butt" stroke-linejoin="miter" fill-opacity="0" stroke-miterlimit="4" stroke="rgb(92,92,92)" stroke-opacity="1" stroke-width="1" d=" M4.125,410 C4.125,410 4.561999797821045,348.68798828125 4.561999797821045,348.68798828125"></path></g></g><g opacity="1" transform="matrix(1,0,0,1,960,537.5)"><g opacity="1" transform="matrix(1,0,0,1,0,0)"><path stroke-linecap="butt" stroke-linejoin="miter" fill-opacity="0" stroke-miterlimit="4" stroke="rgb(92,92,92)" stroke-opacity="1" stroke-width="1" d=" M4.125,410 C4.125,410 4.561999797821045,348.68798828125 4.561999797821045,348.68798828125"></path></g></g></g><g opacity="1" transform="matrix(1.1050000190734863,0,0,1.1050000190734863,959.5537719726562,497.1600036621094)"><g opacity="1" transform="matrix(1,0,0,1,4.25,408)"><path fill="rgb(0,0,0)" fill-opacity="1" d=" M0,-2.2149999141693115 C1.2224584817886353,-2.2149999141693115 2.2149999141693115,-1.2224584817886353 2.2149999141693115,0 C2.2149999141693115,1.2224584817886353 1.2224584817886353,2.2149999141693115 0,2.2149999141693115 C-1.2224584817886353,2.2149999141693115 -2.2149999141693115,1.2224584817886353 -2.2149999141693115,0 C-2.2149999141693115,-1.2224584817886353 -1.2224584817886353,-2.2149999141693115 0,-2.2149999141693115z"></path><path stroke-linecap="butt" stroke-linejoin="miter" fill-opacity="0" stroke-miterlimit="4" stroke="rgb(92,92,92)" stroke-opacity="1" stroke-width="0" d=" M0,-2.2149999141693115 C1.2224584817886353,-2.2149999141693115 2.2149999141693115,-1.2224584817886353 2.2149999141693115,0 C2.2149999141693115,1.2224584817886353 1.2224584817886353,2.2149999141693115 0,2.2149999141693115 C-1.2224584817886353,2.2149999141693115 -2.2149999141693115,1.2224584817886353 -2.2149999141693115,0 C-2.2149999141693115,-1.2224584817886353 -1.2224584817886353,-2.2149999141693115 0,-2.2149999141693115z"></path></g></g></g><g transform="matrix(0.2601603865623474,-0.004541116300970316,0.004541116300970316,0.2601603865623474,-136.4976348876953,-118.75760650634766)" opacity="1" style="display: block;"><g opacity="1" transform="matrix(1,0,0,1,960,537.5)"><g opacity="1" transform="matrix(1,0,0,1,4,409.5)"><path stroke-linecap="butt" stroke-linejoin="miter" fill-opacity="0" stroke-miterlimit="4" stroke="rgb(92,92,92)" stroke-opacity="1" stroke-width="8" d=" M0,-64.47650146484375 C35.58457946777344,-64.47650146484375 64.47650146484375,-35.58457946777344 64.47650146484375,0 C64.47650146484375,35.58457946777344 35.58457946777344,64.47650146484375 0,64.47650146484375 C-35.58457946777344,64.47650146484375 -64.47650146484375,35.58457946777344 -64.47650146484375,0 C-64.47650146484375,-35.58457946777344 -35.58457946777344,-64.47650146484375 0,-64.47650146484375z"></path></g></g><g opacity="1" transform="matrix(1,0,0,1,0,0)"><g opacity="1" transform="matrix(0.9848077297210693,0.1736481785774231,-0.1736481785774231,0.9848077297210693,1031.26171875,542.9744873046875)"><g opacity="1" transform="matrix(1,0,0,1,0,0)"><path stroke-linecap="butt" stroke-linejoin="miter" fill-opacity="0" stroke-miterlimit="4" stroke="rgb(92,92,92)" stroke-opacity="1" stroke-width="1" d=" M4.125,410 C4.125,410 4.561999797821045,348.68798828125 4.561999797821045,348.68798828125"></path></g></g><g opacity="1" transform="matrix(0.9396926164627075,0.3420201539993286,-0.3420201539993286,0.9396926164627075,1100.490234375,560.7402954101562)"><g opacity="1" transform="matrix(1,0,0,1,0,0)"><path stroke-linecap="butt" stroke-linejoin="miter" fill-opacity="0" stroke-miterlimit="4" stroke="rgb(92,92,92)" stroke-opacity="1" stroke-width="1" d=" M4.125,410 C4.125,410 4.561999797821045,348.68798828125 4.561999797821045,348.68798828125"></path></g></g><g opacity="1" transform="matrix(0.8660253882408142,0.5,-0.5,0.8660253882408142,1165.58203125,590.257568359375)"><g opacity="1" transform="matrix(1,0,0,1,0,0)"><path stroke-linecap="butt" stroke-linejoin="miter" fill-opacity="0" stroke-miterlimit="4" stroke="rgb(92,92,92)" stroke-opacity="1" stroke-width="1" d=" M4.125,410 C4.125,410 4.561999797821045,348.68798828125 4.561999797821045,348.68798828125"></path></g></g><g opacity="1" transform="matrix(0.7660444378852844,0.6427876353263855,-0.6427876353263855,0.7660444378852844,1224.5592041015625,630.6295166015625)"><g opacity="1" transform="matrix(1,0,0,1,0,0)"><path stroke-linecap="butt" stroke-linejoin="miter" fill-opacity="0" stroke-miterlimit="4" stroke="rgb(92,92,92)" stroke-opacity="1" stroke-width="1" d=" M4.125,410 C4.125,410 4.561999797821045,348.68798828125 4.561999797821045,348.68798828125"></path></g></g><g opacity="1" transform="matrix(0.6427876353263855,0.7660444378852844,-0.7660444378852844,0.6427876353263855,1275.6298828125,680.62939453125)"><g opacity="1" transform="matrix(1,0,0,1,0,0)"><path stroke-linecap="butt" stroke-linejoin="miter" fill-opacity="0" stroke-miterlimit="4" stroke="rgb(92,92,92)" stroke-opacity="1" stroke-width="1" d=" M4.125,410 C4.125,410 4.561999797821045,348.68798828125 4.561999797821045,348.68798828125"></path></g></g><g opacity="1" transform="matrix(0.5,0.8660253882408142,-0.8660253882408142,0.5,1317.242431640625,738.7379760742188)"><g opacity="1" transform="matrix(1,0,0,1,0,0)"><path stroke-linecap="butt" stroke-linejoin="miter" fill-opacity="0" stroke-miterlimit="4" stroke="rgb(92,92,92)" stroke-opacity="1" stroke-width="1" d=" M4.125,410 C4.125,410 4.561999797821045,348.68798828125 4.561999797821045,348.68798828125"></path></g></g><g opacity="1" transform="matrix(0.3420201539993286,0.9396926164627075,-0.9396926164627075,0.3420201539993286,1348.1322021484375,803.189697265625)"><g opacity="1" transform="matrix(1,0,0,1,0,0)"><path stroke-linecap="butt" stroke-linejoin="miter" fill-opacity="0" stroke-miterlimit="4" stroke="rgb(92,92,92)" stroke-opacity="1" stroke-width="1" d=" M4.125,410 C4.125,410 4.561999797821045,348.68798828125 4.561999797821045,348.68798828125"></path></g></g><g opacity="1" transform="matrix(0.1736481785774231,0.9848077297210693,-0.9848077297210693,0.1736481785774231,1367.36083984375,872.0262451171875)"><g opacity="1" transform="matrix(1,0,0,1,0,0)"><path stroke-linecap="butt" stroke-linejoin="miter" fill-opacity="0" stroke-miterlimit="4" stroke="rgb(92,92,92)" stroke-opacity="1" stroke-width="1" d=" M4.125,410 C4.125,410 4.561999797821045,348.68798828125 4.561999797821045,348.68798828125"></path></g></g><g opacity="1" transform="matrix(0,1,-1,0,1374.343994140625,943.156005859375)"><g opacity="1" transform="matrix(1,0,0,1,0,0)"><path stroke-linecap="butt" stroke-linejoin="miter" fill-opacity="0" stroke-miterlimit="4" stroke="rgb(92,92,92)" stroke-opacity="1" stroke-width="1" d=" M4.125,410 C4.125,410 4.561999797821045,348.68798828125 4.561999797821045,348.68798828125"></path></g></g><g opacity="1" transform="matrix(-0.1736481785774231,0.9848077297210693,-0.9848077297210693,-0.1736481785774231,1368.8695068359375,1014.417724609375)"><g opacity="1" transform="matrix(1,0,0,1,0,0)"><path stroke-linecap="butt" stroke-linejoin="miter" fill-opacity="0" stroke-miterlimit="4" stroke="rgb(92,92,92)" stroke-opacity="1" stroke-width="1" d=" M4.125,410 C4.125,410 4.561999797821045,348.68798828125 4.561999797821045,348.68798828125"></path></g></g><g opacity="1" transform="matrix(-0.3420201539993286,0.9396926164627075,-0.9396926164627075,-0.3420201539993286,1351.103759765625,1083.646240234375)"><g opacity="1" transform="matrix(1,0,0,1,0,0)"><path stroke-linecap="butt" stroke-linejoin="miter" fill-opacity="0" stroke-miterlimit="4" stroke="rgb(92,92,92)" stroke-opacity="1" stroke-width="1" d=" M4.125,410 C4.125,410 4.561999797821045,348.68798828125 4.561999797821045,348.68798828125"></path></g></g><g opacity="1" transform="matrix(-0.5,0.8660253882408142,-0.8660253882408142,-0.5,1321.58642578125,1148.738037109375)"><g opacity="1" transform="matrix(1,0,0,1,0,0)"><path stroke-linecap="butt" stroke-linejoin="miter" fill-opacity="0" stroke-miterlimit="4" stroke="rgb(92,92,92)" stroke-opacity="1" stroke-width="1" d=" M4.125,410 C4.125,410 4.561999797821045,348.68798828125 4.561999797821045,348.68798828125"></path></g></g><g opacity="1" transform="matrix(-0.6427876353263855,0.7660444378852844,-0.7660444378852844,-0.6427876353263855,1281.2144775390625,1207.7152099609375)"><g opacity="1" transform="matrix(1,0,0,1,0,0)"><path stroke-linecap="butt" stroke-linejoin="miter" fill-opacity="0" stroke-miterlimit="4" stroke="rgb(92,92,92)" stroke-opacity="1" stroke-width="1" d=" M4.125,410 C4.125,410 4.561999797821045,348.68798828125 4.561999797821045,348.68798828125"></path></g></g><g opacity="1" transform="matrix(-0.7660444378852844,0.6427876353263855,-0.6427876353263855,-0.7660444378852844,1231.214599609375,1258.785888671875)"><g opacity="1" transform="matrix(1,0,0,1,0,0)"><path stroke-linecap="butt" stroke-linejoin="miter" fill-opacity="0" stroke-miterlimit="4" stroke="rgb(92,92,92)" stroke-opacity="1" stroke-width="1" d=" M4.125,410 C4.125,410 4.561999797821045,348.68798828125 4.561999797821045,348.68798828125"></path></g></g><g opacity="1" transform="matrix(-0.8660253882408142,0.5,-0.5,-0.8660253882408142,1173.10595703125,1300.3984375)"><g opacity="1" transform="matrix(1,0,0,1,0,0)"><path stroke-linecap="butt" stroke-linejoin="miter" fill-opacity="0" stroke-miterlimit="4" stroke="rgb(92,92,92)" stroke-opacity="1" stroke-width="1" d=" M4.125,410 C4.125,410 4.561999797821045,348.68798828125 4.561999797821045,348.68798828125"></path></g></g><g opacity="1" transform="matrix(-0.9396926164627075,0.3420201539993286,-0.3420201539993286,-0.9396926164627075,1108.654296875,1331.2882080078125)"><g opacity="1" transform="matrix(1,0,0,1,0,0)"><path stroke-linecap="butt" stroke-linejoin="miter" fill-opacity="0" stroke-miterlimit="4" stroke="rgb(92,92,92)" stroke-opacity="1" stroke-width="1" d=" M4.125,410 C4.125,410 4.561999797821045,348.68798828125 4.561999797821045,348.68798828125"></path></g></g><g opacity="1" transform="matrix(-0.9848077297210693,0.1736481785774231,-0.1736481785774231,-0.9848077297210693,1039.8177490234375,1350.516845703125)"><g opacity="1" transform="matrix(1,0,0,1,0,0)"><path stroke-linecap="butt" stroke-linejoin="miter" fill-opacity="0" stroke-miterlimit="4" stroke="rgb(92,92,92)" stroke-opacity="1" stroke-width="1" d=" M4.125,410 C4.125,410 4.561999797821045,348.68798828125 4.561999797821045,348.68798828125"></path></g></g><g opacity="1" transform="matrix(-1,0,0,-1,968.68798828125,1357.5)"><g opacity="1" transform="matrix(1,0,0,1,0,0)"><path stroke-linecap="butt" stroke-linejoin="miter" fill-opacity="0" stroke-miterlimit="4" stroke="rgb(92,92,92)" stroke-opacity="1" stroke-width="1" d=" M4.125,410 C4.125,410 4.561999797821045,348.68798828125 4.561999797821045,348.68798828125"></path></g></g><g opacity="1" transform="matrix(-0.9848077297210693,-0.1736481785774231,0.1736481785774231,-0.9848077297210693,897.42626953125,1352.0255126953125)"><g opacity="1" transform="matrix(1,0,0,1,0,0)"><path stroke-linecap="butt" stroke-linejoin="miter" fill-opacity="0" stroke-miterlimit="4" stroke="rgb(92,92,92)" stroke-opacity="1" stroke-width="1" d=" M4.125,410 C4.125,410 4.561999797821045,348.68798828125 4.561999797821045,348.68798828125"></path></g></g><g opacity="1" transform="matrix(-0.9396926164627075,-0.3420201539993286,0.3420201539993286,-0.9396926164627075,828.19775390625,1334.259765625)"><g opacity="1" transform="matrix(1,0,0,1,0,0)"><path stroke-linecap="butt" stroke-linejoin="miter" fill-opacity="0" stroke-miterlimit="4" stroke="rgb(92,92,92)" stroke-opacity="1" stroke-width="1" d=" M4.125,410 C4.125,410 4.561999797821045,348.68798828125 4.561999797821045,348.68798828125"></path></g></g><g opacity="1" transform="matrix(-0.8660253882408142,-0.5,0.5,-0.8660253882408142,763.1060180664062,1304.742431640625)"><g opacity="1" transform="matrix(1,0,0,1,0,0)"><path stroke-linecap="butt" stroke-linejoin="miter" fill-opacity="0" stroke-miterlimit="4" stroke="rgb(92,92,92)" stroke-opacity="1" stroke-width="1" d=" M4.125,410 C4.125,410 4.561999797821045,348.68798828125 4.561999797821045,348.68798828125"></path></g></g><g opacity="1" transform="matrix(-0.7660444378852844,-0.6427876353263855,0.6427876353263855,-0.7660444378852844,704.1287841796875,1264.3704833984375)"><g opacity="1" transform="matrix(1,0,0,1,0,0)"><path stroke-linecap="butt" stroke-linejoin="miter" fill-opacity="0" stroke-miterlimit="4" stroke="rgb(92,92,92)" stroke-opacity="1" stroke-width="1" d=" M4.125,410 C4.125,410 4.561999797821045,348.68798828125 4.561999797821045,348.68798828125"></path></g></g><g opacity="1" transform="matrix(-0.6427876353263855,-0.7660444378852844,0.7660444378852844,-0.6427876353263855,653.0580444335938,1214.37060546875)"><g opacity="1" transform="matrix(1,0,0,1,0,0)"><path stroke-linecap="butt" stroke-linejoin="miter" fill-opacity="0" stroke-miterlimit="4" stroke="rgb(92,92,92)" stroke-opacity="1" stroke-width="1" d=" M4.125,410 C4.125,410 4.561999797821045,348.68798828125 4.561999797821045,348.68798828125"></path></g></g><g opacity="1" transform="matrix(-0.5,-0.8660253882408142,0.8660253882408142,-0.5,611.445556640625,1156.261962890625)"><g opacity="1" transform="matrix(1,0,0,1,0,0)"><path stroke-linecap="butt" stroke-linejoin="miter" fill-opacity="0" stroke-miterlimit="4" stroke="rgb(92,92,92)" stroke-opacity="1" stroke-width="1" d=" M4.125,410 C4.125,410 4.561999797821045,348.68798828125 4.561999797821045,348.68798828125"></path></g></g><g opacity="1" transform="matrix(-0.3420201539993286,-0.9396926164627075,0.9396926164627075,-0.3420201539993286,580.5557861328125,1091.810302734375)"><g opacity="1" transform="matrix(1,0,0,1,0,0)"><path stroke-linecap="butt" stroke-linejoin="miter" fill-opacity="0" stroke-miterlimit="4" stroke="rgb(92,92,92)" stroke-opacity="1" stroke-width="1" d=" M4.125,410 C4.125,410 4.561999797821045,348.68798828125 4.561999797821045,348.68798828125"></path></g></g><g opacity="1" transform="matrix(-0.1736481785774231,-0.9848077297210693,0.9848077297210693,-0.1736481785774231,561.3271484375,1022.9737548828125)"><g opacity="1" transform="matrix(1,0,0,1,0,0)"><path stroke-linecap="butt" stroke-linejoin="miter" fill-opacity="0" stroke-miterlimit="4" stroke="rgb(92,92,92)" stroke-opacity="1" stroke-width="1" d=" M4.125,410 C4.125,410 4.561999797821045,348.68798828125 4.561999797821045,348.68798828125"></path></g></g><g opacity="1" transform="matrix(0,-1,1,0,554.343994140625,951.843994140625)"><g opacity="1" transform="matrix(1,0,0,1,0,0)"><path stroke-linecap="butt" stroke-linejoin="miter" fill-opacity="0" stroke-miterlimit="4" stroke="rgb(92,92,92)" stroke-opacity="1" stroke-width="1" d=" M4.125,410 C4.125,410 4.561999797821045,348.68798828125 4.561999797821045,348.68798828125"></path></g></g><g opacity="1" transform="matrix(0.1736481785774231,-0.9848077297210693,0.9848077297210693,0.1736481785774231,559.8184814453125,880.582275390625)"><g opacity="1" transform="matrix(1,0,0,1,0,0)"><path stroke-linecap="butt" stroke-linejoin="miter" fill-opacity="0" stroke-miterlimit="4" stroke="rgb(92,92,92)" stroke-opacity="1" stroke-width="1" d=" M4.125,410 C4.125,410 4.561999797821045,348.68798828125 4.561999797821045,348.68798828125"></path></g></g><g opacity="1" transform="matrix(0.3420201539993286,-0.9396926164627075,0.9396926164627075,0.3420201539993286,577.5842895507812,811.353759765625)"><g opacity="1" transform="matrix(1,0,0,1,0,0)"><path stroke-linecap="butt" stroke-linejoin="miter" fill-opacity="0" stroke-miterlimit="4" stroke="rgb(92,92,92)" stroke-opacity="1" stroke-width="1" d=" M4.125,410 C4.125,410 4.561999797821045,348.68798828125 4.561999797821045,348.68798828125"></path></g></g><g opacity="1" transform="matrix(0.5,-0.8660253882408142,0.8660253882408142,0.5,607.1015625,746.2620239257812)"><g opacity="1" transform="matrix(1,0,0,1,0,0)"><path stroke-linecap="butt" stroke-linejoin="miter" fill-opacity="0" stroke-miterlimit="4" stroke="rgb(92,92,92)" stroke-opacity="1" stroke-width="1" d=" M4.125,410 C4.125,410 4.561999797821045,348.68798828125 4.561999797821045,348.68798828125"></path></g></g><g opacity="1" transform="matrix(0.6427876353263855,-0.7660444378852844,0.7660444378852844,0.6427876353263855,647.4735107421875,687.2847900390625)"><g opacity="1" transform="matrix(1,0,0,1,0,0)"><path stroke-linecap="butt" stroke-linejoin="miter" fill-opacity="0" stroke-miterlimit="4" stroke="rgb(92,92,92)" stroke-opacity="1" stroke-width="1" d=" M4.125,410 C4.125,410 4.561999797821045,348.68798828125 4.561999797821045,348.68798828125"></path></g></g><g opacity="1" transform="matrix(0.7660444378852844,-0.6427876353263855,0.6427876353263855,0.7660444378852844,697.473388671875,636.2140502929688)"><g opacity="1" transform="matrix(1,0,0,1,0,0)"><path stroke-linecap="butt" stroke-linejoin="miter" fill-opacity="0" stroke-miterlimit="4" stroke="rgb(92,92,92)" stroke-opacity="1" stroke-width="1" d=" M4.125,410 C4.125,410 4.561999797821045,348.68798828125 4.561999797821045,348.68798828125"></path></g></g><g opacity="1" transform="matrix(0.8660253882408142,-0.5,0.5,0.8660253882408142,755.5819702148438,594.6015625)"><g opacity="1" transform="matrix(1,0,0,1,0,0)"><path stroke-linecap="butt" stroke-linejoin="miter" fill-opacity="0" stroke-miterlimit="4" stroke="rgb(92,92,92)" stroke-opacity="1" stroke-width="1" d=" M4.125,410 C4.125,410 4.561999797821045,348.68798828125 4.561999797821045,348.68798828125"></path></g></g><g opacity="1" transform="matrix(0.9396926164627075,-0.3420201539993286,0.3420201539993286,0.9396926164627075,820.03369140625,563.7117919921875)"><g opacity="1" transform="matrix(1,0,0,1,0,0)"><path stroke-linecap="butt" stroke-linejoin="miter" fill-opacity="0" stroke-miterlimit="4" stroke="rgb(92,92,92)" stroke-opacity="1" stroke-width="1" d=" M4.125,410 C4.125,410 4.561999797821045,348.68798828125 4.561999797821045,348.68798828125"></path></g></g><g opacity="1" transform="matrix(0.9848077297210693,-0.1736481785774231,0.1736481785774231,0.9848077297210693,888.8702392578125,544.483154296875)"><g opacity="1" transform="matrix(1,0,0,1,0,0)"><path stroke-linecap="butt" stroke-linejoin="miter" fill-opacity="0" stroke-miterlimit="4" stroke="rgb(92,92,92)" stroke-opacity="1" stroke-width="1" d=" M4.125,410 C4.125,410 4.561999797821045,348.68798828125 4.561999797821045,348.68798828125"></path></g></g><g opacity="1" transform="matrix(1,0,0,1,960,537.5)"><g opacity="1" transform="matrix(1,0,0,1,0,0)"><path stroke-linecap="butt" stroke-linejoin="miter" fill-opacity="0" stroke-miterlimit="4" stroke="rgb(92,92,92)" stroke-opacity="1" stroke-width="1" d=" M4.125,410 C4.125,410 4.561999797821045,348.68798828125 4.561999797821045,348.68798828125"></path></g></g></g><g opacity="1" transform="matrix(1.1050000190734863,0,0,1.1050000190734863,959.5537719726562,497.1600036621094)"><g opacity="1" transform="matrix(1,0,0,1,4.25,408)"><path fill="rgb(0,0,0)" fill-opacity="1" d=" M0,-2.2149999141693115 C1.2224584817886353,-2.2149999141693115 2.2149999141693115,-1.2224584817886353 2.2149999141693115,0 C2.2149999141693115,1.2224584817886353 1.2224584817886353,2.2149999141693115 0,2.2149999141693115 C-1.2224584817886353,2.2149999141693115 -2.2149999141693115,1.2224584817886353 -2.2149999141693115,0 C-2.2149999141693115,-1.2224584817886353 -1.2224584817886353,-2.2149999141693115 0,-2.2149999141693115z"></path><path stroke-linecap="butt" stroke-linejoin="miter" fill-opacity="0" stroke-miterlimit="4" stroke="rgb(92,92,92)" stroke-opacity="1" stroke-width="0" d=" M0,-2.2149999141693115 C1.2224584817886353,-2.2149999141693115 2.2149999141693115,-1.2224584817886353 2.2149999141693115,0 C2.2149999141693115,1.2224584817886353 1.2224584817886353,2.2149999141693115 0,2.2149999141693115 C-1.2224584817886353,2.2149999141693115 -2.2149999141693115,1.2224584817886353 -2.2149999141693115,0 C-2.2149999141693115,-1.2224584817886353 -1.2224584817886353,-2.2149999141693115 0,-2.2149999141693115z"></path></g></g></g><g transform="matrix(0.19996954500675201,-0.0034904812928289175,0.0034904812928289175,0.19996954500675201,47.643898010253906,46.394439697265625)" opacity="1" style="display: block;"><g opacity="1" transform="matrix(1,0,0,1,0,0)"><path fill="rgb(0,0,0)" fill-opacity="1" d=" M392,259.5 C382.5,259.5 306.5,259.5 297,259.5 C287.5,259.5 288.8819885253906,264.5799865722656 293,270.5 C294.2659912109375,272.32000732421875 305.00799560546875,278.7550048828125 305.00799560546875,278.7550048828125 C305.00799560546875,278.7550048828125 389.2120056152344,279.9209899902344 393,279.5 C397.5,279 411,279.25 411,267 C411,257.25 401.5,259.5 392,259.5z"></path><path stroke-linecap="butt" stroke-linejoin="miter" fill-opacity="0" stroke-miterlimit="4" stroke="rgb(0,0,0)" stroke-opacity="1" stroke-width="5" d=" M392,259.5 C382.5,259.5 306.5,259.5 297,259.5 C287.5,259.5 288.8819885253906,264.5799865722656 293,270.5 C294.2659912109375,272.32000732421875 305.00799560546875,278.7550048828125 305.00799560546875,278.7550048828125 C305.00799560546875,278.7550048828125 389.2120056152344,279.9209899902344 393,279.5 C397.5,279 411,279.25 411,267 C411,257.25 401.5,259.5 392,259.5z"></path></g></g><g transform="matrix(0.19996954500675201,-0.0034904812928289175,0.0034904812928289175,0.19996954500675201,47.643898010253906,46.394439697265625)" opacity="1" style="display: block;"><g opacity="1" transform="matrix(1,0,0,1,0,0)"><path fill="rgb(39,30,30)" fill-opacity="1" d=" M200,400.5 C200,400.5 182.5,409 182.5,409 C182.5,409 162,410.5 159,412 C156,413.5 156,421 161.5,426 C167,431 195.5,433.5 195.5,433.5 C195.5,433.5 206.5,434.5 210,436.5 C212.0070037841797,437.6470031738281 224.10400390625,439.1159973144531 230.22000122070312,440.5870056152344 C234.77000427246094,441.6809997558594 234.80499267578125,436.3550109863281 234.80499267578125,436.3550109863281 C234.80499267578125,436.3550109863281 238,412 238,412 C238,412 226,404.5 226,404.5 C226,404.5 200,400.5 200,400.5z"></path><path stroke-linecap="butt" stroke-linejoin="miter" fill-opacity="0" stroke-miterlimit="4" stroke="rgb(0,0,0)" stroke-opacity="1" stroke-width="0" d=" M200,400.5 C200,400.5 182.5,409 182.5,409 C182.5,409 162,410.5 159,412 C156,413.5 156,421 161.5,426 C167,431 195.5,433.5 195.5,433.5 C195.5,433.5 206.5,434.5 210,436.5 C212.0070037841797,437.6470031738281 224.10400390625,439.1159973144531 230.22000122070312,440.5870056152344 C234.77000427246094,441.6809997558594 234.80499267578125,436.3550109863281 234.80499267578125,436.3550109863281 C234.80499267578125,436.3550109863281 238,412 238,412 C238,412 226,404.5 226,404.5 C226,404.5 200,400.5 200,400.5z"></path></g><g opacity="1" transform="matrix(1,0,0,1,0,0)"><path fill="rgb(167,165,165)" fill-opacity="1" d=" M198,383.25 C198,383.25 204,406 204,406 C204,406 228.5,412 228.5,412 C228.5,412 225.25,383.75 225.25,383.75 C225.25,383.75 198,383.25 198,383.25z"></path><path stroke-linecap="butt" stroke-linejoin="miter" fill-opacity="0" stroke-miterlimit="4" stroke="rgb(0,0,0)" stroke-opacity="1" stroke-width="0" d=" M198,383.25 C198,383.25 204,406 204,406 C204,406 228.5,412 228.5,412 C228.5,412 225.25,383.75 225.25,383.75 C225.25,383.75 198,383.25 198,383.25z"></path></g></g><g transform="matrix(0.19996954500675201,-0.0034904812928289175,0.0034904812928289175,0.19996954500675201,47.64390182495117,46.394439697265625)" opacity="1" style="display: block;"><g opacity="1" transform="matrix(1,0,0,1,0,0)"><path fill="rgb(19,19,34)" fill-opacity="1" d=" M253,195 C253,195 200.5,201 197.5,200.5 C194.5,200 174,208 168,216.5 C162,225 156,245 169.5,254 C183,263 211.5,309.5 213,308 C214.5,306.5 253,283.5 253,283.5 C253,283.5 207,241.5 203.5,236 C200,230.5 250,204 250,204 C250,204 253,195 253,195z"></path><path stroke-linecap="butt" stroke-linejoin="miter" fill-opacity="0" stroke-miterlimit="4" stroke="rgb(0,0,0)" stroke-opacity="1" stroke-width="0" d=" M253,195 C253,195 200.5,201 197.5,200.5 C194.5,200 174,208 168,216.5 C162,225 156,245 169.5,254 C183,263 211.5,309.5 213,308 C214.5,306.5 253,283.5 253,283.5 C253,283.5 207,241.5 203.5,236 C200,230.5 250,204 250,204 C250,204 253,195 253,195z"></path></g><g opacity="1" transform="matrix(1,0,0,1,0,0)"><path fill="rgb(35,37,63)" fill-opacity="1" d=" M312,177.5 C312,177.5 233.91400146484375,198.68299865722656 233.91400146484375,198.68299865722656 C233.91400146484375,198.68299865722656 218,203 218,203 C218,203 184.5,254 179,262 C173.5,270 171,287 172,296 C173,305 167.5,384 173.5,386 C179.5,388 234.5,385 234.5,385 C234.5,385 223.5,343 223.5,343 C223.5,343 214.5,313 213.5,309.5 C212.5,306 239,261.5 239,261.5 C239,261.5 273.5,221.5 273.5,221.5 C273.5,221.5 300,212.5 302,209.5 C304,206.5 312,177.5 312,177.5z"></path><path stroke-linecap="butt" stroke-linejoin="miter" fill-opacity="0" stroke-miterlimit="4" stroke="rgb(0,0,0)" stroke-opacity="1" stroke-width="0" d=" M312,177.5 C312,177.5 233.91400146484375,198.68299865722656 233.91400146484375,198.68299865722656 C233.91400146484375,198.68299865722656 218,203 218,203 C218,203 184.5,254 179,262 C173.5,270 171,287 172,296 C173,305 167.5,384 173.5,386 C179.5,388 234.5,385 234.5,385 C234.5,385 223.5,343 223.5,343 C223.5,343 214.5,313 213.5,309.5 C212.5,306 239,261.5 239,261.5 C239,261.5 273.5,221.5 273.5,221.5 C273.5,221.5 300,212.5 302,209.5 C304,206.5 312,177.5 312,177.5z"></path></g></g><g transform="matrix(0.19996954500675201,-0.0034904812928289175,0.0034904812928289175,0.19996954500675201,47.643898010253906,46.394439697265625)" opacity="1" style="display: block;"><g opacity="1" transform="matrix(1,0,0,1,0,0)"><path fill="rgb(0,0,0)" fill-opacity="1" d=" M269.5,221 C269.5,221 303,210 303,210 C303,210 308,213.25 307.5,215 C307,216.75 293.25,234.75 293.25,234.75"></path><path stroke-linecap="butt" stroke-linejoin="miter" fill-opacity="0" stroke-miterlimit="4" stroke="rgb(0,0,0)" stroke-opacity="1" stroke-width="0" d=" M269.5,221 C269.5,221 303,210 303,210 C303,210 308,213.25 307.5,215 C307,216.75 293.25,234.75 293.25,234.75"></path></g><g opacity="1" transform="matrix(1,0,0,1,0,0)"><path fill="rgb(0,0,0)" fill-opacity="1" d=" M294.25,234.75 C284.3330078125,233.83299255371094 260,231.5 260,231.5 C260,231.5 269.75,220.75 269.75,220.75"></path><path stroke-linecap="butt" stroke-linejoin="miter" fill-opacity="0" stroke-miterlimit="4" stroke="rgb(0,0,0)" stroke-opacity="1" stroke-width="0" d=" M294.25,234.75 C284.3330078125,233.83299255371094 260,231.5 260,231.5 C260,231.5 269.75,220.75 269.75,220.75"></path></g><g opacity="1" transform="matrix(1,0,0,1,0,0)"><path fill="rgb(0,0,0)" fill-opacity="1" d=" M279.5,231.5 C279.5,231.5 242.25,321.25 242.25,321.25"></path><path stroke-linecap="butt" stroke-linejoin="miter" fill-opacity="0" stroke-miterlimit="4" stroke="rgb(0,0,0)" stroke-opacity="1" stroke-width="4" d=" M279.5,231.5 C279.5,231.5 242.25,321.25 242.25,321.25"></path></g></g><g transform="matrix(0.19996954500675201,-0.0034904812928289175,0.0034904812928289175,0.19996954500675201,47.643898010253906,46.394439697265625)" opacity="1" style="display: block;"><g opacity="1" transform="matrix(1,0,0,1,0,0)"><path fill="rgb(231,205,182)" fill-opacity="1" d=" M230.5,-2.5 C230.5,-2.5 200.72999572753906,26.76099967956543 195.5,46 C194.6999969482422,48.944000244140625 198.4980010986328,49.904998779296875 203.0760040283203,50.04800033569336 C209.11000061035156,50.236000061035156 216.5,49 216.5,49 C216.5,49 247,-2 247,-2 C247,-2 230.5,-2.5 230.5,-2.5z"></path><path stroke-linecap="butt" stroke-linejoin="miter" fill-opacity="0" stroke-miterlimit="4" stroke="rgb(0,0,0)" stroke-opacity="1" stroke-width="0" d=" M230.5,-2.5 C230.5,-2.5 200.72999572753906,26.76099967956543 195.5,46 C194.6999969482422,48.944000244140625 198.4980010986328,49.904998779296875 203.0760040283203,50.04800033569336 C209.11000061035156,50.236000061035156 216.5,49 216.5,49 C216.5,49 247,-2 247,-2 C247,-2 230.5,-2.5 230.5,-2.5z"></path></g><g opacity="1" transform="matrix(1,0,0,1,0,0)"><path fill="rgb(231,205,182)" fill-opacity="1" d=" M156.25,127.5 C156.25,128.25 158.75,140.25 159.75,140.25 C160.75,140.25 169.75,140.75 165.25,133.5 C160.75,126.25 156.25,126.75 156.25,127.5z"></path><path stroke-linecap="butt" stroke-linejoin="miter" fill-opacity="0" stroke-miterlimit="4" stroke="rgb(0,0,0)" stroke-opacity="1" stroke-width="0" d=" M156.25,127.5 C156.25,128.25 158.75,140.25 159.75,140.25 C160.75,140.25 169.75,140.75 165.25,133.5 C160.75,126.25 156.25,126.75 156.25,127.5z"></path></g><g opacity="1" transform="matrix(1,0,0,1,0,0)"><path fill="rgb(231,205,182)" fill-opacity="1" d=" M309,150 C309,150 201,187 201,187 C201,187 193,201.5 195.5,202.5 C198,203.5 213,201.5 213,201.5 C213,201.5 306.5,184.5 311,182.5 C315.5,180.5 335,162.5 335,162.5 C335,162.5 329.5,153 329.5,153 C329.5,153 309,150 309,150z"></path><path stroke-linecap="butt" stroke-linejoin="miter" fill-opacity="0" stroke-miterlimit="4" stroke="rgb(0,0,0)" stroke-opacity="1" stroke-width="0" d=" M309,150 C309,150 201,187 201,187 C201,187 193,201.5 195.5,202.5 C198,203.5 213,201.5 213,201.5 C213,201.5 306.5,184.5 311,182.5 C315.5,180.5 335,162.5 335,162.5 C335,162.5 329.5,153 329.5,153 C329.5,153 309,150 309,150z"></path></g><g opacity="1" transform="matrix(1,0,0,1,0,0)"><path fill="rgb(168,109,57)" fill-opacity="1" d=" M210,99.5 C210,99.5 159,127.5 159,127.5 C159,127.5 164,138.5 164,138.5 C164,138.5 174.4669952392578,133.93299865722656 174.4669952392578,133.93299865722656 C174.4669952392578,133.93299865722656 197.5,128 197.5,128 C197.5,128 210,99.5 210,99.5z"></path><path stroke-linecap="butt" stroke-linejoin="miter" fill-opacity="0" stroke-miterlimit="4" stroke="rgb(0,0,0)" stroke-opacity="1" stroke-width="0" d=" M210,99.5 C210,99.5 159,127.5 159,127.5 C159,127.5 164,138.5 164,138.5 C164,138.5 174.4669952392578,133.93299865722656 174.4669952392578,133.93299865722656 C174.4669952392578,133.93299865722656 197.5,128 197.5,128 C197.5,128 210,99.5 210,99.5z"></path></g><g opacity="1" transform="matrix(1,0,0,1,0,0)"><path fill="rgb(214,147,89)" fill-opacity="1" d=" M245.5,-0.5 C243.697998046875,-0.45500001311302185 239.5,11.5 239.5,11.5 C239.5,11.5 226,28 226,28 C226,28 219.5,47.5 219.5,47.5 C219.5,47.5 209.5,47 209.5,47 C209.5,47 196,191.5 196,191.5 C196,191.5 255,184.5 273.5,180.5 C292,176.5 318.5,153 318.5,153 C318.5,153 296,66 290,50.5 C284,35 265.5,-1 245.5,-0.5z"></path><path stroke-linecap="butt" stroke-linejoin="miter" fill-opacity="0" stroke-miterlimit="4" stroke="rgb(0,0,0)" stroke-opacity="1" stroke-width="0" d=" M245.5,-0.5 C243.697998046875,-0.45500001311302185 239.5,11.5 239.5,11.5 C239.5,11.5 226,28 226,28 C226,28 219.5,47.5 219.5,47.5 C219.5,47.5 209.5,47 209.5,47 C209.5,47 196,191.5 196,191.5 C196,191.5 255,184.5 273.5,180.5 C292,176.5 318.5,153 318.5,153 C318.5,153 296,66 290,50.5 C284,35 265.5,-1 245.5,-0.5z"></path></g><g opacity="1" transform="matrix(1,0,0,1,0,0)"><path fill="rgb(168,109,57)" fill-opacity="1" d=" M221.5,34.5 C211.9219970703125,48.111000061035156 207,115 207,115 C207,115 176,137.5 171.5,142 C167,146.5 185.5,170.5 185.5,170.5 C185.5,170.5 252,106 252,106 C252,106 266.5,91.5 274,75.5 C274.6600036621094,74.09200286865234 269.6239929199219,66.75399780273438 268.81201171875,65.37699890136719 C268,64 228.72799682617188,24.229000091552734 221.5,34.5z"></path><path stroke-linecap="butt" stroke-linejoin="miter" fill-opacity="0" stroke-miterlimit="4" stroke="rgb(0,0,0)" stroke-opacity="1" stroke-width="0" d=" M221.5,34.5 C211.9219970703125,48.111000061035156 207,115 207,115 C207,115 176,137.5 171.5,142 C167,146.5 185.5,170.5 185.5,170.5 C185.5,170.5 252,106 252,106 C252,106 266.5,91.5 274,75.5 C274.6600036621094,74.09200286865234 269.6239929199219,66.75399780273438 268.81201171875,65.37699890136719 C268,64 228.72799682617188,24.229000091552734 221.5,34.5z"></path></g><g opacity="1" transform="matrix(1,0,0,1,0,0)"><path fill="rgb(168,109,57)" fill-opacity="1" d=" M170.5,162"></path><path stroke-linecap="butt" stroke-linejoin="miter" fill-opacity="0" stroke-miterlimit="4" stroke="rgb(0,0,0)" stroke-opacity="1" stroke-width="0" d=" M170.5,162"></path></g></g><g transform="matrix(0.19996954500675201,-0.0034904812928289175,0.0034904812928289175,0.19996954500675201,47.643898010253906,46.394439697265625)" opacity="1" style="display: block;"><g opacity="1" transform="matrix(1,0,0,1,0,0)"><path fill="rgb(180,151,145)" fill-opacity="1" d=" M158.5,129.25 C158.5,129.25 147.56100463867188,130.031005859375 141,133.25 C137.61900329589844,134.90899658203125 134,139.0070037841797 134,143.25 C134,146.76600646972656 140.75,147.75 140.75,147.75 C140.75,147.75 145.75,138.5 145.75,138.5 C145.75,138.5 162.5,139.25 162.5,139.25 C162.5,139.25 158.5,129.25 158.5,129.25z"></path><path stroke-linecap="butt" stroke-linejoin="miter" fill-opacity="0" stroke-miterlimit="4" stroke="rgb(0,0,0)" stroke-opacity="1" stroke-width="0" d=" M158.5,129.25 C158.5,129.25 147.56100463867188,130.031005859375 141,133.25 C137.61900329589844,134.90899658203125 134,139.0070037841797 134,143.25 C134,146.76600646972656 140.75,147.75 140.75,147.75 C140.75,147.75 145.75,138.5 145.75,138.5 C145.75,138.5 162.5,139.25 162.5,139.25 C162.5,139.25 158.5,129.25 158.5,129.25z"></path></g><g opacity="1" transform="matrix(1,0,0,1,0,0)"><path fill="rgb(180,151,145)" fill-opacity="1" d=" M149.25,141 C149.25,141 144.5,150.25 145.25,151.75 C146,153.25 156.50900268554688,157.343994140625 160.5,155.25 C165.22500610351562,152.77099609375 160.5,143.75 160.5,143.75 C160.5,143.75 149.25,141 149.25,141z"></path><path stroke-linecap="butt" stroke-linejoin="miter" fill-opacity="0" stroke-miterlimit="4" stroke="rgb(0,0,0)" stroke-opacity="1" stroke-width="0" d=" M149.25,141 C149.25,141 144.5,150.25 145.25,151.75 C146,153.25 156.50900268554688,157.343994140625 160.5,155.25 C165.22500610351562,152.77099609375 160.5,143.75 160.5,143.75 C160.5,143.75 149.25,141 149.25,141z"></path></g></g><g transform="matrix(0.19996954500675201,-0.0034904812928289175,0.0034904812928289175,0.19996954500675201,47.643898010253906,46.394439697265625)" opacity="1" style="display: block;"><g opacity="1" transform="matrix(1,0,0,1,0,0)"><path fill="rgb(232,207,182)" fill-opacity="1" d=" M170.5,142 C167.75,142.5 162.25,141.5 163.5,145.75 C164.75,150 175.25,174.75 178,174.25 C180.75,173.75 188.25,173 186,168.75 C183.75,164.5 173.25,141.5 170.5,142z"></path><path stroke-linecap="butt" stroke-linejoin="miter" fill-opacity="0" stroke-miterlimit="4" stroke="rgb(0,0,0)" stroke-opacity="1" stroke-width="0" d=" M170.5,142 C167.75,142.5 162.25,141.5 163.5,145.75 C164.75,150 175.25,174.75 178,174.25 C180.75,173.75 188.25,173 186,168.75 C183.75,164.5 173.25,141.5 170.5,142z"></path></g></g><g transform="matrix(0.19996954500675201,-0.0034904812928289175,0.0034904812928289175,0.19996954500675201,47.643898010253906,46.394439697265625)" opacity="1" style="display: block;"><g opacity="1" transform="matrix(1,0,0,1,0,0)"><path fill="rgb(39,24,18)" fill-opacity="1" d=" M218.75,5.25 C218,4.75 190.5,11.25 192.75,12.75 C195,14.25 211.625,18.25 211.625,18.25 C211.625,18.25 221.125,8.375 221.125,8.375 C221.125,8.375 219.5,5.75 218.75,5.25z"></path><path stroke-linecap="butt" stroke-linejoin="miter" fill-opacity="0" stroke-miterlimit="4" stroke="rgb(153,153,153)" stroke-opacity="1" stroke-width="0" d=" M218.75,5.25 C218,4.75 190.5,11.25 192.75,12.75 C195,14.25 211.625,18.25 211.625,18.25 C211.625,18.25 221.125,8.375 221.125,8.375 C221.125,8.375 219.5,5.75 218.75,5.25z"></path></g></g><g transform="matrix(0.19996954500675201,-0.0034904812928289175,0.0034904812928289175,0.19996954500675201,47.643898010253906,46.394439697265625)" opacity="1" style="display: block;"><g opacity="1" transform="matrix(1,0,0,1,0,0)"><path fill="rgb(235,180,155)" fill-opacity="1" d=" M210.5,-36 C205.5,-36.5 192.5,-36.25 189.25,-34.5 C186,-32.75 185.75,-26.25 186.75,-26 C187.75,-25.75 190.5,-22.5 190.5,-22.5 C190.5,-22.5 188,-19.5 187.25,-16.5 C186.5,-13.5 184.97900390625,-11.895999908447266 186.5,-10.375 C188.4550018310547,-8.420000076293945 191.625,-9.625 191.625,-9.625 C191.625,-9.625 190.375,-4.75 190.125,-4.5 C189.9980010986328,-4.373000144958496 189.83799743652344,-2.819999933242798 189.81100463867188,-1.2599999904632568 C189.78500366210938,0.24400000274181366 189.8820037841797,1.7549999952316284 190.25,2 C191,2.5 189.18600463867188,9.906999588012695 191.5,11.75 C195.02200317382812,14.553999900817871 199.6179962158203,14.16100025177002 203.75,12.75 C208.875,11 220.25,9 221.5,8.5 C222.75,8 232.75,-5.25 232.75,-5.25 C232.75,-5.25 242.6820068359375,-18.56100082397461 244.25,-20.875 C246.875,-24.75 239.75,-35.75 237,-34 C234.25,-32.25 223,-32.5 223,-32.5 C223,-32.5 215.5,-35.5 210.5,-36z"></path><path stroke-linecap="butt" stroke-linejoin="miter" fill-opacity="0" stroke-miterlimit="4" stroke="rgb(0,0,0)" stroke-opacity="1" stroke-width="0" d=" M210.5,-36 C205.5,-36.5 192.5,-36.25 189.25,-34.5 C186,-32.75 185.75,-26.25 186.75,-26 C187.75,-25.75 190.5,-22.5 190.5,-22.5 C190.5,-22.5 188,-19.5 187.25,-16.5 C186.5,-13.5 184.97900390625,-11.895999908447266 186.5,-10.375 C188.4550018310547,-8.420000076293945 191.625,-9.625 191.625,-9.625 C191.625,-9.625 190.375,-4.75 190.125,-4.5 C189.9980010986328,-4.373000144958496 189.83799743652344,-2.819999933242798 189.81100463867188,-1.2599999904632568 C189.78500366210938,0.24400000274181366 189.8820037841797,1.7549999952316284 190.25,2 C191,2.5 189.18600463867188,9.906999588012695 191.5,11.75 C195.02200317382812,14.553999900817871 199.6179962158203,14.16100025177002 203.75,12.75 C208.875,11 220.25,9 221.5,8.5 C222.75,8 232.75,-5.25 232.75,-5.25 C232.75,-5.25 242.6820068359375,-18.56100082397461 244.25,-20.875 C246.875,-24.75 239.75,-35.75 237,-34 C234.25,-32.25 223,-32.5 223,-32.5 C223,-32.5 215.5,-35.5 210.5,-36z"></path></g><g opacity="1" transform="matrix(1,0,0,1,0,0)"><path fill="rgb(185,130,105)" fill-opacity="1" d=" M233.75,-24.5 C231,-26.5 229.75,-23.25 227,-21.375 C224.25,-19.5 225.75,-8.5 225.75,-8.5 C225.75,-8.5 229.125,-8.375 229.75,-8.75 C230.375,-9.125 236.375,-13 237.375,-16.375 C238.375,-19.75 236.5,-22.5 233.75,-24.5z"></path><path stroke-linecap="butt" stroke-linejoin="miter" fill-opacity="0" stroke-miterlimit="4" stroke="rgb(138,95,77)" stroke-opacity="1" stroke-width="0" d=" M233.75,-24.5 C231,-26.5 229.75,-23.25 227,-21.375 C224.25,-19.5 225.75,-8.5 225.75,-8.5 C225.75,-8.5 229.125,-8.375 229.75,-8.75 C230.375,-9.125 236.375,-13 237.375,-16.375 C238.375,-19.75 236.5,-22.5 233.75,-24.5z"></path></g><g opacity="1" transform="matrix(1,0,0,1,0,0)"><path fill="rgb(148,98,81)" fill-opacity="1" d=" M191.125,-1.875 C191.125,-1.875 199.5,-0.875 201.5,-2.5"></path><path stroke-linecap="butt" stroke-linejoin="bevel" fill-opacity="0" stroke="rgb(123,81,66)" stroke-opacity="1" stroke-width="2" d=" M191.125,-1.875 C191.125,-1.875 199.5,-0.875 201.5,-2.5"></path></g><g opacity="1" transform="matrix(1,0,0,1,0,0)"><path fill="rgb(148,98,81)" fill-opacity="1" d=" M193.875,-27.75 C194.375,-28 198.25,-30 202.125,-28.875"></path><path stroke-linecap="butt" stroke-linejoin="miter" fill-opacity="0" stroke-miterlimit="4" stroke="rgb(85,50,38)" stroke-opacity="1" stroke-width="2" d=" M193.875,-27.75 C194.375,-28 198.25,-30 202.125,-28.875"></path></g></g><g transform="matrix(0.19996954500675201,-0.0034904812928289175,0.0034904812928289175,0.19996954500675201,47.643898010253906,46.394439697265625)" opacity="1" style="display: block;"><g opacity="1" transform="matrix(1,0,0,1,0,0)"><path stroke-linecap="round" stroke-linejoin="miter" fill-opacity="0" stroke-miterlimit="4" stroke="rgb(86,8,8)" stroke-opacity="1" stroke-width="4.6" d=" M224.75,-36.875 C224.75,-36.875 219,-7.125 219.125,-1.125 C219.25,4.875 218.875,13 218.875,13"></path></g><g opacity="1" transform="matrix(1,0,0,1,0,0)"><path stroke-linecap="round" stroke-linejoin="miter" fill-opacity="0" stroke-miterlimit="4" stroke="rgb(86,8,8)" stroke-opacity="1" stroke-width="4.6" d=" M247.375,-21.5 C247.375,-21.5 233.875,-3.125 233.875,-3.125"></path></g><g opacity="1" transform="matrix(1,0,0,1,0,0)"><path fill="rgb(69,112,129)" fill-opacity="1" d=" M218,-70.5 C188.5,-70.5 177,-52.75 178.25,-35.125 C181.875,-31.5 196,-34.625 196,-34.625 C196,-34.625 204.80799865722656,-36.88800048828125 215.02099609375,-34.11600112915039 C218.09100341796875,-33.28300094604492 219.9010009765625,-30.025999069213867 222.99400329589844,-29.465999603271484 C226.79100036621094,-28.777999877929688 229.97000122070312,-31.496999740600586 233.2220001220703,-31.950000762939453 C235.98899841308594,-32.33599853515625 239.0500030517578,-30.52899932861328 240,-29.5 C242.07400512695312,-27.253000259399414 243.3990020751953,-22.291000366210938 245.28599548339844,-18.652999877929688 C246.79200744628906,-15.74899959564209 248.79200744628906,-13.869999885559082 250.82200622558594,-13.562000274658203 C252.875,-13.25 254.5,-13 254.5,-13 C254.5,-13 256.5,-41 256.5,-51 C256.5,-61 247.5,-70.5 218,-70.5z"></path></g></g><g transform="matrix(0.19996954500675201,-0.0034904812928289175,0.0034904812928289175,0.19996954500675201,-146.2117156982422,-58.238250732421875)" opacity="1" style="display: block;"><g opacity="1" transform="matrix(1.4936599731445312,0,0,2.012939929962158,864.363037109375,569.2406616210938)"><g opacity="1" transform="matrix(1,0,0,1,195.7519989013672,-26.325000762939453)"><path fill="rgb(53,33,25)" fill-opacity="1" d=" M0,-2.575000047683716 C1.102972149848938,-2.575000047683716 1.9984999895095825,-1.421142578125 1.9984999895095825,0 C1.9984999895095825,1.421142578125 1.102972149848938,2.575000047683716 0,2.575000047683716 C-1.102972149848938,2.575000047683716 -1.9984999895095825,1.421142578125 -1.9984999895095825,0 C-1.9984999895095825,-1.421142578125 -1.102972149848938,-2.575000047683716 0,-2.575000047683716z"></path><path stroke-linecap="butt" stroke-linejoin="miter" fill-opacity="0" stroke-miterlimit="4" stroke="rgb(153,153,153)" stroke-opacity="1" stroke-width="1" d=" M0,-2.575000047683716 C1.102972149848938,-2.575000047683716 1.9984999895095825,-1.421142578125 1.9984999895095825,0 C1.9984999895095825,1.421142578125 1.102972149848938,2.575000047683716 0,2.575000047683716 C-1.102972149848938,2.575000047683716 -1.9984999895095825,1.421142578125 -1.9984999895095825,0 C-1.9984999895095825,-1.421142578125 -1.102972149848938,-2.575000047683716 0,-2.575000047683716z"></path></g></g><g opacity="1" transform="matrix(1.2696599960327148,0,0,1.711069941520691,899.7115478515625,561.2939453125)"><g opacity="1" transform="matrix(1,0,0,1,195.7519989013672,-26.325000762939453)"><path fill="rgb(53,33,25)" fill-opacity="1" d=" M0,-2.575000047683716 C1.102972149848938,-2.575000047683716 1.9984999895095825,-1.421142578125 1.9984999895095825,0 C1.9984999895095825,1.421142578125 1.102972149848938,2.575000047683716 0,2.575000047683716 C-1.102972149848938,2.575000047683716 -1.9984999895095825,1.421142578125 -1.9984999895095825,0 C-1.9984999895095825,-1.421142578125 -1.102972149848938,-2.575000047683716 0,-2.575000047683716z"></path><path stroke-linecap="butt" stroke-linejoin="miter" fill-opacity="0" stroke-miterlimit="4" stroke="rgb(153,153,153)" stroke-opacity="1" stroke-width="1" d=" M0,-2.575000047683716 C1.102972149848938,-2.575000047683716 1.9984999895095825,-1.421142578125 1.9984999895095825,0 C1.9984999895095825,1.421142578125 1.102972149848938,2.575000047683716 0,2.575000047683716 C-1.102972149848938,2.575000047683716 -1.9984999895095825,1.421142578125 -1.9984999895095825,0 C-1.9984999895095825,-1.421142578125 -1.102972149848938,-2.575000047683716 0,-2.575000047683716z"></path></g></g><g opacity="1" transform="matrix(1,0,0,1,960,540)"><g opacity="1" transform="matrix(1,0,0,1,0,0)"><path fill="rgb(53,33,25)" fill-opacity="1" d=" M220.375,-27.625 C220.375,-27.625 198.625,-24.75 198.625,-24.75"></path><path stroke-linecap="butt" stroke-linejoin="miter" fill-opacity="0" stroke-miterlimit="4" stroke="rgb(152,152,152)" stroke-opacity="1" stroke-width="2" d=" M220.375,-27.625 C220.375,-27.625 198.625,-24.75 198.625,-24.75"></path></g></g></g></g></svg>