<?xml version="1.0" encoding="UTF-8"?>
<svg xmlns="http://www.w3.org/2000/svg" xmlns:xlink="http://www.w3.org/1999/xlink" version="1.1" viewBox="0 0 1920 1080">
  <!-- Generator: Adobe Illustrator 29.8.2, SVG Export Plug-In . SVG Version: 2.1.1 Build 3)  -->
  <defs>
    <style>
      .st0, .st1, .st2, .st3, .st4, .st5, .st6, .st7, .st8 {
        fill: none;
      }

      .st9 {
        fill: #90cb5f;
      }

      .st1 {
        stroke: #fafbf7;
      }

      .st1, .st5, .st8 {
        stroke-width: 4px;
      }

      .st10 {
        fill: #ababab;
      }

      .st2 {
        stroke-width: 3.8px;
      }

      .st2, .st3 {
        stroke: #0e0e0e;
      }

      .st3 {
        stroke-width: 3.7px;
      }

      .st4 {
        stroke: #e3ed18;
        stroke-width: 8px;
      }

      .st5 {
        stroke-dasharray: 22.8 22.8;
      }

      .st5, .st7, .st8 {
        stroke: #fff;
      }

      .st6 {
        stroke: #030303;
      }

      .st6, .st7 {
        stroke-width: 5px;
      }

      .st11 {
        fill: #4aa5de;
      }

      .st12 {
        fill: #fff;
      }

      .st7 {
        stroke-dasharray: 22.3 27;
      }

      .st13 {
        fill: #ababab;
      }

      .st14 {
        display: none;
      }

      .st8 {
        stroke-dasharray: 22;
      }

      .st15 {
        fill: #fafbf7;
      }

      .st16 {
        clip-path: url(#clippath);
      }
    </style>
    <clipPath id="clippath">
      <rect class="st0" width="1920" height="1080"/>
    </clipPath>
  </defs>
  <g id="Layer_1" class="st14">
    <g id="Layer_11" data-name="Layer_1">
      <g class="st16">
        <g>
          <g>
            <path class="st9" d="M2267.2-144.9v1414.8H-248V-144.9h2515.2Z"/>
            <path class="st0" d="M2267.2-144.9v1414.8H-248V-144.9h2515.2Z"/>
            <path class="st13" d="M290.5-46.2l29.6,12s60.2,63.7,64.5,63.7,5.2,1,4.7,2.9,2.8,4.5-5,4.5-41.6-1.2-70.5-1.4-38.2,28.9-38.3,38.7v38.7h-12.1l-.3,43.9,13.5.3s-1,45.8-1.2,76,34.6,39.2,40.1,39.2h76.7c5.7,0,9,1.5,9,7s.5,23.8.5,36.8,23.3,23.9,36.9,26.6c-1.2.9-5.7,5.7-5.8,9.7v15.7c-.2,6.2-10.2,10.9-10.2,10.9l-10.4-.8v-14.2c.1,0-74-.5-74-.5l-.4,60.1,74.1.5.2-27.3h13.5c7.6.1,23.2-17.6,23.2-20.6s.3-10.7.4-19.5c0-8.8,11.5-16.1,16-16,4.5,0,16.4-.1,24.2,0,7.8,0,11.1,2.5,11.1,8.2s-1.1,119-1.2,132.8c0,13.8,1.3,11.9,6.6,11.9s87.4-.3,103.1-.2,17.6-.4,17.6-7,.8-40.4.8-48.9-3.8-7.2-10.4-7.2-50.8.4-68.6.2-23.9-16.6-23.8-27.5l.4-61.5h19.9c0,.1.6,10.1.5,33.4-.2,23.3,21.1,33.4,32.1,33.5s96,.4,122.1.6,43.1-20.8,43.2-34.9l.6-81.9s291.4.1,301.6.2c10.2,0,13.8,2.5,13.7,7.5s-1.6,130.4-1.7,137.3-.8,10.4-7.2,10.4-328.9.3-359.3.1-36.1,28-36.1,34.4l-.3,45.1-485,.9-1-532.4h-50l-1,532.5-142.2-.2-.3,40.8,414.4.7.2,57.1s-96.7-.2-104.4-.3-14.3,9.2-14.4,14.2l-.3,45c0,7.7,2.2,12.6,12.5,12.7l95.2.7c5.7,0,8.7.5,8.5,2.7-.1,2.1-4.5,2.6-8.3,2.6s-45.6,1.1-70.3.9c-24.7-.2-36.3,30.1-36.4,38.7s1.3,19.5,1.2,28c0,8.5-5.8,9-9.6,9s-7.1-.5-7.1-.5l-.3,43.2h16.1c0,0-.5,67.6-.5,67.6-.2,35.1,27.7,46.7,40,46.8,12.4,0,58.9,1.8,74.6.5s11.3,8.6,11.3,8.6c0,0-3,22.3,4,42.3,6.7,19.3,34.1,19.2,31.7,20.6s-5.4,83.6-5.4,83.6c0,0,2.8,1.9,16.2-.4,0-12.8,10.6-84,20.1-83.9l32.8.2s.3,82.7.3,86,24.7.2,24.7.2l-1.3-86.9h20.9c0,0,4.1,88.1,4.1,88.1l37.5,1.7-.8-89.8s7.6-.4,21.9-.3,30.6-26.4,30.7-42.5-.5-132.1-.5-138.2-.4-14.7-.4-14.7c0,0,7.1-.4,26.6-.3,19.5,0,36.8-25.9,36.9-46.8s-.3-233.7,0-256.5,1.6-21.4,15.8-21.3,13.3-.4,27.6-.3,17.6-.4,17.5,5.8.4,9.5.2,46.1c-.3,36.6,34.4,42,54.3,42.2,20,0,108.3.3,128.7.4s29.4,6.4,29.3,22.1c0,15.7-1.1,219.4-1.1,219.4l-19.1,15.5-207.6-1.5c-38.9-.3-46.7,26.3-46.9,50s-.3,202.1-.3,202.1l42.8.3.7-130.4s282.2,0,293.6.2c11.4,0,20.9-.8,20.8,11.5,0,5.2-1.3,136.6-1.3,136.6l43.7.3s-.2-122.8,0-155.6-33.5-33.5-61.5-33.7l-294-2.1s-1.3-16.6-1.2-26.1,7.2-11.3,17.7-11.3,311.1,3.1,358.1,3.5,52.5-31,52.6-50.9c0-20,1.9-71.7,1.9-71.7l130.6-.5s.4,7.6,1.2,34.2c-21.9,2.2-64.4,36.6-64.7,82.2-.3,45.6,52.2,80.6,79.2,80.8,27.1.2,50.4-13.9,50.4-13.9l25,26.8-160.5-1.1c-29.9-.2-37.3,31.6-37.3,38.2s-.6,100-.6,100l42.7.3.6-97.6s241.8,3.6,243.7,1.7c1.9-1.9-.2,27.1-.2,27.1l23.3.2.2-24.2,152,1.1-.2,23.7,41.8-.7s3.9-215.6,4-227-30.7-26.8-44.5-26.9-244.6-2.7-253.2-2.7-21.9,4.6-21.9,4.6c0,0-17.2,17.5-18.2,15.5-.9-1.9-19.4-8.2-19.4-8.2l.9-134.9v-19c0,0,82.3,2.5,125,2.8,42.8.3,46.3-31.5,46.4-50s-.4-80.3-.3-92.6c0-12.3,16.7-8.9,16.7-8.9l169.1,1.2s8-336.3.6-354.4-46.4-22.2-46.4-22.2l-255.5-1.8c-5.7,0-16.2,4.6-16.2,4.6l-16.3,15.1-22.7-11.6V-69.2l-41.1-.5s1.1,109.9,1,114c0,4-5.7,4-5.7,4l-127.5-.9-.5-117.3-42.5-.3s.2,227.5.2,234.1-3.1,6.9-5,6.9h-13.3l-3.3-6.1v-20.7c.2-2.6-18.1-.1-18.1-.1v6.9l-84.4-1.3-2.2-216.8-30.9-.2s1.9,200.2,1.8,214.9-10.6,24.2-25.3,24l-203.5-1.4c-38-.3-43.9,34.1-44,44.1,0,10,.6,124,.5,138.5s-5.8,16.6-10.6,16.6l-93.6-.7c-9,0-8.3-3.6-8.2-9.6v-19.5c0,0,22.7.2,22.7.2,12.1,0,26.8-28.5,26.8-35.7s.7-152.1.7-155,2.5-4.7,5.7-4.7,11.5.4,26.2.5,28.9-26.2,29-35.2-.8-132.2-.8-132.2l-39.7-.3s-.4,104.4-.5,115.3-8.6,10.9-12.9,10.8c-4.3,0-106.9.2-106.9.2,0,0,.7-25.2-1.2-37.5-1.8-12.4-23.5-37.7-23.5-37.7l45-67.1-61.2,12.1s-16.6,52.7-23.6,48.1c-4.4-2.9-38.5-1.4-43.9,1.4-5.3,2.9-2.4,1.5-5.4-3.4-2.9-4.9-18.2-51.6-18.2-51.6l-116.5-14.1.4.3Z"/>
            <path class="st2" d="M290.5-46.2l29.6,12s60.2,63.7,64.5,63.7,5.2,1,4.7,2.9,2.8,4.5-5,4.5-41.6-1.2-70.5-1.4-38.2,28.9-38.3,38.7v38.7h-12.1l-.3,43.9,13.5.3s-1,45.8-1.2,76,34.6,39.2,40.1,39.2h76.7c5.7,0,9,1.5,9,7s.5,23.8.5,36.8,23.3,23.9,36.9,26.6c-1.2.9-5.7,5.7-5.8,9.7v15.7c-.2,6.2-10.2,10.9-10.2,10.9l-10.4-.8v-14.2c.1,0-74-.5-74-.5l-.4,60.1,74.1.5.2-27.3h13.5c7.6.1,23.2-17.6,23.2-20.6s.3-10.7.4-19.5c0-8.8,11.5-16.1,16-16,4.5,0,16.4-.1,24.2,0,7.8,0,11.1,2.5,11.1,8.2s-1.1,119-1.2,132.8c0,13.8,1.3,11.9,6.6,11.9s87.4-.3,103.1-.2,17.6-.4,17.6-7,.8-40.4.8-48.9-3.8-7.2-10.4-7.2-50.8.4-68.6.2-23.9-16.6-23.8-27.5l.4-61.5h19.9c0,.1.6,10.1.5,33.4-.2,23.3,21.1,33.4,32.1,33.5s96,.4,122.1.6,43.1-20.8,43.2-34.9l.6-81.9s291.4.1,301.6.2c10.2,0,13.8,2.5,13.7,7.5s-1.6,130.4-1.7,137.3-.8,10.4-7.2,10.4-328.9.3-359.3.1-36.1,28-36.1,34.4l-.3,45.1-485,.9-1-532.4h-50l-1,532.5-142.2-.2-.3,40.8,414.4.7.2,57.1s-96.7-.2-104.4-.3-14.3,9.2-14.4,14.2l-.3,45c0,7.7,2.2,12.6,12.5,12.7l95.2.7c5.7,0,8.7.5,8.5,2.7-.1,2.1-4.5,2.6-8.3,2.6s-45.6,1.1-70.3.9c-24.7-.2-36.3,30.1-36.4,38.7s1.3,19.5,1.2,28c0,8.5-5.8,9-9.6,9s-7.1-.5-7.1-.5l-.3,43.2h16.1c0,0-.5,67.6-.5,67.6-.2,35.1,27.7,46.7,40,46.8,12.4,0,58.9,1.8,74.6.5s11.3,8.6,11.3,8.6c0,0-3,22.3,4,42.3,6.7,19.3,34.1,19.2,31.7,20.6s-5.4,83.6-5.4,83.6c0,0,2.8,1.9,16.2-.4,0-12.8,10.6-84,20.1-83.9l32.8.2s.3,82.7.3,86,24.7.2,24.7.2l-1.3-86.9h20.9c0,0,4.1,88.1,4.1,88.1l37.5,1.7-.8-89.8s7.6-.4,21.9-.3,30.6-26.4,30.7-42.5-.5-132.1-.5-138.2-.4-14.7-.4-14.7c0,0,7.1-.4,26.6-.3,19.5,0,36.8-25.9,36.9-46.8s-.3-233.7,0-256.5,1.6-21.4,15.8-21.3,13.3-.4,27.6-.3,17.6-.4,17.5,5.8.4,9.5.2,46.1c-.3,36.6,34.4,42,54.3,42.2,20,0,108.3.3,128.7.4s29.4,6.4,29.3,22.1c0,15.7-1.1,219.4-1.1,219.4l-19.1,15.5-207.6-1.5c-38.9-.3-46.7,26.3-46.9,50s-.3,202.1-.3,202.1l42.8.3.7-130.4s282.2,0,293.6.2c11.4,0,20.9-.8,20.8,11.5,0,5.2-1.3,136.6-1.3,136.6l43.7.3s-.2-122.8,0-155.6-33.5-33.5-61.5-33.7l-294-2.1s-1.3-16.6-1.2-26.1,7.2-11.3,17.7-11.3,311.1,3.1,358.1,3.5,52.5-31,52.6-50.9c0-20,1.9-71.7,1.9-71.7l130.6-.5s.4,7.6,1.2,34.2c-21.9,2.2-64.4,36.6-64.7,82.2-.3,45.6,52.2,80.6,79.2,80.8,27.1.2,50.4-13.9,50.4-13.9l25,26.8-160.5-1.1c-29.9-.2-37.3,31.6-37.3,38.2s-.6,100-.6,100l42.7.3.6-97.6s241.8,3.6,243.7,1.7c1.9-1.9-.2,27.1-.2,27.1l23.3.2.2-24.2,152,1.1-.2,23.7,41.8-.7s3.9-215.6,4-227-30.7-26.8-44.5-26.9-244.6-2.7-253.2-2.7-21.9,4.6-21.9,4.6c0,0-17.2,17.5-18.2,15.5-.9-1.9-19.4-8.2-19.4-8.2l.9-134.9v-19c0,0,82.3,2.5,125,2.8,42.8.3,46.3-31.5,46.4-50s-.4-80.3-.3-92.6c0-12.3,16.7-8.9,16.7-8.9l169.1,1.2s8-336.3.6-354.4-46.4-22.2-46.4-22.2l-255.5-1.8c-5.7,0-16.2,4.6-16.2,4.6l-16.3,15.1-22.7-11.6V-69.2l-41.1-.5s1.1,109.9,1,114c0,4-5.7,4-5.7,4l-127.5-.9-.5-117.3-42.5-.3s.2,227.5.2,234.1-3.1,6.9-5,6.9h-13.3l-3.3-6.1v-20.7c.2-2.6-18.1-.1-18.1-.1v6.9l-84.4-1.3-2.2-216.8-30.9-.2s1.9,200.2,1.8,214.9-10.6,24.2-25.3,24l-203.5-1.4c-38-.3-43.9,34.1-44,44.1,0,10,.6,124,.5,138.5s-5.8,16.6-10.6,16.6l-93.6-.7c-9,0-8.3-3.6-8.2-9.6v-19.5c0,0,22.7.2,22.7.2,12.1,0,26.8-28.5,26.8-35.7s.7-152.1.7-155,2.5-4.7,5.7-4.7,11.5.4,26.2.5,28.9-26.2,29-35.2-.8-132.2-.8-132.2l-39.7-.3s-.4,104.4-.5,115.3-8.6,10.9-12.9,10.8c-4.3,0-106.9.2-106.9.2,0,0,.7-25.2-1.2-37.5-1.8-12.4-23.5-37.7-23.5-37.7l45-67.1-61.2,12.1s-16.6,52.7-23.6,48.1c-4.4-2.9-38.5-1.4-43.9,1.4-5.3,2.9-2.4,1.5-5.4-3.4-2.9-4.9-18.2-51.6-18.2-51.6l-116.5-14.1.4.3Z"/>
            <path class="st9" d="M1170.8,90.3l-.6,79.8c0,16.6-13.1,43.1-38.8,43-25.6-.2-365.5.3-376.7.2-11.2,0-11.2,3-11.2,8.5s-.4,18.8-.4,22.3-1.7,5.7,9,5.8c10.7,0,284.3-.2,300.2,0,15.9.1,47.7,11.7,47.5,36.4s-.6,152-.6,155.1-.5,5.9,5.9,6c6.4,0,76.9,1.2,80.7,1.3s12.4-4.2,12.4-9.9l.7-96.9c0-7.8,6.5-41,39.9-40.8s158.4,3.7,157.4,2.3-27.4-27.3-27.4-27.3c0,0-29.5,12.1-49,12.5-19.5.3-78.2-22.9-77.8-79.9.4-57,60.4-81.8,60.9-83.7,1-13.3.7-33.2.7-33.2l-133-1.4h.2Z"/>
            <path class="st2" d="M1170.8,90.3l-.6,79.8c0,16.6-13.1,43.1-38.8,43-25.6-.2-365.5.3-376.7.2-11.2,0-11.2,3-11.2,8.5s-.4,18.8-.4,22.3-1.7,5.7,9,5.8c10.7,0,284.3-.2,300.2,0,15.9.1,47.7,11.7,47.5,36.4s-.6,152-.6,155.1-.5,5.9,5.9,6c6.4,0,76.9,1.2,80.7,1.3s12.4-4.2,12.4-9.9l.7-96.9c0-7.8,6.5-41,39.9-40.8s158.4,3.7,157.4,2.3-27.4-27.3-27.4-27.3c0,0-29.5,12.1-49,12.5-19.5.3-78.2-22.9-77.8-79.9.4-57,60.4-81.8,60.9-83.7,1-13.3.7-33.2.7-33.2l-133-1.4h.2Z"/>
            <path class="st9" d="M1472.1,343.2l-214.7-1.5c-15.2-.1-19.5,3.2-19.6,17.9,0,14.7.5,61.8.3,88.4s-23.1,44.5-42.1,44.4l-395.2-2.8s-1.2,31.3-1.2,37.5-2.9,12.3,9.9,12.4,289.3,0,323.5.4c34.2.2,36.8,33,36.7,43.5s-1.1,14.2,8.9,14.3l274.5,1.9c16.2,0,20.9-3.2,21-18.4l.7-99.3c0-11.9,10.1-20.8,10.2-28s2-84.1,2.1-98.3-6.6-12.4-15.1-12.5"/>
            <path class="st2" d="M1472.1,343.2l-214.7-1.5c-15.2-.1-19.5,3.2-19.6,17.9,0,14.7.5,61.8.3,88.4s-23.1,44.5-42.1,44.4l-395.2-2.8s-1.2,31.3-1.2,37.5-2.9,12.3,9.9,12.4,289.3,0,323.5.4c34.2.2,36.8,33,36.7,43.5s-1.1,14.2,8.9,14.3l274.5,1.9c16.2,0,20.9-3.2,21-18.4l.7-99.3c0-11.9,10.1-20.8,10.2-28s2-84.1,2.1-98.3-6.6-12.4-15.1-12.5h0Z"/>
            <path class="st9" d="M1108,582.5c-10,0-77.9,1.4-92.6,1.3s-13.8,7-13.9,11.3l-1.5,211.8c0,7.1,2.8,10.5,2.8,10.5l88.3.6s7.5,20,24.6,20.1c9,0,10.9-1.8,11-12.7,0-10.9-.4-218.5-.3-231.3s-8.5-11.5-18.4-11.5"/>
            <path class="st2" d="M1108,582.5c-10,0-77.9,1.4-92.6,1.3s-13.8,7-13.9,11.3l-1.5,211.8c0,7.1,2.8,10.5,2.8,10.5l88.3.6s7.5,20,24.6,20.1c9,0,10.9-1.8,11-12.7,0-10.9-.4-218.5-.3-231.3s-8.5-11.5-18.4-11.5h0Z"/>
            <path class="st9" d="M1170.7,640.4c-.5,0-1.8,55.1-1.9,66,0,10.9,1.3,11.9,9.4,11.9s105-.2,110.7-.2,12.3.6,12.4-6.1c0-6.7-.6-50.8-.5-60.8s-1.8-9.5-5.6-9.5-116.8-1.3-124.4-1.3"/>
            <path class="st2" d="M1170.7,640.4c-.5,0-1.8,55.1-1.9,66,0,10.9,1.3,11.9,9.4,11.9s105-.2,110.7-.2,12.3.6,12.4-6.1c0-6.7-.6-50.8-.5-60.8s-1.8-9.5-5.6-9.5-116.8-1.3-124.4-1.3h0Z"/>
            <path class="st9" d="M643.5,567.8c-8.1,0-191.9.6-209.5.9-1.4.5-1.7,107.3-1.7,107.3,0,0,6.7-2.3,29.9-2.2,42.8.3,72.8,44.7,72.7,58l-.3,39s95.5,2.1,107.3,2.2,11.9-4.7,12-14.2,1.7-171.9,1.7-181-4.2-10-12.3-10.1"/>
            <path class="st2" d="M643.5,567.8c-8.1,0-191.9.6-209.5.9-1.4.5-1.7,107.3-1.7,107.3,0,0,6.7-2.3,29.9-2.2,42.8.3,72.8,44.7,72.7,58l-.3,39s95.5,2.1,107.3,2.2,11.9-4.7,12-14.2,1.7-171.9,1.7-181-4.2-10-12.3-10.1h.2Z"/>
            <path class="st9" d="M372,743.6c-20,.3-38,.2-46.6.2s-11,8.5-11,13.7,1.1,114.5,1,125.9,3.2,11.9,8.5,11.9,56.5,1.3,66,1.4c9.5,0,9.5-2.3,9.6-9.4,0-7.1-1.5-52.3-2.3-74.6-14.2-10.5-25.4-42.5-25.2-69.1"/>
            <path class="st2" d="M372,743.6c-20,.3-38,.2-46.6.2s-11,8.5-11,13.7,1.1,114.5,1,125.9,3.2,11.9,8.5,11.9,56.5,1.3,66,1.4c9.5,0,9.5-2.3,9.6-9.4,0-7.1-1.5-52.3-2.3-74.6-14.2-10.5-25.4-42.5-25.2-69.1h0Z"/>
            <path class="st9" d="M511.2,812c-35.4,30.6-69,21.4-69,22.8l-.8,121.1c0,8.5,9.9,11,17,11s112.6-.2,118.3,0,16.2-3.7,16.3-15.1-.5-138.7-.5-138.7l-81.2-1h0Z"/>
            <path class="st2" d="M511.2,812c-35.4,30.6-69,21.4-69,22.8l-.8,121.1c0,8.5,9.9,11,17,11s112.6-.2,118.3,0,16.2-3.7,16.3-15.1-.5-138.7-.5-138.7l-81.2-1h0Z"/>
            <path class="st9" d="M1404.1,822s-7.2,8-9.6,9.4,10.3,28.1,10.1,43.8-9.8,39.8-9.8,39.8l53.3,54s174.3,2.6,191.9,2.8c17.6,0,15.2-4.6,15.3-12.2s.3-117.8.4-126.3c0-8.5-5.2-8.1-13.7-8.2-8.6,0-238-3.1-238-3.1"/>
            <path class="st2" d="M1404.1,822s-7.2,8-9.6,9.4,10.3,28.1,10.1,43.8-9.8,39.8-9.8,39.8l53.3,54s174.3,2.6,191.9,2.8c17.6,0,15.2-4.6,15.3-12.2s.3-117.8.4-126.3c0-8.5-5.2-8.1-13.7-8.2-8.6,0-238-3.1-238-3.1h0Z"/>
            <path class="st9" d="M1647.2,157.3l-240.8-1.7-8.6,8s10.8,24.8,10.6,45.2c0,20.4-10.2,37.5-10.2,37.5l57.6,56s178.1.8,190,.9,15.2-5.6,15.3-11.8c0-6.2-.6-115.9-.6-124.5s-3.3-9.5-13.2-9.6"/>
            <path class="st2" d="M1647.2,157.3l-240.8-1.7-8.6,8s10.8,24.8,10.6,45.2c0,20.4-10.2,37.5-10.2,37.5l57.6,56s178.1.8,190,.9,15.2-5.6,15.3-11.8c0-6.2-.6-115.9-.6-124.5s-3.3-9.5-13.2-9.6h-.1Z"/>
            <path class="st9" d="M1642.6,343.9l-124.4-.9c-7.6,0-9.5,1.4-9.6,7.1s.9,78.9.8,92.2c-1.5,9,7.6,6.7,12.3,6.7l125.9.9c12.3,0,11.9-4.7,12-11.8l.6-85c0-10.5-8-9.1-17.5-9.1"/>
            <path class="st2" d="M1642.6,343.9l-124.4-.9c-7.6,0-9.5,1.4-9.6,7.1s.9,78.9.8,92.2c-1.5,9,7.6,6.7,12.3,6.7l125.9.9c12.3,0,11.9-4.7,12-11.8l.6-85c0-10.5-8-9.1-17.5-9.1h-.1Z"/>
            <path class="st9" d="M589.9,145.6c-5.7,0-53.2.1-75-.5-13.4,20.3-59.1,25.2-69.5,21.8-2,14.7-1.7,106.4-1.8,116.8s3.2,13.8,9.4,13.8,105.4,1.2,125.4,1.4c20,.1,17.6-8,17.7-18.4,0-10.5-.6-114-.6-123.5s0-11.4-5.6-11.4"/>
            <path class="st2" d="M589.9,145.6c-5.7,0-53.2.1-75-.5-13.4,20.3-59.1,25.2-69.5,21.8-2,14.7-1.7,106.4-1.8,116.8s3.2,13.8,9.4,13.8,105.4,1.2,125.4,1.4c20,.1,17.6-8,17.7-18.4,0-10.5-.6-114-.6-123.5s0-11.4-5.6-11.4h0Z"/>
            <path class="st9" d="M330.1,76.4c-4.8,0-10.9.9-11,17l-.8,120.6c0,8.6-2,16.6,10.3,16.7s55.6.9,62.2.9,11.9-1.3,12-12.3v-72.2s-21.7-23.4-24-34.8-2.4-29-2.4-29c0,0,2.2-5.9-10.2-6.2-10.4-.3-31.3-.7-36.1-.7"/>
            <path class="st2" d="M330.1,76.4c-4.8,0-10.9.9-11,17l-.8,120.6c0,8.6-2,16.6,10.3,16.7s55.6.9,62.2.9,11.9-1.3,12-12.3v-72.2s-21.7-23.4-24-34.8-2.4-29-2.4-29c0,0,2.2-5.9-10.2-6.2-10.4-.3-31.3-.7-36.1-.7h0Z"/>
            <path class="st9" d="M1325.1,176.2c15.2,0,27.5,12.3,27.5,27.5s-12.3,27.5-27.5,27.5-27.5-12.3-27.5-27.5,12.3-27.5,27.5-27.5"/>
            <path class="st3" d="M1325.1,176.2c15.2,0,27.5,12.3,27.5,27.5s-12.3,27.5-27.5,27.5-27.5-12.3-27.5-27.5,12.3-27.5,27.5-27.5Z"/>
            <path class="st9" d="M456.7,59c15.2,0,27.5,12.3,27.5,27.5s-12.3,27.5-27.5,27.5-27.5-12.3-27.5-27.5,12.3-27.5,27.5-27.5"/>
            <path class="st3" d="M456.7,59c15.2,0,27.5,12.3,27.5,27.5s-12.3,27.5-27.5,27.5-27.5-12.3-27.5-27.5,12.3-27.5,27.5-27.5Z"/>
            <path class="st9" d="M451.2,722.2c15.2,0,27.5,12.3,27.5,27.5s-12.3,27.5-27.5,27.5-27.5-12.3-27.5-27.5,12.3-27.5,27.5-27.5"/>
            <path class="st3" d="M451.2,722.2c15.2,0,27.5,12.3,27.5,27.5s-12.3,27.5-27.5,27.5-27.5-12.3-27.5-27.5,12.3-27.5,27.5-27.5Z"/>
            <path class="st9" d="M1319.7,843.2c15.2,0,27.5,12.3,27.5,27.5s-12.3,27.5-27.5,27.5-27.5-12.3-27.5-27.5,12.3-27.5,27.5-27.5"/>
            <path class="st3" d="M1319.7,843.2c15.2,0,27.5,12.3,27.5,27.5s-12.3,27.5-27.5,27.5-27.5-12.3-27.5-27.5,12.3-27.5,27.5-27.5Z"/>
          </g>
          <path class="st7" d="M1320,644l3,146M1173,739h127M451,703c-36,0-52,31-52,51s16,52,47,52,56-24,56-45-11-58-51-58ZM421,835v126c0,18,17,30,34,30s97-3,114-3,45-20,45-44-2-123-2-123M409,577v101M374,724h-45c-16,0-40,8-40,28s2,119,2,130,2,36,38,36h69M778,493v43c0,8,7,25,31,25s282,2,300,2,35,1,35,18,1,234,2,242-3,36-40,36h-356s-30,9-30,38-3,204-3,204M742,939s278-1,289-1,42,2,42,37,1,125,1,125M1214,1094s1-47,1-66,8-38,32-38,388,4,395,4M1317,820c-32,0-49,32-49,55s18,53,48,53,62-28,62-59-36-49-61-49ZM1386,815s11-16,31-15,203,3,218,3,42,8,42,28v190M1175,619h273c21,0,49-5,49-36s-2-67-2-81,6-33,35-33,92,3,107,3,44,6,44-27,1-258,1-276-5-31-44-31-193-3-211-3c-28,0-40,14-40,14M1324,156c-34,0-54,22-54,48s12,58,49,58,56-36,56-58-17-48-51-48ZM1324-18V118M1150-33v176c0,15-3,51-34,51h-356c-24,0-42,18-42,42s3,87,3,111-13,42-36,42-65-2-82-2-36,0-36-14,1-35,1-35M748,274s263-4,281-4,49,10,49,36v140M679-11c0,33,2,79,2,97s-12,40-44,40h-101M616,150v123c0,22-1,45-35,45s-114-1-126-1-34,1-34-28-1-127-1-127M455,40c-29,0-46,26-46,51s26,52,46,52,56-15,56-47-27-56-56-56ZM378,61s-32-3-48-3-34,7-34,24,1,113,1,127,11,43,35,43,64-1,64-1M987-16c0,24,2,164,2,164M1175,68h126M1387,264l37,35M534,792s76,1,108,1,35-25,35-36-2-250-2-261,8-27,21-27,461-1,461-1c0,0,11.3-.3,24.6-.3,21.4,0,37.4-11.7,37.4-39.7v-67c0-11,1-37,38-37s398-2,398-2M0,548h651M142-4v531"/>
          <g>
            <path class="st11" d="M1960-25s-514-37-514,11,1,68,1,84,10,26.5,45,26.5,158.5,1,158.5,1c0,0,31.9.8,48.4.8s25.1,1.5,25.1,22.7,2.5,237,2.5,244,2.5,29,18.5,29h215V-25Z"/>
            <path class="st1" d="M1960-25s-514-37-514,11,1,68,1,84,10,26.5,45,26.5,158.5,1,158.5,1c0,0,31.9.8,48.4.8s25.1,1.5,25.1,22.7,2.5,237,2.5,244,2.5,29,18.5,29h215V-25Z"/>
          </g>
          <g>
            <path class="st15" d="M452.4,446v62.7c0,3.3-2.7,6-6,6h-242.4c-3.3,0-6-2.7-6-6v-62.7c0-3.3,2.7-6,6-6h242.4c3.3,0,6,2.7,6,6"/>
            <path class="st6" d="M452.4,446v62.7c0,3.3-2.7,6-6,6h-242.4c-3.3,0-6-2.7-6-6v-62.7c0-3.3,2.7-6,6-6h242.4c3.3,0,6,2.7,6,6Z"/>
          </g>
          <g>
            <path class="st15" d="M1012.4,324v62.7c0,3.3-2.7,6-6,6h-242.4c-3.3,0-6-2.7-6-6v-62.7c0-3.3,2.7-6,6-6h242.4c3.3,0,6,2.7,6,6"/>
            <path class="st6" d="M1012.4,324v62.7c0,3.3-2.7,6-6,6h-242.4c-3.3,0-6-2.7-6-6v-62.7c0-3.3,2.7-6,6-6h242.4c3.3,0,6,2.7,6,6Z"/>
          </g>
          <g>
            <path class="st15" d="M1638.9,880v62.7c0,3.3-2.7,6-6,6h-189.9c-3.3,0-6-2.7-6-6v-62.7c0-3.3,2.7-6,6-6h189.9c3.3,0,6,2.7,6,6"/>
            <path class="st6" d="M1638.9,880v62.7c0,3.3-2.7,6-6,6h-189.9c-3.3,0-6-2.7-6-6v-62.7c0-3.3,2.7-6,6-6h189.9c3.3,0,6,2.7,6,6Z"/>
          </g>
          <g>
            <path class="st15" d="M308.4,960v62.7c0,3.3-2.7,6-6,6H60c-3.3,0-6-2.7-6-6v-62.7c0-3.3,2.7-6,6-6h242.4c3.3,0,6,2.7,6,6"/>
            <path class="st6" d="M308.4,960v62.7c0,3.3-2.7,6-6,6H60c-3.3,0-6-2.7-6-6v-62.7c0-3.3,2.7-6,6-6h242.4c3.3,0,6,2.7,6,6h0Z"/>
          </g>
          <g>
            <path class="st15" d="M1810.4,14v62.7c0,3.3-2.7,6-6,6h-242.4c-3.3,0-6-2.7-6-6V14c0-3.3,2.7-6,6-6h242.4c3.3,0,6,2.7,6,6"/>
            <path class="st6" d="M1810.4,14v62.7c0,3.3-2.7,6-6,6h-242.4c-3.3,0-6-2.7-6-6V14c0-3.3,2.7-6,6-6h242.4c3.3,0,6,2.7,6,6Z"/>
          </g>
          <path d="M1763.8,61h6.4v-18.6h0l10.9,18.6h6v-31h-6.4v16.9h0l-9.8-16.9h-7.1v31ZM1744.9,61.1h7.7l8.5-31.1h-6.6l-5.2,21.7h0l-5.3-21.7h-7.4l8.4,31.1ZM1720.9,48.9l3.1-11.9h0l3.1,11.9h-6.4.1ZM1710.9,61h6.7l1.7-6.7h9.4l1.8,6.7h7.4l-8.9-31.1h-9l-9,31.1h0ZM1685.1,61h7.2v-12.6h8.7v12.6h7.2v-31h-7.2v12.1h-8.7v-12.1h-7.2v31ZM1665.6,55.2v-19.4h3.8c2.9,0,4.4,1.8,4.4,4.3v10.9c0,2.1-1.3,4.3-4.4,4.3h-3.9,0ZM1658.3,61h11.8c6,0,10.9-3,10.9-9.9v-11.8c0-6.4-4.8-9.3-10.9-9.3h-11.8v31ZM1638.9,44.3v-8.7h4.1c2.7,0,4,1.7,4,4.3s-1.4,4.4-4.2,4.4h-4,0ZM1631.6,61h7.2v-11.4h3.3l5,11.4h7.8l-6.3-12.7c3.7-1.4,5.4-4.7,5.4-8.8s-3.4-9.5-10.3-9.5h-12.2v31h0ZM1615.9,55.6c-3,0-4.5-1.7-4.5-4.6v-11c0-2.9,1.5-4.6,4.4-4.6s4.6,1.6,4.6,4.4v11.3c0,2.8-1.7,4.6-4.5,4.6M1615.8,61.5c6.2,0,11.8-3.2,11.8-10.7v-10.9c0-7.6-5.6-10.5-11.8-10.5s-11.7,3.5-11.7,10.7v10.9c0,7.6,5.4,10.5,11.7,10.5M1576.6,61h6.4v-18.6h0l10.9,18.6h6v-31h-6.4v16.9h0l-9.8-16.9h-7.1v31Z"/>
          <path d="M977.7,368.6c-3,0-4.5-1.7-4.5-4.6v-11c0-2.9,1.5-4.6,4.4-4.6s4.6,1.6,4.6,4.4v11.3c0,2.8-1.7,4.6-4.5,4.6M977.6,374.5c6.2,0,11.8-3.2,11.8-10.7v-10.9c0-7.6-5.6-10.5-11.8-10.5s-11.7,3.5-11.7,10.7v10.9c0,7.6,5.4,10.5,11.7,10.5M946.9,357.3v-8.7h4.1c2.7,0,4,1.7,4,4.4s-1.4,4.4-4.2,4.4h-4,.1ZM939.7,374h7.2v-11.4h3.3l5,11.4h7.8l-6.3-12.7c3.7-1.4,5.4-4.7,5.4-8.8s-3.4-9.5-10.3-9.5h-12.2v31h0ZM920.4,355.6v-7.2h4.4c2.1,0,3.5,1.2,3.5,3.4s-1.6,3.8-3.8,3.8h-4.2,0ZM920.4,368.4v-7.4h4.2c2.2,0,3.9,1.1,3.9,3.5s-1.4,3.9-3.6,3.9h-4.5ZM913.2,374h14c5.3,0,8.7-3.4,8.7-8.5s-2.1-6.5-5.5-7.3h0c3.1-1,5.2-3.9,5.2-7.5s-3.1-7.7-8.5-7.7h-13.8v31h-.1ZM893.8,357.3v-8.7h4.1c2.7,0,4,1.7,4,4.4s-1.4,4.4-4.2,4.4h-4,.1ZM886.5,374h7.2v-11.4h3.3l5,11.4h7.8l-6.3-12.7c3.7-1.4,5.4-4.7,5.4-8.8s-3.4-9.5-10.3-9.5h-12.2v31h0ZM862.5,374h20.1v-5.9h-12.9v-7h10.2v-5.8h-10.2v-6.5h12.8v-5.8h-20.1v31h.1ZM844.2,374h7.3v-25.3h8v-5.7h-23.3v5.7h8v25.3ZM823.2,374.5c5.9,0,11.5-3.3,11.5-9.8s-2.5-6.9-7-8.8l-3.1-1.3c-2.3-1-4.2-1.8-4.2-3.7s1.1-2.9,3.4-2.9,4.5,1.4,6.2,2.8l3.7-4.9c-2.7-2.4-6-3.4-9.7-3.4-6.6,0-10.7,4.4-10.7,9.5s2.2,6.7,6.3,8.4l4,1.7c2.3,1,3.6,1.8,3.6,3.7s-1.8,2.8-4.1,2.8-5.5-1.5-7.4-3l-3.7,5c3,2.8,6.8,3.8,11,3.8M797.9,368.6c-1.2,0-2.2-.3-2.9-.8l7.4-14.6v10.8c0,2.8-1.7,4.6-4.5,4.6M793.4,364v-11c0-2.9,1.5-4.6,4.4-4.6s2.3.3,3.1,1l-7.6,15.1v-.4h0ZM790.5,376.7l1.6-3.2c1.7.7,3.7,1,5.7,1,6.2,0,11.8-3.2,11.8-10.7v-10.9c0-3.6-1.3-6.1-3.2-7.8l1.7-3.4-2.7-1.2-1.6,3c-1.8-.8-3.9-1.1-6-1.1-6.4,0-11.7,3.5-11.7,10.7v10.9c0,3.8,1.3,6.4,3.4,8l-1.7,3.5,2.7,1.2Z"/>
          <path d="M1601.3,913.3v-8.7h4.1c2.7,0,4,1.7,4,4.3s-1.4,4.4-4.2,4.4h-4,0ZM1594.1,930h7.2v-11.4h3.3l5,11.4h7.8l-6.3-12.7c3.7-1.4,5.4-4.7,5.4-8.8s-3.4-9.5-10.3-9.5h-12.2v31h0ZM1570.1,930h20.1v-5.9h-12.9v-7h10.2v-5.8h-10.2v-6.5h12.8v-5.8h-20.1v31h0ZM1554.9,930.5c5.8,0,11.1-2.9,11.1-9v-8.5h-11.6v5.1h4.8v2.8c0,2.4-1.2,3.9-4.2,3.9s-4.5-1.8-4.5-4.6v-11.5c0-2.7,1.8-4.5,4.6-4.5s4.2,1.5,4.2,3.9v1.2h6.6v-2.1c0-6.1-5.4-8.7-11.1-8.7s-11.6,3.5-11.6,10.1v11.8c0,7.2,5.4,10.2,11.7,10.2M1524.8,917.9l3.1-11.9h0l3.1,11.9h-6.4.1ZM1514.9,930h6.7l1.7-6.7h9.4l1.8,6.7h7.4l-8.9-31.1h-9l-9.1,31.1ZM1484.3,930h6.3v-21.6h0l5.2,14.4h4.7l5.1-14.5h0v21.6h6.3v-31h-8.7l-4.9,13.4h0l-4.9-13.4h-9.3v31h.2ZM1464.7,917.9l3.1-11.9h0l3.1,11.9h-6.4.1ZM1454.7,930h6.7l1.7-6.7h9.4l1.8,6.7h7.4l-8.9-31.1h-9l-9,31.1h0Z"/>
          <path d="M417.5,488.6c-3,0-4.5-1.7-4.5-4.6v-11c0-2.9,1.5-4.6,4.4-4.6s4.6,1.6,4.6,4.4v11.3c0,2.8-1.7,4.6-4.5,4.6M417.5,494.5c6.2,0,11.8-3.2,11.8-10.7v-10.9c0-7.6-5.6-10.5-11.8-10.5s-11.7,3.5-11.7,10.7v10.9c0,7.6,5.4,10.5,11.7,10.5M386.8,477.3v-8.7h4.1c2.7,0,4,1.7,4,4.4s-1.4,4.4-4.2,4.4h-4,.1ZM379.5,494h7.2v-11.4h3.3l5,11.4h7.8l-6.3-12.7c3.7-1.4,5.4-4.7,5.4-8.8s-3.4-9.5-10.3-9.5h-12.2v31h.1ZM360.2,475.6v-7.2h4.4c2.1,0,3.5,1.2,3.5,3.4s-1.6,3.8-3.8,3.8h-4.2.1ZM360.2,488.4v-7.4h4.2c2.2,0,3.9,1.1,3.9,3.5s-1.4,3.9-3.6,3.9h-4.5ZM353.1,494h14c5.3,0,8.7-3.4,8.7-8.5s-2.1-6.5-5.5-7.3h0c3.1-1,5.2-3.9,5.2-7.5s-3.1-7.7-8.5-7.7h-13.8v31h-.1ZM329,494h20.1v-5.9h-12.9v-7h10.2v-5.8h-10.2v-6.5h12.8v-5.8h-20.1v31h.1ZM309.5,477.3v-8.7h4.1c2.7,0,4,1.7,4,4.4s-1.4,4.4-4.2,4.4h-4,.1ZM302.3,494h7.2v-11.4h3.3l5,11.4h7.8l-6.3-12.7c3.7-1.4,5.4-4.7,5.4-8.8s-3.4-9.5-10.3-9.5h-12.2v31h.1ZM282.8,477.3v-8.7h4.1c2.7,0,4,1.7,4,4.4s-1.4,4.4-4.2,4.4h-4,.1ZM275.6,494h7.2v-11.4h3.3l5,11.4h7.8l-6.3-12.7c3.7-1.4,5.4-4.7,5.4-8.8s-3.4-9.5-10.3-9.5h-12.2v31h.1ZM259.9,488.6c-1.2,0-2.2-.3-2.9-.8l7.4-14.6v10.8c0,2.8-1.7,4.6-4.5,4.6M255.3,484v-11c0-2.9,1.5-4.6,4.4-4.6s2.4.3,3.1,1l-7.6,15.1v-.4h0ZM252.5,496.7l1.6-3.2c1.7.7,3.7,1,5.7,1,6.2,0,11.8-3.2,11.8-10.7v-10.9c0-3.6-1.3-6.1-3.2-7.8l1.7-3.4-2.7-1.2-1.6,3c-1.8-.8-3.9-1.1-6-1.1-6.4,0-11.7,3.5-11.7,10.7v10.9c0,3.8,1.3,6.4,3.4,8l-1.7,3.5,2.7,1.2h0ZM220.6,494h6.4v-18.6h0l10.9,18.6h6v-31h-6.4v16.9h0l-9.8-16.9h-7.1v31h0Z"/>
          <path d="M281.8,1004.6c-3,0-4.5-1.7-4.5-4.6v-11c0-2.9,1.5-4.6,4.4-4.6s4.6,1.6,4.6,4.4v11.3c0,2.8-1.7,4.6-4.5,4.6M281.7,1010.5c6.2,0,11.8-3.2,11.8-10.7v-10.9c0-7.6-5.6-10.5-11.8-10.5s-11.7,3.5-11.7,10.7v10.9c0,7.6,5.4,10.5,11.7,10.5M251,993.3v-8.7h4.1c2.7,0,4,1.7,4,4.3s-1.4,4.4-4.2,4.4h-4,0ZM243.8,1010h7.2v-11.4h3.3l5,11.4h7.8l-6.3-12.7c3.7-1.4,5.4-4.7,5.4-8.8s-3.4-9.5-10.3-9.5h-12.2v31h.1ZM224.5,991.6v-7.2h4.4c2.1,0,3.5,1.2,3.5,3.3s-1.6,3.8-3.8,3.8h-4.2.1ZM224.5,1004.4v-7.4h4.2c2.2,0,3.9,1.1,3.9,3.5s-1.4,3.9-3.6,3.9h-4.5,0ZM217.3,1010h14c5.3,0,8.7-3.3,8.7-8.5s-2.1-6.5-5.5-7.3h0c3.1-1,5.2-3.9,5.2-7.5s-3.1-7.7-8.5-7.7h-13.8v31h0ZM197.8,993.3v-8.7h4.1c2.7,0,4,1.7,4,4.3s-1.4,4.4-4.2,4.4h-4,0ZM190.6,1010h7.2v-11.4h3.3l5,11.4h7.8l-6.3-12.7c3.7-1.4,5.4-4.7,5.4-8.8s-3.4-9.5-10.3-9.5h-12.2v31h.1ZM166.5,1010h20.1v-5.9h-12.9v-7h10.2v-5.8h-10.2v-6.5h12.8v-5.8h-20.1v31h0ZM148.3,1010h7.3v-25.3h8v-5.7h-23.3v5.7h8.1v25.3h-.1ZM127.3,1010.5c5.9,0,11.5-3.3,11.5-9.8s-2.5-6.9-7-8.8l-3.1-1.3c-2.3-1-4.2-1.8-4.2-3.7s1.1-2.9,3.4-2.9,4.5,1.4,6.2,2.8l3.7-4.9c-2.7-2.3-6-3.4-9.7-3.4-6.6,0-10.7,4.4-10.7,9.5s2.2,6.7,6.3,8.4l4,1.7c2.3,1,3.6,1.8,3.6,3.7s-1.8,2.8-4.1,2.8-5.5-1.5-7.4-3l-3.7,5c3,2.8,6.8,3.8,11.1,3.8M94.1,1010h20.1v-5.9h-12.9v-7h10.2v-5.8h-10.2v-6.5h12.8v-5.8h-20.1v31h0ZM75.2,1010.1h7.7l8.5-31.1h-6.6l-5.2,21.7h0l-5.3-21.7h-7.4l8.4,31.1Z"/>
        </g>
      </g>
      <rect id="trigger_1_-_nordhavn" class="st4" x="1497" y="105.4" width="136.7" height="63.2"/>
      <rect id="trigger_2_-_Østerbro" class="st4" x="849.8" y="432.9" width="136.7" height="63.2"/>
      <rect id="trigger_3_-_Nørrebro" class="st4" x="253.5" y="634.7" width="136.7" height="63.2"/>
      <rect id="trigger_4_-_vesterbro" class="st4" x="581.8" y="831" width="63.2" height="136.7"/>
      <rect id="trigger_5_-_Amager" class="st4" x="1466.5" y="767.8" width="136.7" height="63.2"/>
      <rect id="trigger_6_-_bonus_1" class="st4" x="112" y="5.4" width="63.2" height="136.7"/>
      <rect id="trigger_7_-_bonus_2" class="st4" x="1115.6" y="645.8" width="63.2" height="72.2"/>
    </g>
  </g>
  <g id="Layer_2_copy">
    <g id="Layer_2" class="st14">
      <rect class="st10" x="1126" y="543" width="42" height="337"/>
      <rect class="st10" x="697" y="838" width="471" height="42"/>
      <rect class="st10" x="697" y="838" width="41" height="243"/>
      <rect class="st10" x="698" y="919" width="395" height="40"/>
      <rect class="st10" x="1055" y="919" width="38" height="160"/>
      <rect class="st10" x="1059" y="251" width="38" height="201"/>
      <rect class="st10" x="702" y="251" width="395" height="39"/>
      <rect class="st10" x="700" y="172" width="44" height="235"/>
      <rect class="st10" x="547" y="370" width="197" height="37"/>
      <rect class="st10" x="547" y="300" width="39" height="85"/>
      <rect class="st10" x="404" y="300" width="232" height="39"/>
      <rect class="st10" x="596" y="105" width="40" height="223"/>
      <rect class="st10" x="404" y="-1" width="40" height="329"/>
      <rect class="st10" x="497" y="-1" width="40" height="76"/>
      <rect class="st10" x="661" y="-2" width="37" height="146"/>
      <rect class="st10" x="404" y="105" width="294" height="39"/>
      <rect class="st10" x="275" y="233" width="157" height="38"/>
      <rect class="st10" x="275" y="37" width="262" height="38"/>
      <rect class="st10" x="275" y="37" width="42" height="215"/>
      <rect class="st10" x="508" y="771" width="186" height="42"/>
      <rect class="st10" x="391" y="566" width="41" height="127"/>
      <rect class="st10" x="271" y="706" width="113" height="38"/>
      <rect class="st10" x="398" y="810" width="42" height="197"/>
      <rect class="st10" x="273" y="897" width="158" height="40"/>
      <rect class="st10" x="271" y="739" width="43" height="197"/>
      <rect class="st10" x="594" y="810" width="39" height="197"/>
      <rect class="st10" x="424" y="968" width="178" height="39"/>
      <path class="st10" d="M271,780h12v43h-12c-8.3,0-15-6.7-15-15v-13c0-8.3,6.7-15,15-15Z"/>
      <path class="st10" d="M287,628h113v70h-113c-8.3,0-15-6.7-15-15v-40c0-8.3,6.7-15,15-15Z"/>
      <rect class="st10" x="543" y="1005" width="37" height="88"/>
      <rect class="st10" x="498" y="1006" width="20" height="81"/>
      <rect class="st10" x="427.7" y="997.9" width="22.7" height="87.7" transform="translate(235.7 -70.3) rotate(12.5)"/>
      <rect class="st10" x="971" y="578" width="28" height="280"/>
      <path class="st10" d="M915,858h190v-23c0-8.3-6.7-15-15-15h-121l-54,38Z"/>
      <rect class="st10" x="1156" y="598" width="359" height="43"/>
      <rect class="st10" x="1303" y="623" width="40" height="177"/>
      <rect class="st10" x="1157" y="720" width="166" height="39"/>
      <rect class="st10" x="1476" y="451" width="39" height="168"/>
      <rect class="st10" x="1514" y="451" width="186" height="39"/>
      <rect class="st10" x="1201" y="304" width="501" height="37"/>
      <rect class="st10" x="1201" y="341" width="35" height="147"/>
      <rect class="st10" x="1488" y="341" width="21" height="117"/>
      <rect class="st10" x="1661" y="116" width="39" height="374"/>
      <rect class="st10" x="1389" y="116" width="295" height="40"/>
      <rect class="st10" x="1350.8" y="116.4" width="38.2" height="91.5" transform="translate(515.9 -921.1) rotate(45)"/>
      <polygon class="st10" points="1333.6 187.4 1305.5 215.5 1430.4 335.6 1458.5 307.5 1333.6 187.4"/>
      <rect class="st10" x="1305" y="-1" width="38" height="216"/>
      <rect class="st10" x="1129" y="49" width="191" height="41"/>
      <rect class="st10" x="1129" y="-1" width="40" height="212"/>
      <rect class="st10" x="700" y="172" width="469" height="39"/>
      <rect class="st10" x="974" y="-1" width="28" height="186"/>
      <polygon class="st10" points="948 185 1105 185 1105 152 974 152 948 185"/>
      <path class="st10" d="M1097,144h0c4.4,0,8,3.6,8,8v33h-16v-33c0-4.4,3.6-8,8-8Z"/>
      <rect class="st10" x="-.1" y="530" width="695.1" height="37.4"/>
      <rect class="st10" x="118.1" y="-4.3" width="49.8" height="558"/>
      <rect class="st10" x="655.6" y="447.7" width="39.7" height="365.3"/>
      <rect class="st10" x="656" y="448" width="580" height="42"/>
      <rect class="st10" x="760" y="542" width="407" height="39"/>
      <rect class="st10" x="760" y="448" width="38" height="115"/>
      <path class="st10" d="M453,670c-45.8,0-83,37.2-83,83s37.2,83,83,83,83-37.2,83-83-37.2-83-83-83ZM453,781c-15.5,0-28-12.5-28-28s12.5-28,28-28,28,12.5,28,28-12.5,28-28,28Z"/>
      <path class="st10" d="M1320,790c-45.8,0-83,37.2-83,83s37.2,83,83,83,83-37.2,83-83-37.2-83-83-83ZM1320,901c-15.5,0-28-12.5-28-28s12.5-28,28-28,28,12.5,28,28-12.5,28-28,28Z"/>
      <rect class="st10" x="502" y="338" width="21" height="154"/>
      <rect class="st10" x="502" y="431" width="123" height="61"/>
      <rect class="st10" x="339" y="366" width="71" height="57"/>
      <path class="st10" d="M466.3,337.8s-19.3,3.2-19.3,25.2c0,33,1,32.8-37.9,32.8s-18.1-15.8-18.1-15.8c0,0-5.9-.1,17.5-.1s22.5.1,22.5-18.9,11-23,11-23l24.3-.2Z"/>
      <rect class="st10" x="1656" y="787" width="39" height="252"/>
      <rect class="st10" x="1195.8" y="969" width="484" height="42" transform="translate(24.1 -34.1) rotate(1.4)"/>
      <rect class="st10" x="1194.9" y="963.7" width="37" height="123.3" transform="translate(24.9 -28.7) rotate(1.4)"/>
      <path class="st10" d="M1482,1007h19v21.5c0,5.2-4.3,9.5-9.5,9.5h0c-5.2,0-9.5-4.3-9.5-9.5v-21.5h0Z"/>
      <rect class="st10" x="1383" y="787" width="302" height="34"/>
      <rect class="st10" x="1365.7" y="795.8" width="38.2" height="33.9" transform="translate(980.3 -741.1) rotate(45)"/>
      <polygon class="st10" points="1376.1 898.9 1348 927 1428.4 1002.6 1456.5 974.5 1376.1 898.9"/>
    </g>
    <g id="Græs">
      <rect class="st9" x="0" width="1920" height="1080"/>
    </g>
    <g id="Vand">
      <g>
        <polygon class="st11" points="839 1109 839 658 1927 658 1927 1104 1723 1104 1723 703 884 703 884 1109 839 1109"/>
        <path class="st12" d="M1925,660v442h-200v-401h-843v406h-41v-447h1084M1929,656H837v455h49v-406h835v401h208v-450h0Z"/>
      </g>
      <g>
        <path class="st11" d="M1758.1,395c-17.7,0-32.1-14.4-32.1-32.1V110.4c0-7.4-6-13.4-13.4-13.4h-233.4c-17.7,0-32.2-14.4-32.2-32.2V-7h482v402h-170.9Z"/>
        <path class="st12" d="M1927-5v398h-168.9c-16.6,0-30.1-13.5-30.1-30.1V110.4c0-8.5-6.9-15.4-15.4-15.4h-233.4c-16.7,0-30.2-13.5-30.2-30.2V-5h478M1931-9h-486v73.8c0,18.8,15.3,34.2,34.2,34.2h233.4c6.3,0,11.4,5.1,11.4,11.4v252.4c0,18.8,15.3,34.1,34.1,34.1h172.9V-9h0Z"/>
      </g>
    </g>
    <g id="Veje">
      <g id="Veje1" data-name="Veje">
        <path class="st10" d="M541,1120v-111h-21v105h-24v-105h-36.1l-24.8,110.3-26-5.8,23.5-104.5h-36.6v-70h-95.4c-17.4,0-31.6-14.2-31.6-31.6v-82.5c-8.4-1-15-8.2-15-16.9v-13c0-8.7,6.6-15.9,15-16.9v-42c0-17.7,14.4-32.1,32.1-32.1h77.3c1.2-5.1,5-11.6,8.2-16h-99.6c-9.4,0-17-7.6-17-17v-28c0-9.4,7.6-17,17-17h102v-56.6H-2.1v-41.4h118.2V-33.3h53.8v561.3h483.8v-50.6c0-17.5,14.2-31.7,31.7-31.7h12.1v.3h359.6v-141.6c0-6.9-5.6-12.4-12.4-12.4h-298.6v78c0,21.5-17.5,39-38.9,39h-138.1c-13.2,0-24-10.8-24-24v-44h-14.6c-3,0-5.4,2.4-5.4,5.4v60.9c0,12,9.8,21.7,21.7,21.7h80.3v65h-127v-147.6c0-3-2.4-5.4-5.4-5.4h-32c-5.3,2.2-13.7,8-13.7,22v2.4c0,15.7,0,23.7-5.3,28.1-5,4.2-14,4.3-31.7,4.3v27.2h-75v-61h75v13.9c8.2,0,12.7-.2,14.7-2,2.1-1.9,2.3-6.9,2.3-14.9s1.4-15.8,4.2-20h-31.2v-68h-108c-11.6,0-21-9.4-21-21v-93c-1.7,0-3.2-.6-4.8-1.6-3.3-2.2-5.2-5.9-5.2-10v-23.7c0-4.1,2-7.8,5.2-10,1.5-1,3.1-1.6,4.8-1.6v-43.4c0-18.5,15.1-33.6,33.6-33.6h95.4V-30h44V35h36.1c7.1,0,12.9-5.8,12.9-12.9V-30h44V44.9c0,17.7-14.4,32.1-32.1,32.1h-60.9v26h199.9c7.2,0,13.1-5.9,13.1-13.1V-31h41V113.6c0,17.9-14.6,32.4-32.4,32.4h-29.6v195h-50v18.9c0,4.4,3.6,8.1,8.1,8.1h92.4c5.3,0,9.5-4.3,9.5-9.5v-156.2c0-17.8,14.5-32.3,32.3-32.3h227l14.7-18.7V-30h32v180h83.2c.9-4.6,5-8,9.8-8s.4,0,.7,0c5.2.3,9.3,4.8,9.3,10.3v17.7h20V-30h44V47h132V-30h42v187.2l42-42v-1.2h1.2l.5-.5.5.5h294.7c9.9,0,18,8.1,18,18v360h-177.5c-4.1,0-7.5,3.4-7.5,7.5v119.5c0,13.2-10.8,24-24,24h-148v148.8c7.5,2.3,14.6,5.6,21.1,9.8l16.1-16.1,55.8-.5h226.6c17.9,0,32.4,14.5,32.4,32.4v223.6h-43v-22.8l-151-3.6v13.9c0,6.3-5.2,11.5-11.5,11.5s-.5,0-.8,0c-6-.4-10.7-5.6-10.7-11.8v-14.1l-245.7-5.9-1.9,106.3-41-1,3-152.3,191.9,4.6-21.7-20.4c-13.4,8.3-28.8,12.6-44.6,12.6s-1.5,0-2.2,0c-21.7-.6-42.2-9.4-57.7-24.8-15.5-15.5-24.4-35.9-25-57.6-1.2-40.7,26.5-76.4,66-85.4v-29.1h-131v89c0,17.6-14.3,32-32,32h-384.7c-7.3,0-13.3,6-13.3,13.3v21.7h355v189h-42v-145h-313v147h-45v-239.1c0-18.1,14.8-32.9,32.9-32.9h214.9l25.6-18h.6v-217c0-9.9-8.1-18-18-18h-173c-11,0-20-9-20-20v-71h-48.2c-6.9,0-12.5,5.6-12.5,12.5v278.3c0,17.8-14.4,32.2-32.2,32.2h-30.2v194h-53v111h-41ZM1654,972.2v-136.2c0-7.2-5.8-13-13-13h-236.7l-9.6,9.6c6.7,12.4,10.2,26.3,10.2,40.4s-3.6,28.2-10.3,40.6l57.1,53.7,202.2,4.8ZM592,966v-151h-80.9c-15.8,14.8-36.4,23-58.1,23s-7.3-.2-11-.7v128.7h150ZM1320,847c-14.3,0-26,11.7-26,26s11.7,26,26,26,26-11.7,26-26-11.7-26-26-26ZM329,746c-7.2,0-13,5.9-13,13v122c0,7.7,6.3,14,14,14h66v-79c-17.8-16.1-28-39-28-63s0-4.6.3-7h-39.3ZM1124,836v-240c0-7.2-5.8-13-13-13h-94.9c-8.3,0-15.1,6.8-15.1,15.1v208.2c0,6.5,5.3,11.7,11.7,11.7h77.3c9.4,0,17,7.6,17,17v1h17ZM453,727c-14.3,0-26,11.7-26,26s11.7,26,26,26,26-11.7,26-26-11.7-26-26-26ZM640.4,769c7.3,0,13.2-5.9,13.2-13.2v-186.3h-219.6v100.7c6.2-1.4,12.6-2.1,19-2.1,46.9,0,85,38.1,85,85s-.5,10.7-1.5,16h103.9ZM1301,718v-75h-131v75h131ZM1465.3,596c4.8,0,8.7-3.9,8.7-8.7v-124.3c0-4.4,2-8.4,5.4-11.1,4.1-3.2,6.6-8.4,6.6-14v-77.1c0-9.9-8-17.9-17.9-17.9h-216.8c-7.4,0-13.3,6-13.3,13.3v102.7c0,18.2-14.8,33-33,33h-405v34.5c0,7.4,6,13.5,13.5,13.5h324.2c17.8,0,32.3,14.5,32.3,32.3v23.7h295.3ZM1659,449v-106h-130.1c-9.9,0-17.9,8-17.9,17.9v88.1h148ZM1185.9,446c7.2,0,13.1-5.9,13.1-13.1v-98c0-18.1,14.7-32.9,32.9-32.9h160.7l-88.4-85h-1.2v-1.1l-.4-.3.4-.4v-123.2h-132v89c0,17.6-14.3,32-32,32h-380c-7.2,0-13.1,5.9-13.1,13.1v22.9h320.8c17.8,0,32.2,14.5,32.2,32.2v164.8h86.9ZM1659,302v-136.6c0-4.1-3.3-7.4-7.4-7.4h-247.8l-48,48,99.8,96h203.3ZM446,289.7c0,4.6,3.7,8.3,8.3,8.3h131.7c4.4,0,8-3.6,8-8v-144h-148v143.7ZM332.4,77c-7.4,0-13.4,6-13.4,13.4v131.3c0,5.1,4.2,9.3,9.3,9.3h73.7V77h-69.6Z"/>
        <path d="M167.9-31.3v561.3h487.8v-52.6c0-16.4,13.3-29.7,29.7-29.7h10.1v.3h363.6v-143.6c0-8-6.5-14.4-14.4-14.4h-300.6v80h0c0,20.5-16.5,37-36.9,37h-138.1c-12.2,0-22-9.8-22-22v-46h-16.6c-4.1,0-7.4,3.3-7.4,7.4v60.9c0,13.1,10.6,23.7,23.7,23.7h78.3v61h-123v-145.6c0-4.1-3.3-7.4-7.4-7.4h-32.4c-5.7,2.3-15.3,8.5-15.3,24,0,32.6,1,32.8-36.5,32.8h-.5v27.2h-71v-57h71v13.9c20,0,21-.3,21-18.9s3.8-20.1,7-22h-34v-68h-110c-10.5,0-19-8.5-19-19v-95.1c-.5,0-1,.1-1.5.1-1.3,0-2.7-.3-4.2-1.3-2.8-1.8-4.3-5-4.3-8.4v-23.7c0-3.3,1.6-6.5,4.3-8.4,1.5-1,2.9-1.3,4.2-1.3.5,0,1,0,1.5.1v-45.5c0-17.5,14.2-31.6,31.6-31.6h97.4V-28h40V37h38.1c8.2,0,14.9-6.7,14.9-14.9V-28h40V44.9c0,16.6-13.5,30.1-30.1,30.1h-62.9v30h201.9c8.4,0,15.1-6.8,15.1-15.1V-29h37V113.6c0,16.8-13.6,30.4-30.4,30.4h-31.6v195h-50v20.9c0,5.6,4.5,10.1,10.1,10.1h92.4c6.4,0,11.5-5.2,11.5-11.5v-156.2c0-16.7,13.6-30.3,30.3-30.3h227.9l15.8-20V-28h28v180h87c0-4.4,3.6-8,8-8,.2,0,.4,0,.5,0,4.3.3,7.5,4,7.5,8.3v19.7h24V-28h40V49h136V-28h38v190l45.7-45.7.3.3v-.6h295c8.8,0,16,7.2,16,16v358h-175.5c-5.2,0-9.5,4.3-9.5,9.5v119.5c0,12.2-9.8,22-22,22h-150v152.3c8.4,2.4,16.3,6.1,23.3,10.9l16.7-16.7,55-.5h226.6c16.8,0,30.4,13.6,30.4,30.4v221.6h-39v-22.8l-155-3.7v16c0,5.2-4.3,9.5-9.5,9.5s-.4,0-.6,0c-5-.3-8.9-4.7-8.9-9.8v-16.1l-249.6-6-1.9,106.3-37-.9,3-148.3,195.1,4.7-26.6-25.1c-12.9,8.3-28.3,13.2-44.8,13.2s-1.4,0-2.2,0c-43.8-1.1-79.5-36.7-80.8-80.5-1.2-41.1,27.5-75.7,66-83.7v-32.7h-135v91c0,16.6-13.4,30-30,30h-384.7c-8.4,0-15.3,6.8-15.3,15.3v23.7h355v185h-38v-145h-317v147h-41v-237.1c0-17.1,13.8-30.9,30.9-30.9h215.5l25.6-18h2v-219c0-11.1-9-20-20-20h-173c-9.9,0-18-8.1-18-18v-73h-50.2c-8,0-14.5,6.5-14.5,14.5v278.3c0,16.7-13.5,30.2-30.2,30.2h-32.2v194h-53v111h-37v-111h-25v105h-20v-105h-39.7l-24.7,109.9-22.1-4.9,23.6-105h-37.1v-70h-97.4c-16.3,0-29.6-13.2-29.6-29.6v-84.4c-8.3,0-15-6.7-15-15v-13c0-8.3,6.7-15,15-15v-43.9c0-16.6,13.5-30.1,30.1-30.1h78.9v.9c0-5.9,7-16.9,10.9-20.9h-103.9c-8.3,0-15-6.7-15-15v-28c0-8.3,6.7-15,15-15h104v-60.6H-.1v-37.4h118.2V-31.3h49.8M328.3,233h75.7V75h-71.6c-8.5,0-15.4,6.9-15.4,15.4v131.3c0,6.2,5.1,11.3,11.3,11.3M744,251h322.8c16.7,0,30.2,13.5,30.2,30.2v166.8h88.9c8.3,0,15.1-6.8,15.1-15.1v-98c0-17.1,13.8-30.9,30.9-30.9h165.6l-92-88.5.5-.5h-1v-125h-136v91c0,16.5-13.4,30-30,30h-380c-8.3,0-15.1,6.7-15.1,15.1v24.9M454.3,300h131.7c5.5,0,10-4.5,10-10v-146h-152v145.7c0,5.7,4.6,10.3,10.3,10.3M1454.9,304h206.1v-138.6c0-5.2-4.2-9.4-9.4-9.4h-248.6l-50,50,101.9,98M1509,451h152v-110h-132.1c-11,0-19.9,8.9-19.9,19.9v90.1M813.5,542h324.2c16.8,0,30.3,13.6,30.3,30.3v25.7h297.3c5.9,0,10.7-4.8,10.7-10.7v-124.3c0-3.9,1.8-7.3,4.7-9.5,4.8-3.7,7.3-9.5,7.3-15.6v-77.1c0-11-8.9-19.9-19.9-19.9h-216.8c-8.5,0-15.3,6.9-15.3,15.3v102.7c0,17.1-13.9,31-31,31h-407v36.5c0,8.5,6.9,15.5,15.5,15.5M432,672.7c6.7-1.7,13.7-2.7,21-2.7,45.8,0,83,37.2,83,83s-.7,12.2-2,18h106.4c8.4,0,15.2-6.8,15.2-15.2v-188.3h-223.6v105.2M1012.7,820h77.3c8.3,0,15,6.7,15,15v3h21v-242c0-8.3-6.7-15-15-15h-94.9c-9.4,0-17.1,7.6-17.1,17.1v208.2c0,7.6,6.1,13.7,13.7,13.7M1168,720h135v-79h-135v79M453,781c15.5,0,28-12.5,28-28s-12.5-28-28-28-28,12.5-28,28,12.5,28,28,28M330,897h68v-81.9c-17.2-15.2-28-37.4-28-62.1s.2-6,.5-9h-41.5c-8.3,0-15,6.7-15,15v122c0,8.8,7.2,16,16,16M453,836c-4.4,0-8.8-.4-13-1v133h154v-155h-83.7c-14.9,14.2-35.1,23-57.3,23M1656,974.2v-138.3c0-8.3-6.7-15-15-15h-237.5l-11.2,11.2c6.8,12,10.7,26,10.7,40.8s-4,28.9-10.8,41l58.8,55.3,205,4.9M1320,901c15.5,0,28-12.5,28-28s-12.5-28-28-28-28,12.5-28,28,12.5,28,28,28M171.9-35.3h-57.8v561.3H-4.1v45.4h391.1v52.6h-100c-10.5,0-19,8.5-19,19v28c0,10.5,8.5,19,19,19h95.8c-2.4,3.7-4.7,8.1-5.9,12h-75.8c-18.8,0-34.1,15.3-34.1,34.1v40.4c-8.6,1.8-15,9.5-15,18.6v13c0,9.1,6.4,16.7,15,18.6v80.9c0,18.5,15.1,33.6,33.6,33.6h93.4v70h36.1l-22.5,100.1-.9,3.9,3.9.9,22.1,4.9,3.9.9.9-3.9,24-106.8h32.5v105h28v-105h17v111h45v-111h53v-194h28.2c18.9,0,34.2-15.3,34.2-34.2v-278.3c0-5.8,4.7-10.5,10.5-10.5h46.2v69c0,12.1,9.9,22,22,22h173c8.8,0,16,7.2,16,16v215.5l-.3.2-24.5,17.3h-214.3c-19.2,0-34.9,15.7-34.9,34.9v241.1h49v-147h309v145h46v-193h-355v-19.7c0-6.2,5.1-11.3,11.3-11.3h384.7c18.7,0,34-15.2,34-34v-87h127v25.6c-39.6,9.8-67.2,45.9-66,87,.6,22.2,9.7,43.2,25.6,59,15.9,15.8,36.9,24.8,59.1,25.4.8,0,1.5,0,2.3,0,15.7,0,30.9-4.2,44.3-12.2l16.8,15.8-184.6-4.4h-4c0,0,0,3.9,0,3.9l-3,148.3v4c0,0,3.9,0,3.9,0l37,.9h4c0,0,0-3.9,0-3.9l1.9-102.3,241.7,5.8v12.2c0,7.3,5.5,13.3,12.6,13.8.3,0,.6,0,.9,0,7.4,0,13.5-6.1,13.5-13.5v-11.9l147,3.5v22.9h47v-225.6c0-19-15.4-34.4-34.4-34.4h-226.6l-55,.5h-1.6s-1.2,1.2-1.2,1.2l-14.4,14.4c-5.9-3.6-12.2-6.6-18.8-8.7v-145.3h146c14.3,0,26-11.7,26-26v-119.5c0-3,2.5-5.5,5.5-5.5h179.5V132c0-11-9-20-20-20h-293.9l-1.4-1.4-1.4,1.4h-2.3v2.3l-38,38V-32h-46V45h-128V-32h-48v200h-16v-15.7c0-6.5-4.9-11.8-11.2-12.2-.3,0-.5,0-.8,0-3.2,0-6.2,1.2-8.5,3.5-1.3,1.3-2.2,2.8-2.8,4.5h-79.7V-32h-36v182.6l-13.7,17.4h-226c-18.9,0-34.3,15.4-34.3,34.3v156.2c0,4.1-3.4,7.5-7.5,7.5h-92.4c-3.3,0-6.1-2.7-6.1-6.1v-16.9h50v-195h27.6c19,0,34.4-15.4,34.4-34.4V-33h-45v122.9c0,6.1-5,11.1-11.1,11.1h-197.9v-22h58.9c18.8,0,34.1-15.3,34.1-34.1V-32h-48V22.1c0,6-4.9,10.9-10.9,10.9h-34.1V-32h-48V33h-93.4c-19.6,0-35.6,16-35.6,35.6v41.7c-1.3.3-2.6.9-3.9,1.7-3.8,2.6-6.1,6.9-6.1,11.7v23.7c0,4.8,2.3,9.1,6.1,11.7,1.2.8,2.5,1.4,3.9,1.7v91.3c0,12.7,10.3,23,23,23h106v68h29.9c-1.9,4.4-2.9,10.5-2.9,18s-.1,12.1-1.6,13.4c-1.4,1.2-5.8,1.4-11.4,1.5v-13.9h-79v65h79v-27.2c16.9,0,25.6-.3,31-4.8,6-5,6-13.8,6-29.6v-2.4c0-12,6.4-17.5,12.1-20h31.6c1.9,0,3.4,1.5,3.4,3.4v149.6h131v-69h-82.3c-10.9,0-19.7-8.9-19.7-19.7v-60.9c0-1.9,1.5-3.4,3.4-3.4h12.6v42c0,14.3,11.7,26,26,26h138.1c22.6,0,40.9-18.4,40.9-40.9h0v-76.1h296.6c5.8,0,10.4,4.7,10.4,10.4v139.6h-355.6v-.3h-14.1c-18.6,0-33.7,15.1-33.7,33.7v48.6H171.9V-35.3h0ZM328.3,229c-4,0-7.3-3.3-7.3-7.3V90.4c0-6.3,5.1-11.4,11.4-11.4h67.6v150h-71.7ZM1173,94h128v120.3l-1.2,1.2,1.2,1.2v2.3h2.4l84.2,81h-155.7c-19.2,0-34.9,15.6-34.9,34.9v98c0,6.1-5,11.1-11.1,11.1h-84.9v-162.8c0-18.9-15.4-34.2-34.2-34.2h-318.8v-20.9c0-6.1,5-11.1,11.1-11.1h380c18.7,0,34-15.2,34-34v-87h0ZM448,148h144v142c0,3.3-2.7,6-6,6h-131.7c-3.5,0-6.3-2.8-6.3-6.3v-141.7h0ZM1404.7,160h247c3,0,5.4,2.4,5.4,5.4v134.6h-200.5l-97.8-94,46-46h0ZM1513,447v-86.1c0-8.8,7.1-15.9,15.9-15.9h128.1v102h-144ZM802,494h403c19.3,0,35-15.7,35-35v-102.7c0-6.3,5.1-11.3,11.3-11.3h216.8c8.8,0,15.9,7.1,15.9,15.9v77.1c0,5-2.2,9.6-5.8,12.4-4,3.1-6.2,7.7-6.2,12.7v124.3c0,3.7-3,6.7-6.7,6.7h-293.3v-21.7c0-18.9-15.4-34.3-34.3-34.3h-324.2c-6.3,0-11.5-5.1-11.5-11.5v-32.5h0ZM436,571.4h215.6v184.3c0,6.2-5,11.2-11.2,11.2h-101.5c.8-4.6,1.1-9.3,1.1-14,0-48-39-87-87-87s-11.4.6-17,1.7v-96.2h0ZM1012.7,816c-5.4,0-9.7-4.4-9.7-9.7v-208.2c0-7.2,5.9-13.1,13.1-13.1h94.9c6.1,0,11,4.9,11,11v238h-13c-.5-10-8.8-18-19-18h-77.3ZM1172,645h127v71h-127v-71h0ZM453,777c-13.2,0-24-10.8-24-24s10.8-24,24-24,24,10.8,24,24-10.8,24-24,24h0ZM330,893c-6.6,0-12-5.4-12-12v-122c0-6.1,5-11,11-11h37.1c0,1.7-.1,3.4-.1,5,0,24.3,10.2,47.5,28,63.9v76.1h-64ZM511.9,817h78.1v147h-146v-124.5c3,.3,6,.5,9,.5,21.9,0,42.8-8.2,58.9-23h0ZM1405.1,825h235.9c6.1,0,11,4.9,11,11v134.2l-199.4-4.8-55.5-52.2c6.4-12.4,9.8-26.2,9.8-40.2s-3.4-27.7-9.8-40.1l7.9-7.9h0ZM1320,897c-13.2,0-24-10.8-24-24s10.8-24,24-24,24,10.8,24,24-10.8,24-24,24h0Z"/>
      </g>
      <ellipse class="st5" cx="452.5" cy="754.5" rx="57.5" ry="58.5"/>
      <ellipse class="st5" cx="1319.5" cy="875.5" rx="57.5" ry="58.5"/>
      <line class="st8" x1="-15" y1="546" x2="637" y2="546"/>
      <path class="st8" d="M1658,320s-362,2-405,2-33,34-33,34c0,0-2-17-2,54s-34,60-34,60h-473c-40,0-38,31-38,31v269s4,19-29,19h-117"/>
      <path class="st8" d="M777,496v31c0,37,7,36,31,36h298c24,0,40,2,40,28s-2,205-2,229-4,40-33,40h-350c-27,0-46-1-46,48v190.2"/>
      <path class="st8" d="M1075,440v-141c0-26-8-28-29-28h-300"/>
      <polyline class="st8" points="1211 1093 1215 981 1649 993"/>
      <line class="st8" x1="142" y1="-19" x2="142" y2="521"/>
      <path class="st8" d="M1172,616h287c33,0,35-1,35-38s2-55,2-80-1-29,31-29,150-1,150-1V160c0-20,3-27-23-27s-259-1-259-1l-47,47"/>
      <line class="st8" x1="1298" y1="69" x2="1169" y2="68"/>
      <path class="st8" d="M1147-14s1,142,1,169-1,37-29,38-338-2-365-2-30,7-29,41-2,103-3,124,0,33-34,33-81,0-103,0-19-3-19-31"/>
      <polygon class="st8" points="421 316 613 314 612 122 423 122 421 316"/>
      <path class="st8" d="M639,122c31-2,40,3,38-40-2.5-53,0-97,0-97"/>
      <path class="st8" d="M516-14s-1,19-1,39,0,31-33,31-127,1-148,1-37,4-37,34,1,121,1,137,0,24,27,24"/>
      <path class="st8" d="M371,726h-45c-21,0-31,2-33,33s0,115,1,133-1,27,36,26,62-1,62-1"/>
      <polyline class="st8" points="418 837 417 986 607 984 609 814"/>
      <polyline class="st8" points="1322 -15 1325 205 1416 295"/>
      <path class="st8" d="M1673,1023s0-81,0-145,0-75-45-75h-234l-14,15"/>
      <line class="st8" x1="1318" y1="644" x2="1320" y2="787"/>
      <polyline class="st8" points="1071 1088 1070 939 744 939"/>
      <line class="st8" x1="1171" y1="734" x2="1297" y2="734"/>
      <line class="st8" x1="410" y1="573" x2="410" y2="676"/>
    </g>
  </g>
</svg>