<?xml version="1.0" encoding="UTF-8"?><svg id="Layer_1" xmlns="http://www.w3.org/2000/svg" width="2098.28" height="1344.44" viewBox="0 0 2098.28 1344.44"><g id="Group_1"><g id="hovedvej"><path id="Shape_1" d="M420.21,89.65l31.26,12.41s63.82,66.58,68.32,66.58,5.5,1,5,3,3,4.75-5.25,4.75-43.75-1-74.25-1-40,30.75-40,41,.25,40.75.25,40.75h-12.75v46.25l14.25.25s-.75,48.25-.75,80,36.75,41,42.5,41,74.75-.5,80.75-.5,9.5,1.5,9.5,7.25.75,25,.75,38.75,24.75,25,39,27.75c-1.25,1-6,6-6,10.25v16.5c0,6.5-10.5,11.5-10.5,11.5l-11-.75v-15h-78v63.25h78v-28.75h14.25c8,0,24.25-18.75,24.25-22s.25-11.25.25-20.5,12-17,16.75-17,17.25-.25,25.5-.25,11.75,2.5,11.75,8.5-.25,125.25-.25,139.75,1.5,12.5,7,12.5,92-1,108.5-1,18.5-.5,18.5-7.5.5-42.5.5-51.5-4-7.5-11-7.5-53.5.75-72.25.75-25.25-17.25-25.25-28.75v-64.75h21s.75,10.5.75,35,22.5,35,34,35,101-.25,128.5-.25,45.25-22.25,45.25-37v-86.25s306.75-2,317.5-2,14.5,2.5,14.5,7.75-.75,137.25-.75,144.5-.75,11-7.5,11-346.25,2.75-378.25,2.75-37.75,29.75-37.75,36.5v47.5l-510.51,4.55-4.97-560.36-52.63.43,2.87,560.42-149.73.79v43l436.22-2.34.62,60.13s-101.75.5-109.88.5-15,9.75-15,15v47.38c0,8.12,2.38,13.25,13.25,13.25h100.25c6,0,9.12.5,9,2.75-.12,2.25-4.75,2.75-8.75,2.75s-48,1.5-74,1.5-38,32-38,41,1.5,20.5,1.5,29.5-6,9.5-10,9.5-7.5-.5-7.5-.5v45.5h17v71c0,37,29.5,49,42.5,49s62,1.5,78.5,0c16.5-1.5,12,9,12,9,0,0-3,23.5,4.5,44.5,7.22,20.22,36,20,33.5,21.5-2.5,1.5-5.03,88-5.03,88,0,0,3,2,17-.5,0-13.5,10.53-88.5,20.53-88.5h34.5s.97,87,.97,90.5,26,0,26,0l-1.97-91.5h22l4.97,92.5,39.5,1.5-1.47-94.5s8-.5,23-.5,32-28,32-45-1.5-139-1.5-145.5-.5-15.5-.5-15.5c0,0,7.5-.5,28-.5s38.5-27.5,38.5-49.5-2-246-2-270,1.5-22.5,16.5-22.5,14-.5,29-.5,18.5-.5,18.5,6,.5,10,.5,48.5,36.5,44,57.5,44,114-.5,135.5-.5,31,6.5,31,23,.5,231,.5,231l-20,16.5h-218.5c-41,0-49,28-49,53s1.17,212.72,1.17,212.72h45l-.17-137.22s297-2,309-2,22-1,22,12c0,5.5-.4,143.79-.4,143.79h46s-1.1-129.29-1.1-163.79-35.5-35-65-35h-309.5s-1.5-17.5-1.5-27.5,7.5-12,18.5-12,327.5,1,377,1,55-33,55-54,1.5-75.5,1.5-75.5l137.5-1.5s.5,8,1.5,36c-23,2.5-67.5,39-67.5,87s55.5,84.5,84,84.5,53-15,53-15l26.5,28h-169c-31.5,0-39,33.5-39,40.5s.1,105.29.1,105.29h45l-.09-102.79s254.5,2,256.5,0c2-2,0,28.5,0,28.5h24.5v-25.5h160v25l44-1s2.5-227,2.5-239-32.5-28-47-28-257.5-1-266.5-1-23,5-23,5c0,0-18,18.5-19,16.5-1-2-20.5-8.5-20.5-8.5v-162s86.5,2,131.5,2,48.5-33.5,48.5-53-1-84.5-1-97.5,17.5-9.5,17.5-9.5h178s6-354-2-373c-8-19-49-23-49-23h-269c-6,0-17,5-17,5l-17,16-24-12-1.43-201.21-43.25-.25s1.93,115.71,1.93,119.96-6,4.25-6,4.25h-134.25l-1.43-123.46h-44.75s1.93,239.46,1.93,246.46-3.25,7.25-5.25,7.25h-14l-3.5-6.25v-21.75c0-2.75-19.25,0-19.25,0v7.25l-88.75-.75-3.93-228.21h-32.5s3.43,210.71,3.43,226.21-11,25.5-26.5,25.5h-214.25c-40,0-46,36.25-46,46.75s1.5,130.5,1.5,145.75-6,17.5-11,17.5h-98.5c-9.5,0-8.75-3.75-8.75-10v-20.5h23.75c12.75,0,28-30.25,28-37.75s-.37-160.12-.37-163.12,2.62-5,6-5,12.13.38,27.62.38,30.25-27.75,30.25-37.25-1.82-139.14-1.82-139.14h-41.75s.32,109.89.32,121.39-9,11.5-13.5,11.5-112.5,1-112.5,1c0,0,.5-26.5-1.5-39.5-2-13-25-39.5-25-39.5l46.82-70.97-64.29,13.21s-17.04,55.62-24.5,50.84c-4.65-2.97-40.57-1.24-46.16,1.84s-2.56,1.63-5.69-3.55-19.49-54.13-19.49-54.13l-122.76-13.98Z" style="fill:#ababab; stroke:#0f0f0f; stroke-width:4px;"/></g><g id="Shape_Layer_2"><path id="Shape_1-2" d="M1347.78,226.89v84c0,17.5-13.5,45.5-40.5,45.5s-384.75,3-396.5,3-11.75,3.25-11.75,9-.25,19.75-.25,23.5-1.75,6,9.5,6,299.25-2.25,316-2.25,50.25,12,50.25,38,.5,160,.5,163.25-.5,6.25,6.25,6.25,81,.75,85,.75,13-4.5,13-10.5v-102c0-8.25,6.5-43.25,41.75-43.25s166.75,2.75,165.75,1.25c-1-1.5-29-28.5-29-28.5,0,0-31,13-51.5,13.5s-82.5-23.5-82.5-83.5,63-86.5,63.5-88.5c1-14,.5-35,.5-35l-140-.5Z" style="fill:#90cb5f; stroke:#0f0f0f; stroke-width:4px;"/></g><g id="Shape_Layer_5"><path id="Shape_1-3" d="M1666.78,490.89h-226c-16,0-20.5,3.5-20.5,19s1,65,1,93-24,47-44,47h-416s-1,33-1,39.5-3,13,10.5,13,304.5-2,340.5-2,39,34.5,39,45.5-1,15,9.5,15h289c17,0,22-3.5,22-19.5v-104.5c0-12.5,10.5-22,10.5-29.5s1.5-88.5,1.5-103.5-7-13-16-13Z" style="fill:#90cb5f; stroke:#0f0f0f; stroke-width:4px;"/></g><g id="Shape_Layer_6"><path id="Shape_1-4" d="M1285.28,745.39c-10.5,0-82,2-97.5,2s-14.5,7.5-14.5,12v223c0,7.5,3,11,3,11h93s8,21,26,21c9.5,0,11.5-2,11.5-13.5s-2-230-2-243.5-9-12-19.5-12Z" style="fill:#90cb5f; stroke:#0f0f0f; stroke-width:4px;"/></g><g id="Shape_Layer_7"><path id="Shape_1-5" d="M1351.78,805.89c-.5,0-1.5,58-1.5,69.5s1.5,12.5,10,12.5,110.5-1,116.5-1,13,.5,13-6.5-1-53.5-1-64-2-10-6-10-123-.5-131-.5Z" style="fill:#90cb5f; stroke:#0f0f0f; stroke-width:4px;"/></g><g id="Shape_Layer_8"><path id="Shape_1-6" d="M796.28,733.39c-8.5,0-202,2-220.5,2.5-1.5.5-1,113-1,113,0,0,7-2.5,31.5-2.5,45.07,0,77,46.5,77,60.5v41s100.5,1.5,113,1.5,12.5-5,12.5-15,.5-181,.5-190.5-4.5-10.5-13-10.5Z" style="fill:#90cb5f; stroke:#0f0f0f; stroke-width:4px;"/></g><g id="Shape_Layer_9"><path id="Shape_1-7" d="M511.78,920.39c-21,.5-40,.5-49,.5s-11.5,9-11.5,14.5,2,120.5,2,132.5,3.5,12.5,9,12.5,59.5,1,69.5,1,10-2.5,10-10-2-55-3-78.5c-15-11-27-44.5-27-72.5Z" style="fill:#90cb5f; stroke:#0f0f0f; stroke-width:4px;"/></g><g id="Shape_Layer_110"><path id="Shape_1-8" d="M658.78,991.39c-37,32.5-72.5,23-72.5,24.5v127.5c0,9,10.5,11.5,18,11.5s118.5-1,124.5-1,17-4,17-16-1.5-146-1.5-146l-85.5-.5Z" style="fill:#90cb5f; stroke:#0f0f0f; stroke-width:4px;"/></g><g id="Shape_Layer_111"><path id="Shape_1-9" d="M1598.78,995.39s-7.5,8.5-10,10,11,29.5,11,46-10,42-10,42l56.5,56.5s183.5,1.5,202,1.5,16-5,16-13-.5-124-.5-133-5.5-8.5-14.5-8.5-250.5-1.5-250.5-1.5Z" style="fill:#90cb5f; stroke:#0f0f0f; stroke-width:4px;"/></g><g id="Shape_Layer_112"><path id="Shape_1-10" d="M1849.78,293.89h-253.5l-9,8.5s11.5,26,11.5,47.5-10.5,39.5-10.5,39.5l61,58.5s187.5-.5,200-.5,16-6,16-12.5-1.5-122-1.5-131-3.5-10-14-10Z" style="fill:#90cb5f; stroke:#0f0f0f; stroke-width:4px;"/></g><g id="Shape_Layer_113"><path id="Shape_1-11" d="M1846.28,490.39h-131c-8,0-10,1.5-10,7.5s1.5,83,1.5,97c-1.5,9.5,8,7,13,7h132.5c13,0,12.5-5,12.5-12.5v-89.5c0-11-8.5-9.5-18.5-9.5Z" style="fill:#90cb5f; stroke:#0f0f0f; stroke-width:4px;"/></g><g id="Shape_Layer_4"><path id="Shape_1-12" d="M736.78,289.39c-6,0-56,.5-79,0-14,21.5-62,27-73,23.5-2,15.5-1,112-1,123s3.5,14.5,10,14.5,111,.5,132,.5,18.5-8.5,18.5-19.5-1.5-120-1.5-130,0-12-6-12Z" style="fill:#90cb5f; stroke:#0f0f0f; stroke-width:4px;"/></g><g id="Shape_Layer_3"><path id="Shape_1-13" d="M462.78,218.39c-5,0-11.5,1-11.5,18v127c0,9-2,17.5,11,17.5s58.5.5,65.5.5,12.5-1.5,12.5-13-.5-76-.5-76c0,0-23-24.5-25.5-36.5s-2.75-30.5-2.75-30.5c0,0,2.25-6.25-10.75-6.5-11-.21-33-.5-38-.5Z" style="fill:#90cb5f; stroke:#0f0f0f; stroke-width:4px;"/></g><g id="hul1"><circle id="Ellipse_1" cx="1519.28" cy="338.89" r="30.06" style="fill:#90cb5f; stroke:#0f0f0f; stroke-width:4px;"/></g><g id="hul2"><circle id="Ellipse_1-2" cx="1519.28" cy="338.89" r="30.06" style="fill:#90cb5f; stroke:#0f0f0f; stroke-width:4px;"/></g><g id="hul3"><circle id="Ellipse_1-3" cx="1519.28" cy="338.89" r="30.06" style="fill:#90cb5f; stroke:#0f0f0f; stroke-width:4px;"/></g><g id="hul4"><circle id="Ellipse_1-4" cx="1519.28" cy="338.89" r="30.06" style="fill:#90cb5f; stroke:#0f0f0f; stroke-width:4px;"/></g></g><g id="Group_1-2"><rect id="Rectangle_1" width="2098.28" height="1344.44" style="fill:#90cb5f; stroke:red;"/><g id="hovedvej-2"><path id="Shape_1-14" d="M420.21,89.65l31.26,12.41s63.82,66.58,68.32,66.58,5.5,1,5,3,3,4.75-5.25,4.75-43.75-1-74.25-1-40,30.75-40,41,.25,40.75.25,40.75h-12.75v46.25l14.25.25s-.75,48.25-.75,80,36.75,41,42.5,41,74.75-.5,80.75-.5,9.5,1.5,9.5,7.25.75,25,.75,38.75,24.75,25,39,27.75c-1.25,1-6,6-6,10.25v16.5c0,6.5-10.5,11.5-10.5,11.5l-11-.75v-15h-78v63.25h78v-28.75h14.25c8,0,24.25-18.75,24.25-22s.25-11.25.25-20.5,12-17,16.75-17,17.25-.25,25.5-.25,11.75,2.5,11.75,8.5-.25,125.25-.25,139.75,1.5,12.5,7,12.5,92-1,108.5-1,18.5-.5,18.5-7.5.5-42.5.5-51.5-4-7.5-11-7.5-53.5.75-72.25.75-25.25-17.25-25.25-28.75v-64.75h21s.75,10.5.75,35,22.5,35,34,35,101-.25,128.5-.25,45.25-22.25,45.25-37v-86.25s306.75-2,317.5-2,14.5,2.5,14.5,7.75-.75,137.25-.75,144.5-.75,11-7.5,11-346.25,2.75-378.25,2.75-37.75,29.75-37.75,36.5v47.5l-510.51,4.55-4.97-560.36-52.63.43,2.87,560.42-149.73.79v43l436.22-2.34.62,60.13s-101.75.5-109.88.5-15,9.75-15,15v47.38c0,8.12,2.38,13.25,13.25,13.25h100.25c6,0,9.12.5,9,2.75-.12,2.25-4.75,2.75-8.75,2.75s-48,1.5-74,1.5-38,32-38,41,1.5,20.5,1.5,29.5-6,9.5-10,9.5-7.5-.5-7.5-.5v45.5h17v71c0,37,29.5,49,42.5,49s62,1.5,78.5,0c16.5-1.5,12,9,12,9,0,0-3,23.5,4.5,44.5,7.22,20.22,36,20,33.5,21.5-2.5,1.5-5.03,88-5.03,88,0,0,3,2,17-.5,0-13.5,10.53-88.5,20.53-88.5h34.5s.97,87,.97,90.5,26,0,26,0l-1.97-91.5h22l4.97,92.5,39.5,1.5-1.47-94.5s8-.5,23-.5,32-28,32-45-1.5-139-1.5-145.5-.5-15.5-.5-15.5c0,0,7.5-.5,28-.5s38.5-27.5,38.5-49.5-2-246-2-270,1.5-22.5,16.5-22.5,14-.5,29-.5,18.5-.5,18.5,6,.5,10,.5,48.5,36.5,44,57.5,44,114-.5,135.5-.5,31,6.5,31,23,.5,231,.5,231l-20,16.5h-218.5c-41,0-49,28-49,53s1.17,212.72,1.17,212.72h45l-.17-137.22s297-2,309-2,22-1,22,12c0,5.5-.4,143.79-.4,143.79h46s-1.1-129.29-1.1-163.79-35.5-35-65-35h-309.5s-1.5-17.5-1.5-27.5,7.5-12,18.5-12,327.5,1,377,1,55-33,55-54,1.5-75.5,1.5-75.5l137.5-1.5s.5,8,1.5,36c-23,2.5-67.5,39-67.5,87s55.5,84.5,84,84.5,53-15,53-15l26.5,28h-169c-31.5,0-39,33.5-39,40.5s.1,105.29.1,105.29h45l-.09-102.79s254.5,2,256.5,0c2-2,0,28.5,0,28.5h24.5v-25.5h160v25l44-1s2.5-227,2.5-239-32.5-28-47-28-257.5-1-266.5-1-23,5-23,5c0,0-18,18.5-19,16.5-1-2-20.5-8.5-20.5-8.5v-162s86.5,2,131.5,2,48.5-33.5,48.5-53-1-84.5-1-97.5,17.5-9.5,17.5-9.5h178s6-354-2-373c-8-19-49-23-49-23h-269c-6,0-17,5-17,5l-17,16-24-12-1.43-201.21-43.25-.25s1.93,115.71,1.93,119.96-6,4.25-6,4.25h-134.25l-1.43-123.46h-44.75s1.93,239.46,1.93,246.46-3.25,7.25-5.25,7.25h-14l-3.5-6.25v-21.75c0-2.75-19.25,0-19.25,0v7.25l-88.75-.75-3.93-228.21h-32.5s3.43,210.71,3.43,226.21-11,25.5-26.5,25.5h-214.25c-40,0-46,36.25-46,46.75s1.5,130.5,1.5,145.75-6,17.5-11,17.5h-98.5c-9.5,0-8.75-3.75-8.75-10v-20.5h23.75c12.75,0,28-30.25,28-37.75s-.37-160.12-.37-163.12,2.62-5,6-5,12.13.38,27.62.38,30.25-27.75,30.25-37.25-1.82-139.14-1.82-139.14h-41.75s.32,109.89.32,121.39-9,11.5-13.5,11.5-112.5,1-112.5,1c0,0,.5-26.5-1.5-39.5-2-13-25-39.5-25-39.5l46.82-70.97-64.29,13.21s-17.04,55.62-24.5,50.84c-4.65-2.97-40.57-1.24-46.16,1.84s-2.56,1.63-5.69-3.55-19.49-54.13-19.49-54.13l-122.76-13.98Z" style="fill:#ababab; stroke:#0f0f0f; stroke-width:4px;"/></g><g id="Shape_Layer_2-2"><path id="Shape_1-15" d="M1347.78,226.89v84c0,17.5-13.5,45.5-40.5,45.5s-384.75,3-396.5,3-11.75,3.25-11.75,9-.25,19.75-.25,23.5-1.75,6,9.5,6,299.25-2.25,316-2.25,50.25,12,50.25,38,.5,160,.5,163.25-.5,6.25,6.25,6.25,81,.75,85,.75,13-4.5,13-10.5v-102c0-8.25,6.5-43.25,41.75-43.25s166.75,2.75,165.75,1.25c-1-1.5-29-28.5-29-28.5,0,0-31,13-51.5,13.5s-82.5-23.5-82.5-83.5,63-86.5,63.5-88.5c1-14,.5-35,.5-35l-140-.5Z" style="fill:#90cb5f; stroke:#0f0f0f; stroke-width:4px;"/></g><g id="Shape_Layer_5-2"><path id="Shape_1-16" d="M1666.78,490.89h-226c-16,0-20.5,3.5-20.5,19s1,65,1,93-24,47-44,47h-416s-1,33-1,39.5-3,13,10.5,13,304.5-2,340.5-2,39,34.5,39,45.5-1,15,9.5,15h289c17,0,22-3.5,22-19.5v-104.5c0-12.5,10.5-22,10.5-29.5s1.5-88.5,1.5-103.5-7-13-16-13Z" style="fill:#90cb5f; stroke:#0f0f0f; stroke-width:4px;"/></g><g id="Shape_Layer_6-2"><path id="Shape_1-17" d="M1285.28,745.39c-10.5,0-82,2-97.5,2s-14.5,7.5-14.5,12v223c0,7.5,3,11,3,11h93s8,21,26,21c9.5,0,11.5-2,11.5-13.5s-2-230-2-243.5-9-12-19.5-12Z" style="fill:#90cb5f; stroke:#0f0f0f; stroke-width:4px;"/></g><g id="Shape_Layer_7-2"><path id="Shape_1-18" d="M1351.78,805.89c-.5,0-1.5,58-1.5,69.5s1.5,12.5,10,12.5,110.5-1,116.5-1,13,.5,13-6.5-1-53.5-1-64-2-10-6-10-123-.5-131-.5Z" style="fill:#90cb5f; stroke:#0f0f0f; stroke-width:4px;"/></g><g id="Shape_Layer_8-2"><path id="Shape_1-19" d="M796.28,733.39c-8.5,0-202,2-220.5,2.5-1.5.5-1,113-1,113,0,0,7-2.5,31.5-2.5,45.07,0,77,46.5,77,60.5v41s100.5,1.5,113,1.5,12.5-5,12.5-15,.5-181,.5-190.5-4.5-10.5-13-10.5Z" style="fill:#90cb5f; stroke:#0f0f0f; stroke-width:4px;"/></g><g id="Shape_Layer_9-2"><path id="Shape_1-20" d="M511.78,920.39c-21,.5-40,.5-49,.5s-11.5,9-11.5,14.5,2,120.5,2,132.5,3.5,12.5,9,12.5,59.5,1,69.5,1,10-2.5,10-10-2-55-3-78.5c-15-11-27-44.5-27-72.5Z" style="fill:#90cb5f; stroke:#0f0f0f; stroke-width:4px;"/></g><g id="Shape_Layer_110-2"><path id="Shape_1-21" d="M658.78,991.39c-37,32.5-72.5,23-72.5,24.5v127.5c0,9,10.5,11.5,18,11.5s118.5-1,124.5-1,17-4,17-16-1.5-146-1.5-146l-85.5-.5Z" style="fill:#90cb5f; stroke:#0f0f0f; stroke-width:4px;"/></g><g id="Shape_Layer_111-2"><path id="Shape_1-22" d="M1598.78,995.39s-7.5,8.5-10,10,11,29.5,11,46-10,42-10,42l56.5,56.5s183.5,1.5,202,1.5,16-5,16-13-.5-124-.5-133-5.5-8.5-14.5-8.5-250.5-1.5-250.5-1.5Z" style="fill:#90cb5f; stroke:#0f0f0f; stroke-width:4px;"/></g><g id="Shape_Layer_112-2"><path id="Shape_1-23" d="M1849.78,293.89h-253.5l-9,8.5s11.5,26,11.5,47.5-10.5,39.5-10.5,39.5l61,58.5s187.5-.5,200-.5,16-6,16-12.5-1.5-122-1.5-131-3.5-10-14-10Z" style="fill:#90cb5f; stroke:#0f0f0f; stroke-width:4px;"/></g><g id="Shape_Layer_113-2"><path id="Shape_1-24" d="M1846.28,490.39h-131c-8,0-10,1.5-10,7.5s1.5,83,1.5,97c-1.5,9.5,8,7,13,7h132.5c13,0,12.5-5,12.5-12.5v-89.5c0-11-8.5-9.5-18.5-9.5Z" style="fill:#90cb5f; stroke:#0f0f0f; stroke-width:4px;"/></g><g id="Shape_Layer_4-2"><path id="Shape_1-25" d="M736.78,289.39c-6,0-56,.5-79,0-14,21.5-62,27-73,23.5-2,15.5-1,112-1,123s3.5,14.5,10,14.5,111,.5,132,.5,18.5-8.5,18.5-19.5-1.5-120-1.5-130,0-12-6-12Z" style="fill:#90cb5f; stroke:#0f0f0f; stroke-width:4px;"/></g><g id="Shape_Layer_3-2"><path id="Shape_1-26" d="M462.78,218.39c-5,0-11.5,1-11.5,18v127c0,9-2,17.5,11,17.5s58.5.5,65.5.5,12.5-1.5,12.5-13-.5-76-.5-76c0,0-23-24.5-25.5-36.5s-2.75-30.5-2.75-30.5c0,0,2.25-6.25-10.75-6.5-11-.21-33-.5-38-.5Z" style="fill:#90cb5f; stroke:#0f0f0f; stroke-width:4px;"/></g><g id="hul1-2"><circle id="Ellipse_1-5" cx="1519.28" cy="338.89" r="30.06" style="fill:#90cb5f; stroke:#0f0f0f; stroke-width:4px;"/></g><g id="hul2-2"><circle id="Ellipse_1-6" cx="1519.28" cy="338.89" r="30.06" style="fill:#90cb5f; stroke:#0f0f0f; stroke-width:4px;"/></g><g id="hul3-2"><circle id="Ellipse_1-7" cx="1519.28" cy="338.89" r="30.06" style="fill:#90cb5f; stroke:#0f0f0f; stroke-width:4px;"/></g><g id="hul4-2"><circle id="Ellipse_1-8" cx="1519.28" cy="338.89" r="30.06" style="fill:#90cb5f; stroke:#0f0f0f; stroke-width:4px;"/></g></g></svg>