<svg xmlns="http://www.w3.org/2000/svg" width="1920" height="1080" style="width:100%;height:100%;transform:translate3d(0,0,0);content-visibility:visible" viewBox="0 0 1920 1080">
  <defs>
    <clipPath id="a">
      <path d="M0 0h1920v1080H0z"/>
    </clipPath>
  </defs>
  <g clip-path="url(#a)">
    <g style="display:block">
      <path fill="#90cb5f" d="M2267.19-144.93v1414.8h-2515.2v-1414.8z"/>
      <path fill="none" d="M2267.19-144.93v1414.8h-2515.2v-1414.8z"/>
      <path fill="#ababab" d="m290.51-46.205 29.61 12s60.185 63.67 64.46 63.7 5.219.987 4.73 2.884 2.819 4.532-5.019 4.477c-7.837-.054-41.554-1.24-70.529-1.442s-38.203 28.947-38.27 38.684c-.069 9.737-.033 38.713-.033 38.713l-12.113-.085-.306 43.937 13.535.332s-1.032 45.831-1.243 75.993c-.21 30.162 34.64 39.193 40.102 39.231 5.463.038 71.014.02 76.714.06s9.015 1.489 8.977 6.95c-.038 5.463.546 23.755.455 36.817-.09 13.063 23.346 23.914 36.865 26.621-1.194.942-5.74 5.66-5.767 9.697l-.11 15.675c-.043 6.175-10.051 10.855-10.051 10.855l-10.445-.785.1-14.25-74.098-.517-.42 60.086 74.098.517.19-27.312 13.538.095c7.6.053 23.161-17.651 23.183-20.739.022-3.087.312-10.685.373-19.473.062-8.787 11.513-16.07 16.025-16.038 4.513.031 16.389-.123 24.226-.069 7.838.055 11.146 2.453 11.106 8.153s-1.068 118.983-1.164 132.758c-.096 13.774 1.342 11.884 6.567 11.92 5.225.037 87.404-.339 103.079-.23s17.578-.352 17.624-7.002c.047-6.65.757-40.37.817-48.92s-3.75-7.152-10.4-7.198-50.829.358-68.641.233-23.873-16.554-23.796-27.479l.43-61.511 19.949.14s.643 9.98.48 33.253c-.162 23.275 21.142 33.399 32.067 33.475s95.95.433 122.074.615 43.134-20.837 43.232-34.85l.572-81.935s291.418.135 301.63.206c10.213.071 13.759 2.471 13.724 7.459s-1.623 130.379-1.671 137.266-.785 10.445-7.198 10.4c-6.412-.044-328.947.316-359.347.104s-36.059 28.012-36.103 34.424l-.315 45.124-485 .932-1.008-532.36-49.998.06-.995 532.409-142.247-.24-.285 40.85 414.418.674.195 57.122s-96.663-.2-104.382-.254-14.314 9.163-14.35 14.15l-.313 45.005c-.054 7.719 2.168 12.603 12.499 12.675l95.235.665c5.7.04 8.665.536 8.532 2.672-.134 2.137-4.53 2.581-8.33 2.555-3.8-.027-45.61 1.106-70.309.934-24.7-.173-36.311 30.147-36.371 38.697s1.289 19.484 1.23 28.034c-.06 8.55-5.764 8.985-9.564 8.959-3.8-.027-7.121-.525-7.121-.525l-.302 43.224 16.15.112-.471 67.449c-.245 35.149 27.7 46.744 40.049 46.83 12.35.087 58.889 1.837 74.573.521 15.685-1.315 11.34 8.63 11.34 8.63s-3.006 22.304 3.98 42.303c6.726 19.257 34.066 19.239 31.682 20.647s-5.361 83.566-5.361 83.566 2.836 1.919 16.152-.364c.09-12.824 10.59-84.003 20.09-83.936l32.774.228s.345 82.656.322 85.98c-.023 3.326 24.7.173 24.7.173l-1.266-86.937 20.9.146 4.108 87.906 37.514 1.688-.77-89.784s7.603-.422 21.852-.322 30.585-26.387 30.698-42.537-.503-132.057-.46-138.231-.372-14.728-.372-14.728 7.128-.426 26.603-.29c19.474.136 36.756-25.869 36.902-46.768s-.269-233.708-.11-256.507 1.575-21.365 15.824-21.265 13.303-.382 27.553-.283 17.578-.352 17.535 5.823.409 9.503.153 46.077c-.255 36.574 34.383 42.041 54.332 42.18 19.95.14 108.3.281 128.725.424s29.406 6.38 29.297 22.055c-.11 15.675-1.057 219.448-1.057 219.448l-19.109 15.542-207.57-1.45c-38.949-.271-46.735 26.275-46.9 50.025-.166 23.749-.296 202.084-.296 202.084l42.75.298.744-130.354s282.156.07 293.556.15 20.906-.805 20.82 11.545c-.037 5.225-1.338 136.594-1.338 136.594l43.7.306s-.184-122.83.045-155.604-33.493-33.485-61.517-33.68l-294.018-2.053s-1.309-16.635-1.242-26.135 7.204-11.35 17.654-11.277 311.11 3.122 358.135 3.45 52.467-30.984 52.606-50.933c.14-19.95 1.926-71.714 1.926-71.714l130.632-.513s.422 7.603 1.186 34.21c-21.866 2.222-64.382 36.6-64.7 82.2-.319 45.599 52.163 80.64 79.237 80.83 27.075.189 50.449-13.898 50.449-13.898l24.988 26.775-160.546-1.121c-29.924-.209-37.271 31.566-37.318 38.215s-.607 100.024-.607 100.024l42.748.298.592-97.648s241.756 3.588 243.669 1.7c1.913-1.886-.19 27.075-.19 27.075l23.275.163.17-24.225 151.996 1.061-.166 23.75 41.806-.658s3.88-215.628 3.96-227.028-30.689-26.815-44.464-26.911-244.612-2.658-253.162-2.718-21.882 4.598-21.882 4.598-17.223 17.455-18.16 15.548c-.936-1.906-19.418-8.21-19.418-8.21l.942-134.897.133-19s82.16 2.474 124.908 2.772c42.75.299 46.296-31.502 46.425-50.027.13-18.524-.389-80.28-.302-92.63.086-12.349 16.687-8.908 16.687-8.908l169.096 1.18s8.048-336.251.574-354.354-46.396-22.174-46.396-22.174l-255.544-1.784c-5.7-.04-16.183 4.637-16.183 4.637l-16.256 15.087-22.72-11.56-.02-191.154-41.084-.524s1.062 109.935 1.033 113.972c-.028 4.037-5.728 3.998-5.728 3.998l-127.534-.89-.536-117.294-42.511-.297s.241 227.494.195 234.144c-.047 6.65-3.136 6.866-5.036 6.852l-13.3-.092-3.283-5.961.144-20.662c.019-2.612-18.287-.128-18.287-.128l-.048 6.888-84.305-1.301-2.216-216.82-30.875-.216s1.858 200.192 1.755 214.917-10.62 24.151-25.344 24.048L744.371 170c-38-.266-43.94 34.131-44.01 44.106-.069 9.975.56 123.982.46 138.469-.102 14.487-5.817 16.585-10.567 16.552l-93.572-.654c-9.025-.063-8.288-3.62-8.246-9.558l.136-19.474 22.561.157c12.113.085 26.8-28.55 26.85-35.675s.706-152.118.726-154.968 2.527-4.732 5.733-4.71 11.516.437 26.24.54c14.725.102 28.921-26.162 28.984-35.187s-.803-132.195-.803-132.195l-39.662-.277s-.427 104.399-.503 115.324-8.627 10.865-12.901 10.835c-4.275-.03-106.88.204-106.88.204s.651-25.172-1.162-37.534c-1.814-12.363-23.488-37.69-23.488-37.69l44.95-67.112-61.165 12.127s-16.552 52.72-23.614 48.138c-4.402-2.856-38.533-1.447-43.86 1.443-5.329 2.89-2.44 1.532-5.384-3.414-2.944-4.947-18.154-51.553-18.154-51.553z"/>
      <path fill="none" stroke="#0e0e0e" stroke-width="3.8" d="m290.51-46.205 29.61 12s60.185 63.67 64.46 63.7 5.219.987 4.73 2.884 2.819 4.532-5.019 4.477c-7.837-.054-41.554-1.24-70.529-1.442s-38.203 28.947-38.27 38.684c-.069 9.737-.033 38.713-.033 38.713l-12.113-.085-.306 43.937 13.535.332s-1.032 45.831-1.243 75.993c-.21 30.162 34.64 39.193 40.102 39.231 5.463.038 71.014.02 76.714.06s9.015 1.489 8.977 6.95c-.038 5.463.546 23.755.455 36.817-.09 13.063 23.346 23.914 36.865 26.621-1.194.942-5.74 5.66-5.767 9.697l-.11 15.675c-.043 6.175-10.051 10.855-10.051 10.855l-10.445-.785.1-14.25-74.098-.517-.42 60.086 74.098.517.19-27.312 13.538.095c7.6.053 23.161-17.651 23.183-20.739.022-3.087.312-10.685.373-19.473.062-8.787 11.513-16.07 16.025-16.038 4.513.031 16.389-.123 24.226-.069 7.838.055 11.146 2.453 11.106 8.153s-1.068 118.983-1.164 132.758c-.096 13.774 1.342 11.884 6.567 11.92 5.225.037 87.404-.339 103.079-.23s17.578-.352 17.624-7.002c.047-6.65.757-40.37.817-48.92s-3.75-7.152-10.4-7.198-50.829.358-68.641.233-23.873-16.554-23.796-27.479l.43-61.511 19.949.14s.643 9.98.48 33.253c-.162 23.275 21.142 33.399 32.067 33.475s95.95.433 122.074.615 43.134-20.837 43.232-34.85l.572-81.935s291.418.135 301.63.206c10.213.071 13.759 2.471 13.724 7.459s-1.623 130.379-1.671 137.266-.785 10.445-7.198 10.4c-6.412-.044-328.947.316-359.347.104s-36.059 28.012-36.103 34.424l-.315 45.124-485 .932-1.008-532.36-49.998.06-.995 532.409-142.247-.24-.285 40.85 414.418.674.195 57.122s-96.663-.2-104.382-.254-14.314 9.163-14.35 14.15l-.313 45.005c-.054 7.719 2.168 12.603 12.499 12.675l95.235.665c5.7.04 8.665.536 8.532 2.672-.134 2.137-4.53 2.581-8.33 2.555-3.8-.027-45.61 1.106-70.309.934-24.7-.173-36.311 30.147-36.371 38.697s1.289 19.484 1.23 28.034c-.06 8.55-5.764 8.985-9.564 8.959-3.8-.027-7.121-.525-7.121-.525l-.302 43.224 16.15.112-.471 67.449c-.245 35.149 27.7 46.744 40.049 46.83 12.35.087 58.889 1.837 74.573.521 15.685-1.315 11.34 8.63 11.34 8.63s-3.006 22.304 3.98 42.303c6.726 19.257 34.066 19.239 31.682 20.647s-5.361 83.566-5.361 83.566 2.836 1.919 16.152-.364c.09-12.824 10.59-84.003 20.09-83.936l32.774.228s.345 82.656.322 85.98c-.023 3.326 24.7.173 24.7.173l-1.266-86.937 20.9.146 4.108 87.906 37.514 1.688-.77-89.784s7.603-.422 21.852-.322 30.585-26.387 30.698-42.537-.503-132.057-.46-138.231-.372-14.728-.372-14.728 7.128-.426 26.603-.29c19.474.136 36.756-25.869 36.902-46.768s-.269-233.708-.11-256.507 1.575-21.365 15.824-21.265 13.303-.382 27.553-.283 17.578-.352 17.535 5.823.409 9.503.153 46.077c-.255 36.574 34.383 42.041 54.332 42.18 19.95.14 108.3.281 128.725.424s29.406 6.38 29.297 22.055c-.11 15.675-1.057 219.448-1.057 219.448l-19.109 15.542-207.57-1.45c-38.949-.271-46.735 26.275-46.9 50.025-.166 23.749-.296 202.084-.296 202.084l42.75.298.744-130.354s282.156.07 293.556.15 20.906-.805 20.82 11.545c-.037 5.225-1.338 136.594-1.338 136.594l43.7.306s-.184-122.83.045-155.604-33.493-33.485-61.517-33.68l-294.018-2.053s-1.309-16.635-1.242-26.135 7.204-11.35 17.654-11.277 311.11 3.122 358.135 3.45 52.467-30.984 52.606-50.933c.14-19.95 1.926-71.714 1.926-71.714l130.632-.513s.422 7.603 1.186 34.21c-21.866 2.222-64.382 36.6-64.7 82.2-.319 45.599 52.163 80.64 79.237 80.83 27.075.189 50.449-13.898 50.449-13.898l24.988 26.775-160.546-1.121c-29.924-.209-37.271 31.566-37.318 38.215s-.607 100.024-.607 100.024l42.748.298.592-97.648s241.756 3.588 243.669 1.7c1.913-1.886-.19 27.075-.19 27.075l23.275.163.17-24.225 151.996 1.061-.166 23.75 41.806-.658s3.88-215.628 3.96-227.028-30.689-26.815-44.464-26.911-244.612-2.658-253.162-2.718-21.882 4.598-21.882 4.598-17.223 17.455-18.16 15.548c-.936-1.906-19.418-8.21-19.418-8.21l.942-134.897.133-19s82.16 2.474 124.908 2.772c42.75.299 46.296-31.502 46.425-50.027.13-18.524-.389-80.28-.302-92.63.086-12.349 16.687-8.908 16.687-8.908l169.096 1.18s8.048-336.251.574-354.354-46.396-22.174-46.396-22.174l-255.544-1.784c-5.7-.04-16.183 4.637-16.183 4.637l-16.256 15.087-22.72-11.56-.02-191.154-41.084-.524s1.062 109.935 1.033 113.972c-.028 4.037-5.728 3.998-5.728 3.998l-127.534-.89-.536-117.294-42.511-.297s.241 227.494.195 234.144c-.047 6.65-3.136 6.866-5.036 6.852l-13.3-.092-3.283-5.961.144-20.662c.019-2.612-18.287-.128-18.287-.128l-.048 6.888-84.305-1.301-2.216-216.82-30.875-.216s1.858 200.192 1.755 214.917-10.62 24.151-25.344 24.048L744.371 170c-38-.266-43.94 34.131-44.01 44.106-.069 9.975.56 123.982.46 138.469-.102 14.487-5.817 16.585-10.567 16.552l-93.572-.654c-9.025-.063-8.288-3.62-8.246-9.558l.136-19.474 22.561.157c12.113.085 26.8-28.55 26.85-35.675s.706-152.118.726-154.968 2.527-4.732 5.733-4.71 11.516.437 26.24.54c14.725.102 28.921-26.162 28.984-35.187s-.803-132.195-.803-132.195l-39.662-.277s-.427 104.399-.503 115.324-8.627 10.865-12.901 10.835c-4.275-.03-106.88.204-106.88.204s.651-25.172-1.162-37.534c-1.814-12.363-23.488-37.69-23.488-37.69l44.95-67.112-61.165 12.127s-16.552 52.72-23.614 48.138c-4.402-2.856-38.533-1.447-43.86 1.443-5.329 2.89-2.44 1.532-5.384-3.414-2.944-4.947-18.154-51.553-18.154-51.553z"/>
      <path fill="#90cb5f" d="m1170.775 90.323-.557 79.798c-.116 16.625-13.126 43.134-38.776 42.955-25.649-.179-365.523.299-376.685.22-11.162-.077-11.184 3.01-11.222 8.473-.038 5.462-.369 18.76-.393 22.322-.025 3.563-1.703 5.689 8.984 5.763 10.688.075 284.296-.153 300.208-.041 15.912.11 47.657 11.733 47.484 36.432s-.586 152-.607 155.087-.517 5.934 5.896 5.979c6.412.045 76.943 1.25 80.743 1.276s12.38-4.189 12.419-9.889l.676-96.897c.055-7.837 6.462-41.044 39.949-40.81s158.39 3.719 157.45 2.287-27.36-27.267-27.36-27.267-29.536 12.144-49.013 12.483c-19.478.34-78.218-22.871-77.82-79.87.398-56.998 60.423-81.755 60.91-83.652 1.044-13.293.708-33.245.708-33.245z"/>
      <path fill="none" stroke="#0e0e0e" stroke-width="3.8" d="m1170.775 90.323-.557 79.798c-.116 16.625-13.126 43.134-38.776 42.955-25.649-.179-365.523.299-376.685.22-11.162-.077-11.184 3.01-11.222 8.473-.038 5.462-.369 18.76-.393 22.322-.025 3.563-1.703 5.689 8.984 5.763 10.688.075 284.296-.153 300.208-.041 15.912.11 47.657 11.733 47.484 36.432s-.586 152-.607 155.087-.517 5.934 5.896 5.979c6.412.045 76.943 1.25 80.743 1.276s12.38-4.189 12.419-9.889l.676-96.897c.055-7.837 6.462-41.044 39.949-40.81s158.39 3.719 157.45 2.287-27.36-27.267-27.36-27.267-29.536 12.144-49.013 12.483c-19.478.34-78.218-22.871-77.82-79.87.398-56.998 60.423-81.755 60.91-83.652 1.044-13.293.708-33.245.708-33.245z"/>
      <path fill="#90cb5f" d="m1472.067 343.233-214.694-1.5c-15.2-.105-19.498 3.19-19.6 17.914-.104 14.725.518 61.756.332 88.355-.185 26.6-23.11 44.49-42.11 44.357l-395.19-2.759s-1.17 31.343-1.213 37.517-2.936 12.33 9.889 12.42 289.281.12 323.48.358c34.2.239 36.82 33.033 36.748 43.483s-1.05 14.243 8.925 14.312l274.543 1.917c16.15.113 20.923-3.179 21.029-18.379l.693-99.272c.083-11.875 10.12-20.83 10.17-27.955s2.012-84.063 2.112-98.313-6.564-12.396-15.114-12.455"/>
      <path fill="none" stroke="#0e0e0e" stroke-width="3.8" d="m1472.067 343.233-214.694-1.5c-15.2-.105-19.498 3.19-19.6 17.914-.104 14.725.518 61.756.332 88.355-.185 26.6-23.11 44.49-42.11 44.357l-395.19-2.759s-1.17 31.343-1.213 37.517-2.936 12.33 9.889 12.42 289.281.12 323.48.358c34.2.239 36.82 33.033 36.748 43.483s-1.05 14.243 8.925 14.312l274.543 1.917c16.15.113 20.923-3.179 21.029-18.379l.693-99.272c.083-11.875 10.12-20.83 10.17-27.955s2.012-84.063 2.112-98.313-6.564-12.396-15.114-12.455z"/>
      <path fill="#90cb5f" d="M1107.963 582.472c-9.974-.07-77.911 1.356-92.636 1.253s-13.824 7.029-13.854 11.304l-1.479 211.845c-.05 7.124 2.777 10.47 2.777 10.47l88.348.616s7.46 20.003 24.56 20.122c9.025.063 10.938-1.824 11.014-12.748.077-10.925-.374-218.508-.285-231.333s-8.47-11.46-18.445-11.53"/>
      <path fill="none" stroke="#0e0e0e" stroke-width="3.8" d="M1107.963 582.472c-9.974-.07-77.911 1.356-92.636 1.253s-13.824 7.029-13.854 11.304l-1.479 211.845c-.05 7.124 2.777 10.47 2.777 10.47l88.348.616s7.46 20.003 24.56 20.122c9.025.063 10.938-1.824 11.014-12.748.077-10.925-.374-218.508-.285-231.333s-8.47-11.46-18.445-11.53z"/>
      <path fill="#90cb5f" d="M1170.735 640.386c-.475-.003-1.81 55.09-1.886 66.014-.076 10.925 1.342 11.884 9.417 11.94 8.075.057 104.979-.216 110.679-.177s12.346.562 12.393-6.088c.046-6.65-.596-50.83-.526-60.805s-1.834-9.513-5.633-9.54-116.844-1.29-124.444-1.344"/>
      <path fill="none" stroke="#0e0e0e" stroke-width="3.8" d="M1170.735 640.386c-.475-.003-1.81 55.09-1.886 66.014-.076 10.925 1.342 11.884 9.417 11.94 8.075.057 104.979-.216 110.679-.177s12.346.562 12.393-6.088c.046-6.65-.596-50.83-.526-60.805s-1.834-9.513-5.633-9.54-116.844-1.29-124.444-1.344z"/>
      <path fill="#90cb5f" d="M643.504 567.829c-8.074-.056-191.908.56-209.486.912-1.428.465-1.7 107.341-1.7 107.341s6.667-2.328 29.941-2.166c42.815.3 72.84 44.685 72.747 57.984l-.272 38.95s95.463 2.091 107.338 2.174 11.908-4.667 11.974-14.167 1.675-171.942 1.738-180.967-4.205-10.005-12.28-10.061"/>
      <path fill="none" stroke="#0e0e0e" stroke-width="3.8" d="M643.504 567.829c-8.074-.056-191.908.56-209.486.912-1.428.465-1.7 107.341-1.7 107.341s6.667-2.328 29.941-2.166c42.815.3 72.84 44.685 72.747 57.984l-.272 38.95s95.463 2.091 107.338 2.174 11.908-4.667 11.974-14.167 1.675-171.942 1.738-180.967-4.205-10.005-12.28-10.061z"/>
      <path fill="#90cb5f" d="M371.995 743.588c-19.953.336-38.002.21-46.552.15s-10.985 8.474-11.021 13.698 1.1 114.486 1.021 125.886 3.242 11.898 8.467 11.934 56.517 1.345 66.017 1.41c9.5.067 9.516-2.308 9.566-9.433.05-7.124-1.535-52.262-2.33-74.593-14.176-10.549-25.354-42.453-25.168-69.052"/>
      <path fill="none" stroke="#0e0e0e" stroke-width="3.8" d="M371.995 743.588c-19.953.336-38.002.21-46.552.15s-10.985 8.474-11.021 13.698 1.1 114.486 1.021 125.886 3.242 11.898 8.467 11.934 56.517 1.345 66.017 1.41c9.5.067 9.516-2.308 9.566-9.433.05-7.124-1.535-52.262-2.33-74.593-14.176-10.549-25.354-42.453-25.168-69.052z"/>
      <path fill="#90cb5f" d="M511.17 812.011c-35.364 30.63-69.025 21.369-69.035 22.794l-.846 121.122c-.06 8.55 9.899 10.994 17.024 11.044s112.579-.164 118.278-.124 16.177-3.687 16.256-15.087-.456-138.707-.456-138.707z"/>
      <path fill="none" stroke="#0e0e0e" stroke-width="3.8" d="M511.17 812.011c-35.364 30.63-69.025 21.369-69.035 22.794l-.846 121.122c-.06 8.55 9.899 10.994 17.024 11.044s112.579-.164 118.278-.124 16.177-3.687 16.256-15.087-.456-138.707-.456-138.707z"/>
      <path fill="#90cb5f" d="M1404.123 822.045s-7.182 8.025-9.566 9.434 10.254 28.097 10.144 43.772-9.778 39.832-9.778 39.832l53.299 54.049s174.31 2.642 191.885 2.764c17.575.123 15.233-4.643 15.286-12.243s.348-117.8.407-126.35c.06-8.55-5.168-8.112-13.718-8.171-8.55-.06-237.96-3.087-237.96-3.087"/>
      <path fill="none" stroke="#0e0e0e" stroke-width="3.8" d="M1404.123 822.045s-7.182 8.025-9.566 9.434 10.254 28.097 10.144 43.772-9.778 39.832-9.778 39.832l53.299 54.049s174.31 2.642 191.885 2.764c17.575.123 15.233-4.643 15.286-12.243s.348-117.8.407-126.35c.06-8.55-5.168-8.112-13.718-8.171-8.55-.06-237.96-3.087-237.96-3.087z"/>
      <path fill="#90cb5f" d="m1647.22 157.3-240.82-1.68-8.605 8.015s10.752 24.775 10.61 45.2c-.143 20.424-10.238 37.454-10.238 37.454l57.561 55.979s178.124.768 189.999.851 15.24-5.594 15.282-11.769c.043-6.174-.616-115.907-.556-124.457s-3.258-9.523-13.233-9.592"/>
      <path fill="none" stroke="#0e0e0e" stroke-width="3.8" d="m1647.22 157.3-240.82-1.68-8.605 8.015s10.752 24.775 10.61 45.2c-.143 20.424-10.238 37.454-10.238 37.454l57.561 55.979s178.124.768 189.999.851 15.24-5.594 15.282-11.769c.043-6.174-.616-115.907-.556-124.457s-3.258-9.523-13.233-9.592z"/>
      <path fill="#90cb5f" d="m1642.592 343.949-124.447-.87c-7.6-.052-9.51 1.36-9.55 7.06s.875 78.857.782 92.157c-1.488 9.015 7.553 6.703 12.303 6.736l125.872.879c12.35.086 11.908-4.667 11.958-11.792l.593-85.023c.073-10.45-8.011-9.081-17.511-9.147"/>
      <path fill="none" stroke="#0e0e0e" stroke-width="3.8" d="m1642.592 343.949-124.447-.87c-7.6-.052-9.51 1.36-9.55 7.06s.875 78.857.782 92.157c-1.488 9.015 7.553 6.703 12.303 6.736l125.872.879c12.35.086 11.908-4.667 11.958-11.792l.593-85.023c.073-10.45-8.011-9.081-17.511-9.147z"/>
      <path fill="#90cb5f" d="M589.926 145.645c-5.7-.04-53.202.103-75.049-.524-13.442 20.331-59.077 25.238-69.504 21.84-2.002 14.711-1.692 106.39-1.765 116.84s3.228 13.798 9.403 13.841c6.175.044 105.444 1.212 125.394 1.35 19.95.14 17.63-7.951 17.704-18.401.073-10.45-.63-114.007-.563-123.507.066-9.5.08-11.4-5.62-11.44"/>
      <path fill="none" stroke="#0e0e0e" stroke-width="3.8" d="M589.926 145.645c-5.7-.04-53.202.103-75.049-.524-13.442 20.331-59.077 25.238-69.504 21.84-2.002 14.711-1.692 106.39-1.765 116.84s3.228 13.798 9.403 13.841c6.175.044 105.444 1.212 125.394 1.35 19.95.14 17.63-7.951 17.704-18.401.073-10.45-.63-114.007-.563-123.507.066-9.5.08-11.4-5.62-11.44z"/>
      <path fill="#90cb5f" d="M330.102 76.38c-4.75-.034-10.932.873-11.045 17.023l-.842 120.647c-.06 8.55-2.016 16.611 10.334 16.697s55.57.863 62.22.91c6.65.046 11.885-1.342 11.96-12.267.077-10.925.03-72.202.03-72.202s-21.687-23.427-23.982-34.843c-2.296-11.416-2.41-28.992-2.41-28.992s2.178-5.923-10.17-6.247c-10.446-.273-31.346-.693-36.095-.727"/>
      <path fill="none" stroke="#0e0e0e" stroke-width="3.8" d="M330.102 76.38c-4.75-.034-10.932.873-11.045 17.023l-.842 120.647c-.06 8.55-2.016 16.611 10.334 16.697s55.57.863 62.22.91c6.65.046 11.885-1.342 11.96-12.267.077-10.925.03-72.202.03-72.202s-21.687-23.427-23.982-34.843c-2.296-11.416-2.41-28.992-2.41-28.992s2.178-5.923-10.17-6.247c-10.446-.273-31.346-.693-36.095-.727z"/>
      <path fill="#90cb5f" d="M1325.147 176.246c15.21 0 27.54 12.33 27.54 27.54s-12.33 27.54-27.54 27.54-27.54-12.33-27.54-27.54 12.33-27.54 27.54-27.54"/>
      <path fill="none" stroke="#0e0e0e" stroke-width="3.6644" d="M1325.147 176.246c15.21 0 27.54 12.33 27.54 27.54s-12.33 27.54-27.54 27.54-27.54-12.33-27.54-27.54 12.33-27.54 27.54-27.54z"/>
      <path fill="#90cb5f" d="M456.68 58.985c15.21 0 27.54 12.33 27.54 27.54s-12.33 27.54-27.54 27.54-27.54-12.33-27.54-27.54 12.33-27.54 27.54-27.54"/>
      <path fill="none" stroke="#0e0e0e" stroke-width="3.6644" d="M456.68 58.985c15.21 0 27.54 12.33 27.54 27.54s-12.33 27.54-27.54 27.54-27.54-12.33-27.54-27.54 12.33-27.54 27.54-27.54z"/>
      <path fill="#90cb5f" d="M451.184 722.244c15.21 0 27.54 12.33 27.54 27.54s-12.33 27.54-27.54 27.54-27.54-12.33-27.54-27.54 12.33-27.54 27.54-27.54"/>
      <path fill="none" stroke="#0e0e0e" stroke-width="3.6644" d="M451.184 722.244c15.21 0 27.54 12.33 27.54 27.54s-12.33 27.54-27.54 27.54-27.54-12.33-27.54-27.54 12.33-27.54 27.54-27.54z"/>
      <path fill="#90cb5f" d="M1319.65 843.17c15.21 0 27.54 12.33 27.54 27.54s-12.33 27.54-27.54 27.54-27.54-12.33-27.54-27.54 12.33-27.54 27.54-27.54"/>
      <path fill="none" stroke="#0e0e0e" stroke-width="3.6644" d="M1319.65 843.17c15.21 0 27.54 12.33 27.54 27.54s-12.33 27.54-27.54 27.54-27.54-12.33-27.54-27.54 12.33-27.54 27.54-27.54z"/>
    </g>
    <g style="display:block">
      <path fill="none" stroke="#fff" stroke-dasharray="22.3 27" stroke-width="5" d="m1320 644 3 146m-150-51h127m-849-36c-36 0-52 31-52 51s16 52 47 52 56-24 56-45-11-58-51-58zm-30 132v126c0 18 17 30 34 30s97-3 114-3 45-20 45-44-2-123-2-123M409 577v101m-35 46h-45c-16 0-40 8-40 28s2 119 2 130 2 36 38 36h69m380-425v43c0 8 7 25 31 25s282 2 300 2 35 1 35 18 1 234 2 242-3 36-40 36H750s-30 9-30 38-3 204-3 204m25-162s278-1 289-1 42 2 42 37 1 125 1 125m140-6s1-47 1-66 8-38 32-38 388 4 395 4m-325-174c-32 0-49 32-49 55s18 53 48 53 62-28 62-59-36-49-61-49zm69-5s11-16 31-15 203 3 218 3 42 8 42 28v190m-502-402h273c21 0 49-5 49-36s-2-67-2-81 6-33 35-33 92 3 107 3 44 6 44-27 1-258 1-276-5-31-44-31-193-3-211-3c-28 0-40 14-40 14m-63 7c-34 0-54 22-54 48s12 58 49 58 56-36 56-58-17-48-51-48zm0-174v136M1150-33v176c0 15-3 51-34 51H760c-24 0-42 18-42 42s3 87 3 111-13 42-36 42-65-2-82-2-36 0-36-14 1-35 1-35m180-64s263-4 281-4 49 10 49 36v140M679-11c0 33 2 79 2 97s-12 40-44 40H536m80 24v123c0 22-1 45-35 45s-114-1-126-1-34 1-34-28-1-127-1-127m35-122c-29 0-46 26-46 51s26 52 46 52 56-15 56-47-27-56-56-56zm-77 21s-32-3-48-3-34 7-34 24 1 113 1 127 11 43 35 43 64-1 64-1M987-16c0 24 2 164 2 164m186-80h126m86 196 37 35M534 792s76 1 108 1 35-25 35-36-2-250-2-261 8-27 21-27 461-1 461-1 11.327-.339 24.561-.339C1203 467.661 1219 455.915 1219 428v-67c0-11 1-37 38-37s398-2 398-2M0 548h651M142-4v531"/>
    </g>
    <g style="display:block">
      <path fill="#4aa5de" d="M1960-25s-514-37-514 11 1 68 1 84 10 26.5 45 26.5 158.5 1 158.5 1 31.868.798 48.434.798S1724 99.76 1724 121c0 27.931 2.513 237.018 2.513 244.009S1729 394 1745 394h215z"/>
      <path fill="none" stroke="#fafbf7" stroke-width="4" d="M1960-25s-514-37-514 11 1 68 1 84 10 26.5 45 26.5 158.5 1 158.5 1 31.868.798 48.434.798S1724 99.76 1724 121c0 27.931 2.513 237.018 2.513 244.009S1729 394 1745 394h215z"/>
    </g>
    <g style="display:block">
      <path fill="#fafbf7" d="M452.422 446v62.734c0 3.311-2.689 6-6 6H204c-3.311 0-6-2.689-6-6V446c0-3.311 2.689-6 6-6h242.422c3.311 0 6 2.689 6 6"/>
      <path fill="none" stroke="#030303" stroke-width="5" d="M452.422 446v62.734c0 3.311-2.689 6-6 6H204c-3.311 0-6-2.689-6-6V446c0-3.311 2.689-6 6-6h242.422c3.311 0 6 2.689 6 6z"/>
    </g>
    <g style="display:block">
      <path fill="#fafbf7" d="M1012.422 324v62.734c0 3.311-2.689 6-6 6H764c-3.311 0-6-2.689-6-6V324c0-3.311 2.689-6 6-6h242.422c3.311 0 6 2.689 6 6"/>
      <path fill="none" stroke="#030303" stroke-width="5" d="M1012.422 324v62.734c0 3.311-2.689 6-6 6H764c-3.311 0-6-2.689-6-6V324c0-3.311 2.689-6 6-6h242.422c3.311 0 6 2.689 6 6z"/>
    </g>
    <g style="display:block">
      <path fill="#fafbf7" d="M1638.922 880v62.734a6 6 0 0 1-6 6H1443a6 6 0 0 1-6-6V880a6 6 0 0 1 6-6h189.922a6 6 0 0 1 6 6"/>
      <path fill="none" stroke="#030303" stroke-width="5" d="M1638.922 880v62.734a6 6 0 0 1-6 6H1443a6 6 0 0 1-6-6V880a6 6 0 0 1 6-6h189.922a6 6 0 0 1 6 6z"/>
    </g>
    <g style="display:block">
      <path fill="#fafbf7" d="M308.422 960v62.734c0 3.311-2.689 6-6 6H60c-3.311 0-6-2.689-6-6V960c0-3.311 2.689-6 6-6h242.422c3.311 0 6 2.689 6 6"/>
      <path fill="none" stroke="#030303" stroke-width="5" d="M308.422 960v62.734c0 3.311-2.689 6-6 6H60c-3.311 0-6-2.689-6-6V960c0-3.311 2.689-6 6-6h242.422c3.311 0 6 2.689 6 6z"/>
    </g>
    <g style="display:block">
      <path fill="#fafbf7" d="M1810.422 14v62.734c0 3.311-2.689 6-6 6H1562c-3.311 0-6-2.689-6-6V14c0-3.311 2.689-6 6-6h242.422c3.311 0 6 2.689 6 6"/>
      <path fill="none" stroke="#030303" stroke-width="5" d="M1810.422 14v62.734c0 3.311-2.689 6-6 6H1562c-3.311 0-6-2.689-6-6V14c0-3.311 2.689-6 6-6h242.422c3.311 0 6 2.689 6 6z"/>
    </g>
    <g style="display:block">
      <path d="M1763.84 61h6.438V42.423h.087L1781.242 61h6.004V29.98h-6.44v16.88h-.087l-9.789-16.88h-7.09zM1744.92 61.087h7.658l8.484-31.107h-6.613l-5.178 21.666h-.13l-5.307-21.666h-7.353zM1720.869 48.861l3.132-11.92h.13l3.133 11.92zM1710.949 61h6.657l1.74-6.656h9.397l1.784 6.656h7.352l-8.918-31.064h-8.963zM1685.129 61h7.221V48.383h8.658V61h7.222V29.98h-7.222v12.095h-8.658V29.98h-7.221zM1665.566 55.213V35.766h3.786c2.915 0 4.438 1.784 4.438 4.264v10.876c0 2.088-1.263 4.307-4.352 4.307zM1658.345 61h11.833c6.048 0 10.877-3.003 10.877-9.876V39.29c0-6.44-4.829-9.31-10.92-9.31h-11.79zM1638.869 44.337v-8.745h4.133c2.741 0 4.046 1.74 4.046 4.35 0 2.916-1.435 4.395-4.176 4.395zM1631.647 61h7.222V49.557h3.306L1647.178 61h7.832l-6.265-12.704c3.654-1.392 5.395-4.655 5.395-8.832 0-5.612-3.394-9.484-10.268-9.484h-12.225zM1615.872 55.605c-2.958 0-4.525-1.74-4.525-4.612v-11.05c0-2.915 1.523-4.612 4.438-4.612 2.61 0 4.568 1.566 4.568 4.437v11.268c0 2.784-1.697 4.57-4.481 4.57m-.043 5.917c6.221 0 11.79-3.176 11.79-10.66V39.987c0-7.57-5.57-10.528-11.834-10.528-6.395 0-11.703 3.523-11.703 10.658v10.92c0 7.614 5.395 10.486 11.747 10.486M1576.61 61h6.44V42.423h.086L1594.013 61h6.004V29.98h-6.44v16.88h-.087l-9.788-16.88h-7.092z"/>
    </g>
    <g style="display:block">
      <path d="M977.677 368.605c-2.959 0-4.525-1.74-4.525-4.612v-11.05c0-2.915 1.522-4.612 4.438-4.612 2.61 0 4.568 1.566 4.568 4.437v11.268c0 2.784-1.697 4.57-4.481 4.57m-.043 5.917c6.221 0 11.79-3.176 11.79-10.66v-10.876c0-7.57-5.57-10.528-11.834-10.528-6.396 0-11.704 3.523-11.704 10.658v10.92c0 7.614 5.396 10.486 11.748 10.486M946.933 357.337v-8.745h4.133c2.741 0 4.046 1.74 4.046 4.35 0 2.916-1.435 4.395-4.176 4.395zM939.71 374h7.222v-11.443h3.306L955.242 374h7.832l-6.265-12.704c3.654-1.392 5.395-4.655 5.395-8.832 0-5.612-3.394-9.484-10.268-9.484h-12.225zM920.408 355.64v-7.178h4.438c2.088 0 3.524 1.174 3.524 3.35 0 2.48-1.567 3.828-3.785 3.828zm0 12.79v-7.395h4.22c2.218 0 3.916 1.131 3.916 3.524s-1.393 3.872-3.611 3.872zM913.23 374h13.965c5.264 0 8.658-3.35 8.658-8.528 0-3.436-2.132-6.482-5.526-7.265v-.087c3.133-.87 5.221-3.83 5.221-7.396 0-4.656-3.133-7.744-8.527-7.744H913.23zM893.754 357.337v-8.745h4.133c2.741 0 4.046 1.74 4.046 4.35 0 2.916-1.435 4.395-4.176 4.395zM886.532 374h7.222v-11.443h3.306L902.063 374h7.831l-6.264-12.704c3.654-1.392 5.395-4.655 5.395-8.832 0-5.612-3.395-9.484-10.268-9.484h-12.225zM862.47 374h20.1v-5.874H869.69v-6.96h10.181v-5.83h-10.18v-6.526h12.834v-5.83H862.47zM844.24 374h7.266v-25.277h8.005v-5.743h-23.319v5.743h8.049zM823.225 374.522c5.917 0 11.53-3.307 11.53-9.833 0-3.872-2.524-6.873-7.049-8.831l-3.088-1.349c-2.306-1-4.177-1.827-4.177-3.654 0-1.87 1.131-2.915 3.437-2.915 2.218 0 4.481 1.392 6.221 2.828l3.742-4.916c-2.698-2.35-6.047-3.394-9.659-3.394-6.612 0-10.702 4.394-10.702 9.528 0 4.133 2.218 6.7 6.308 8.44l4.046 1.74c2.306 1 3.612 1.784 3.612 3.742 0 1.827-1.784 2.828-4.134 2.828-3.22 0-5.482-1.48-7.44-3.046l-3.698 5.003c2.959 2.828 6.788 3.829 11.05 3.829M797.878 368.605c-1.218 0-2.176-.26-2.915-.783l7.396-14.618v10.832c0 2.784-1.697 4.57-4.48 4.57m-4.524-4.612v-11.05c0-2.915 1.522-4.612 4.437-4.612 1.262 0 2.35.349 3.133 1.045l-7.57 15.052zm-2.872 12.747 1.61-3.176c1.697.653 3.655.958 5.743.958 6.222 0 11.79-3.176 11.79-10.66v-10.876c0-3.567-1.262-6.134-3.22-7.83l1.74-3.438-2.74-1.174-1.567 3.045c-1.784-.783-3.872-1.131-6.047-1.131-6.395 0-11.703 3.523-11.703 10.658v10.92c0 3.785 1.306 6.352 3.394 8.05l-1.74 3.48z"/>
    </g>
    <g style="display:block">
      <path d="M1601.338 913.337v-8.745h4.133c2.741 0 4.046 1.74 4.046 4.35 0 2.916-1.435 4.395-4.176 4.395zM1594.116 930h7.222v-11.443h3.306l5.003 11.443h7.832l-6.265-12.704c3.654-1.392 5.395-4.655 5.395-8.832 0-5.612-3.394-9.484-10.268-9.484h-12.225zM1570.054 930h20.1v-5.874h-12.879v-6.96h10.181v-5.83h-10.18v-6.526h12.834v-5.83h-20.056zM1554.883 930.522c5.786 0 11.05-2.872 11.05-9.006v-8.527h-11.573v5.134h4.83v2.827c0 2.436-1.219 3.873-4.22 3.873-2.915 0-4.525-1.828-4.525-4.612v-11.529c0-2.74 1.783-4.482 4.611-4.482 2.436 0 4.22 1.48 4.22 3.916v1.218h6.614v-2.131c0-6.135-5.352-8.745-11.051-8.745-6.222 0-11.616 3.48-11.616 10.094v11.79c0 7.178 5.438 10.18 11.66 10.18M1524.837 917.861l3.132-11.92h.13l3.133 11.92zm-9.92 12.139h6.657l1.74-6.656h9.397l1.784 6.656h7.352l-8.918-31.064h-8.962zM1484.345 930h6.308v-21.58h.131l5.177 14.444h4.742l5.134-14.487h.087V930h6.308v-31.02h-8.657l-4.916 13.356h-.13l-4.918-13.356h-9.266zM1464.66 917.861l3.131-11.92h.13l3.134 11.92zM1454.74 930h6.656l1.74-6.656h9.398l1.784 6.656h7.352l-8.919-31.064h-8.962z"/>
    </g>
    <g style="display:block">
      <path d="M417.509 488.605c-2.958 0-4.525-1.74-4.525-4.612v-11.05c0-2.915 1.523-4.612 4.438-4.612 2.61 0 4.568 1.566 4.568 4.437v11.268c0 2.784-1.697 4.57-4.481 4.57m-.043 5.917c6.221 0 11.79-3.176 11.79-10.66v-10.876c0-7.57-5.57-10.528-11.834-10.528-6.395 0-11.703 3.523-11.703 10.658v10.92c0 7.614 5.395 10.486 11.747 10.486M386.765 477.337v-8.745h4.134c2.74 0 4.045 1.74 4.045 4.35 0 2.916-1.435 4.395-4.176 4.395zM379.543 494h7.222v-11.443h3.306L395.075 494h7.83l-6.264-12.704c3.654-1.392 5.395-4.655 5.395-8.832 0-5.612-3.394-9.484-10.268-9.484h-12.225zM360.24 475.64v-7.178h4.438c2.088 0 3.524 1.174 3.524 3.35 0 2.48-1.567 3.828-3.785 3.828zm0 12.79v-7.395h4.22c2.219 0 3.916 1.131 3.916 3.524s-1.393 3.872-3.611 3.872zm-7.178 5.57h13.965c5.264 0 8.658-3.35 8.658-8.528 0-3.436-2.132-6.482-5.526-7.265v-.087c3.133-.87 5.221-3.83 5.221-7.396 0-4.656-3.133-7.744-8.527-7.744h-13.791zM329 494h20.1v-5.874H336.22v-6.96h10.18v-5.83h-10.18v-6.526h12.834v-5.83H329zM309.523 477.337v-8.745h4.134c2.74 0 4.046 1.74 4.046 4.35 0 2.916-1.436 4.395-4.176 4.395zM302.302 494h7.221v-11.443h3.307L317.833 494h7.831l-6.265-12.704c3.655-1.392 5.396-4.655 5.396-8.832 0-5.612-3.395-9.484-10.268-9.484h-12.225zM282.826 477.337v-8.745h4.133c2.741 0 4.046 1.74 4.046 4.35 0 2.916-1.435 4.395-4.176 4.395zM275.604 494h7.222v-11.443h3.306L291.135 494h7.832l-6.265-12.704c3.654-1.392 5.395-4.655 5.395-8.832 0-5.612-3.394-9.484-10.268-9.484h-12.225zM259.872 488.605c-1.218 0-2.176-.26-2.915-.783l7.396-14.618v10.832c0 2.784-1.697 4.57-4.48 4.57m-4.525-4.612v-11.05c0-2.915 1.523-4.612 4.438-4.612 1.262 0 2.35.349 3.133 1.045l-7.57 15.052zm-2.87 12.747 1.609-3.176c1.697.653 3.655.958 5.743.958 6.222 0 11.79-3.176 11.79-10.66v-10.876c0-3.567-1.262-6.134-3.22-7.83l1.74-3.438-2.74-1.174-1.567 3.045c-1.784-.783-3.872-1.131-6.047-1.131-6.395 0-11.703 3.523-11.703 10.658v10.92c0 3.785 1.305 6.352 3.393 8.05l-1.74 3.48zM220.61 494h6.44v-18.577h.086L238.013 494h6.004v-31.02h-6.44v16.88h-.086l-9.79-16.88h-7.09z"/>
    </g>
    <g style="display:block">
      <path d="M281.752 1004.605c-2.958 0-4.525-1.74-4.525-4.612v-11.05c0-2.915 1.523-4.612 4.438-4.612 2.61 0 4.568 1.566 4.568 4.437v11.268c0 2.784-1.697 4.57-4.48 4.57m-.043 5.917c6.222 0 11.79-3.176 11.79-10.66v-10.876c0-7.57-5.57-10.528-11.834-10.528-6.395 0-11.703 3.523-11.703 10.658v10.92c0 7.614 5.395 10.486 11.747 10.486M251.008 993.337v-8.745h4.134c2.74 0 4.045 1.74 4.045 4.35 0 2.916-1.435 4.395-4.176 4.395zM243.787 1010h7.221v-11.443h3.307l5.003 11.443h7.831l-6.265-12.704c3.655-1.392 5.395-4.655 5.395-8.832 0-5.612-3.394-9.484-10.268-9.484h-12.224zM224.483 991.64v-7.178h4.438c2.088 0 3.524 1.174 3.524 3.35 0 2.48-1.566 3.828-3.785 3.828zm0 12.79v-7.395h4.22c2.219 0 3.916 1.131 3.916 3.524s-1.392 3.872-3.61 3.872zm-7.178 5.57h13.966c5.264 0 8.657-3.35 8.657-8.528 0-3.436-2.132-6.482-5.525-7.265v-.087c3.132-.87 5.22-3.83 5.22-7.396 0-4.656-3.132-7.744-8.527-7.744h-13.791zM197.829 993.337v-8.745h4.134c2.74 0 4.045 1.74 4.045 4.35 0 2.916-1.435 4.395-4.176 4.395zM190.607 1010h7.222v-11.443h3.306L206.14 1010h7.83l-6.264-12.704c3.654-1.392 5.395-4.655 5.395-8.832 0-5.612-3.394-9.484-10.268-9.484h-12.225zM166.545 1010h20.1v-5.874h-12.878v-6.96h10.18v-5.83h-10.18v-6.526H186.6v-5.83h-20.056zM148.316 1010h7.266v-25.277h8.005v-5.743h-23.32v5.743h8.05zM127.3 1010.522c5.917 0 11.53-3.307 11.53-9.833 0-3.872-2.523-6.873-7.048-8.831l-3.089-1.349c-2.306-1-4.177-1.827-4.177-3.654 0-1.87 1.131-2.915 3.437-2.915 2.218 0 4.482 1.392 6.222 2.828l3.741-4.916c-2.697-2.35-6.047-3.394-9.658-3.394-6.613 0-10.703 4.394-10.703 9.528 0 4.133 2.219 6.7 6.308 8.44l4.047 1.74c2.305 1 3.611 1.784 3.611 3.742 0 1.827-1.784 2.828-4.134 2.828-3.219 0-5.481-1.48-7.439-3.046l-3.698 5.003c2.958 2.828 6.787 3.829 11.05 3.829M94.142 1010h20.1v-5.874h-12.879v-6.96h10.181v-5.83h-10.18v-6.526h12.834v-5.83H94.142zM75.223 1010.087h7.657l8.484-31.107h-6.613l-5.177 21.666h-.13l-5.309-21.666h-7.352z"/>
    </g>
  </g>
</svg>
